<mxfile host="app.diagrams.net" modified="2022-10-18T14:23:53.115Z" agent="5.0 (X11)" etag="tAz3po7jN2tT_RZdrsQx" version="20.4.0" type="github">
  <diagram id="G1WXr2yGfJsYFsTwQhTo" name="第 1 页">
    <mxGraphModel dx="1422" dy="748" grid="1" gridSize="10" guides="1" tooltips="1" connect="1" arrows="1" fold="1" page="1" pageScale="1" pageWidth="827" pageHeight="1169" math="0" shadow="0">
      <root>
        <mxCell id="0" />
        <mxCell id="1" parent="0" />
        <mxCell id="m40AEBjQ_49BU9F84Wip-6" value="" style="rounded=1;whiteSpace=wrap;html=1;dashed=1;fillColor=#e1d5e7;strokeColor=#9673a6;strokeWidth=3;" vertex="1" parent="1">
          <mxGeometry x="230" y="134" width="515" height="87" as="geometry" />
        </mxCell>
        <mxCell id="m40AEBjQ_49BU9F84Wip-1" value="" style="shape=image;verticalLabelPosition=bottom;labelBackgroundColor=default;verticalAlign=top;aspect=fixed;imageAspect=0;image=data:image/png,iVBORw0KGgoAAAANSUhEUgAABD0AAAGeCAIAAAAYJu3IAAAAAXNSR0IArs4c6QAAAARnQU1BAACxjwv8YQUAAAAJcEhZcwAADsMAAA7DAcdvqGQAAP+lSURBVHhe7N0HYBNlHwbwZqcbWkZpS8vee8teArL3kL0EkSkoICCIioALcCAiKAouFJQte6+yV6HQlpbSFkr3zP6e5M6Ylhbo+CCF5/f1w+TNm8vl3rvk/+RyOYnJZHIgIiIiIiKyY1Lxv0RERERERPaKuYWIiIiIiOwdcwsREREREdk75hYiIiIiIrJ3zC1ERERERGTvmFuIiIiIiMjeMbcQEREREZG9Y24hIiIiIiJ7x9xCRERERET2jrmFiIiIiIjsHXMLERERERHZO+YWIiIiIiKydxKTySReJKJn7ebNm7dv3zYajeXKlatYsaLYSs+CTqc7depUmTJlfH19xSZ6WjQazY0bN6Kjo3G5VKlSVatWlcvlwk301CQmJgYFBcXGxrq6ulapUsXT01O8gYjoGeH+FnpuRUZGXr58Wbxi90JCQt54441WrVp16NChU6dOrVu3Hj9+fHBwsHhzoRUeHn7t2jXxSqGyadOmli1b7ty5U7xemIWGhiIGiFfs3l9//dWjR49mzZp1tGjevHmvXr2eg4G4ZSFesW9Go/HHH3/s0qXLSy+99Morr2AI8KL02WefIcmIPYiIngXZggULxItEz5GtW7dOmDBBrVY3bdpUbLJjQUFBI0aMQKHs7+8/fPjwxo0bI8bs2bPn/PnzLVq08PDwEPsVNhs3bpw0aZKnp2fDhg3FpkICS37ixIkPHjwYMGBArVq1xNZCyGQy/fTTT9OmTfP19a1Tp47Yaq8wt19++eXYsWOxRTRq1Gjw4MGom5OSkg4dOrR582YfHx/7fwrZwvNavXr1W2+9ValSpWrVqomt9gqhZfHixdhy79y5071790GDBpUuXfrYsWN4UY2Ojm7fvr1SqRS7EhE9ZXg9JXr+jB8/Hqv3xx9/LF63YzqdTpjboUOH3r9/X2iMiIjo168fGnGTVqsVGgsXVD9DhgzBU1i1apXYVEhcu3atSZMmmHNYv3692Fo4YeXp2bNnYXkix48fL1asmFqt/vrrr7FdCI1paWkfffSRXC4vVapUQECA0Fi4pKamotzHKPz1119ikx3btm2bk5NT0aJFN23aJDaZTJcuXapevTqeQqHbnInoecLvidHzydHREf/i3Ve4as8uXry4YcMGf3//efPmFS9eXGj08fFZunRpxYoVf/7553PnzgmNhYtEIkEBiguFYhSsdu7c2bVr15MnT0qlz8PLo0KhKCzbAt6Qfv/99wcPHowcOfL111+3HtCC+Z8xY0a3bt2ioqJ2794tNBYuWPjYFmQymbOzs9hkr/R6/R9//IGs+Nprr/Xq1UtsdXCoWbPmtGnTcAHRC7cKjURETxm/J0aFEiqY69ev3759OykpCTWB7fcWUPecP3/+n3/+CQwMLFeunLu7e0pKSrFixVBGiz0cHO7duxdsERkZmZ6eXqRIkZyK1NTUVDzQrVu30A0TQQse9Nq1aygHXVxchD5WcXFx6BwSEpKYmIi5UqlU4g2PtHHjxi1btqBEGDVqlNhkgbnCUzh27FiFChWaN28uttqTu3fvCqOAJYyCDMtEvMGyhC9cuIAMcPPmTaQvLA3rArSKjo7GgsUoYDQ1Gk3RokVtx8hWcnIyFgV6ZmRkCAcH4zIeGrXgw4VgTEzMjRs3MApYN3Drk3+nBcM3d+7ciRMnYmYWLVqEiWM6vXv3tvPvid25cweLIiwsDOuqq6ur7fHrWL0Rerdv344xqlKlCgZIq9Vm+doh+mAUsLgwCjqdDqMg3vCQhIQErPnoiW7CRLB8goKCMLgg9LHCCoC5Cg0NxbqBLcV23cgJRnnFihW4y5tvvokqWWy1wOZ5//59rE5ly5ZFgMlpPXmGsPyFUcB67ubmhogi3mAZoDNnzmzbtg3bS7Vq1TDzBoMhy3KOiIgQRgEbBZIDtn3xhodgLcUoYClZJ4Kr2Mow9MLHBLasr5NYNzBXT/LbBnh0KFmyZL9+/UqXLi22WmCAfv31VwwlXqzwuiq2EhE9TcJuF6LCAu/BM2bMqFq1qrACIxu0bdv2yy+/xBuz0OHHH38UbrJC0W/9qtXly5enTJmCqsgaVIoXL4536F27dgkdrFAW4E365ZdfFkoQvE8PHTr0ypUrb731Fq4uX75c7GcRHx+/ZMkS61EceGtv2bLlypUrrXOVEzzK6NGjcZcvvvhCbLLxzTff4KZhw4ahm9hkH1CtTp482fqLZyhbO3TosHr1alT8Qgc8HeEmq06dOgk3wdmzZydMmGAdRPDy8ho0aNCBAwfEHv/CwK1bt65169ZCN5TLY8aMQbk8duxYXF27dq3YzwKl7cKFC+vWrSt0RhmHdWPNmjXWuXo0ZF2MdZMmTQ4dOoSrr776KiZiz1+vunr16vjx41HKC88XlWvnzp2x/lu/YYX0Jdxk1b9/f+EmOHHiBBZmpUqVxNscHHx9fYcMGYKoLPb4F2pxDK41PKOofeONNxAdMTVc/e2338R+FqjO58yZYw0ewrqBxWidq5ykpaUhYn377beowsUmGxhZTA3Z3t62hfPnz2OurCU+Ikf37t2xTIxGo9Bh1qxZwk1WWHuFm+Dw4cMjRowoX768eJuDg7+/P1oe/kYcYgNe6Bo3bix08/HxQcDD6+Err7yCq8hFYj8LtOOVynosDdaNLl26bNy40TpXefDzzz/jZRPbFBKs2ERE9HQxt1BhgpIINRDehlGrvfbaawgwwns24E1aCCd4v582bZpQvKLenTp1Kqp/4aaDBw8KpXaZMmVGjhyJu6DwKlGiBFpQEO/du9fyIKKPPvpI+FgXE0F9gFoE79kVKlRo0KABGlFAiP1MpqioKKGAQ3HQt29fTLZr167CzpbXX389MTFR7JedlJSUl156CT1tv0putXXrVrlc3qZNG7sqFFASCSUsSl7UzdOnT0e6w1VYsGCBUFYePXoUwaZGjRpoxJBhFJAxhJt27tzp5+eHdowF6mYsrt69ewuf33t7e9sWzXq9ft68eebpOji0b98eo4C6HJcReIR9ID/88IPY1WQKCwvr1q0bGlE4DhgwAJNFUhIyJ+6ImljslzPU8YhbsbGxuIyoIxxfZLe5BeGtfv36mMPq1asjBOI5Yj3BVVi6dKlQnu7fv3/ixImVK1dGI8pWjMKGDRuEu2/evBnxA+1YmNiUsLiwhgsfopcrV+7cuXNCN8C2g4mbp2sJnxhuYRvEEFSpUgXbCKphsavJhMjRrl073Fq8ePHBgwdjCxWO6wAMpfXjg9zC+t+qVStM5NNPPxWb7IP1qI86depgUWMJt2jRAlex2X799ddCnx07duB1AEsVLyA9e/ZEnz/++EO4CWuXsGsFCxN9sLgwTMIuREQO5FKhG6Smpo4bNw7tWOBYzzEKQpjHOoDMg4fDZiV2tXw6I/weiZeX17Bhw6ydAS9reQt+gYGBwlb/ySef5Cf8EBHlB3MLFSYrVqzAG+egQYPu3bsntOA9+K+//sI7Pd7OEUuERkDRjJ6ff/65eN2yS0Qo7FAfxMXFia2WehcxA+0jRoywvh/v3r3bzc0NZRwKC1TPaMFNhw8fRm5BT/jqq6+EnihwMUG0dOzYEXWGMAX8e/78eaGsRKHwiLf56OholJUorx/e4QMHDhxwcnJCTYNoJDblLC1Ddz7oPv7O5ePvYnBcaOSjghbgGeF5jRo1SijxAaPwyy+/KJVKpLXTp08LjYBwiJ7fffedeN1kwsAJe6VQoiUlJQmNWD63bt1q27Yt2idNmiQ0AmprtVrt6emJOs86Cnv27BE+20YVuG7dOqFnenr60KFD0dirVy/rp/WYq5MnTwplZba7s7KwrecwwbzllpQ07YWbD/I/CuH3xIWTk9mzZwuLyxqMsYjWrFmDDQHrLSpXoRFPSgjVGCChBe7cuSN8Ev/uu+9adwli2V67dk1I0XPmzBEaAVEHixoVMOpvYRHhXyRqIfZgxK1VeHJyMiIoGpFYEG6FRswVNhxU7Zix77//XmjMrVWrVmEbQaxFThCbHikpVXPhVmyWpZrbv4vB8RExyeIUs4PlgOWP54uxSElJERp1Op2wsxFzi7VaaMzIyEDkxlOw3SuCW8uUKYOeyJnoIDRimhcvXhR+Ng0bmtAI3377LVr8/f337dsnjAIW7O+//y58VczFxcWaW/DiJgRLxNGIiAihEZ2x4ZQqVQrjlWX/2KMFBwfjUd5///2KFSu6urridRWjLN5GRPTU8bh8KkyuXLmCf1u3bi3sJAFUVD169Bg2bFj58uUTEhKERsDKbf1XgNIf7/fIAG+++abtl8v9/PwmTJiAC4GBgSg+cEGr1f7www+oqmfOnIkKTPjMHlVXixYtvvzyyyxf7A4ICED1XKlSpdWrVwtfXkcj/kXlsXLlStTcaEcNJ3R+mPAJNPrbzqottGPOUUaL13MWm5Sx4WDEhv0RP/wTmoe/7/8J/XHP7Y3HYnedzHFuBagd8W+7du2sR0pgFFAcDxw4EHWY7SgIbJ/a3bt38WQbNWo0depUlEFCI1owfEL8wyggCuJCWloaylzUcwsWLOjTp491FNq3b79s2TLEOdTZ5jtboDL++eefscxR4FqzJeaqcePGSJh4IJR9WIxCe07QX7yUD9Fxqb8ejtywPzzL4n3CP4zCTxiF43H7zkaIU8wOFimqW1zA0kDAFhqxiLC6Irn5+voipQuN2a5XyC0KhaJVq1YoQ62HpmDZVq1aVfgCHgIMKl1cwFaALIQLqKFfeeUVYRHhX0T9jz/+GElV6CZAZbxp06ZmzZphzUeFLTRirrDhrFixAhUzRgdZV2h/cshL8+fPx8b79ttvZznuJSdh0cm/H723fl8+RmFv2B8n445detQ6g1m6cOECLmAUrMdZyeXyESNGYFkh11m3Beso2A5HeHi4o6Njx44dseYLu2cByxavUULgxygI/WNiYjAKWNpY5oj3wihgwSJaf/DBB7iKOTHf2WL79u27d+9++eWXEZ98fHyERnTGTC5fvhzjhW0B2UNofyzEXWza8+bNu3nzJsYUlx8+ro+I6KlhbqHCRChJER7+/PPPsLAwa+WKt/MjR44InzIKhPd72yoBlfHGjRv37t1rrWsFSA4o8lC04b1fp9OhBVPev39/8eLFu3TpIvSxat68eZZTkRw6dAgVNooJ9MeF1H/hcrly5erWrRsSEvLoHwSznclsPbaDQCqRaNKStRkpRZ0kni5SDxdJrv6Ku0qVEl16aqJS8d8hxdkSjoj4/PPPt27digpYaETxhHHB0hC+JwOYbWHObecf0Q73QiVqragEyCfCKe2so4A66eDBg6VLl+7UqZOly3/atGlTu3Zt8YrFgQMHcEehiM8yChUrVqxRowZKQCFu/b9JpZL0tGSdJrWocx5HQS7RmkdB/qgXZ6yuVapUwQWs+Tt37kQaFNpR/iLsYe1FMhRasI0Iy9825mG1/Oeff5AxspwBHYtLqGhR3Qql8NWrV48dO4ZliGVr6fIfVMZYE2wrZmxc+Bc9MRtZRgHjjs6o8jEQQucnhGeHKBUdHT1+/PjXXntNbH0cmWUUDNo0LNK8jYLMpElPSVQ8chQQUYRRQKhDZouMjBTaUdkjRWMJW1NWtqPQpEkTjBSCQZYkkGKBCxgF4V5YdQMCAjA169e9rDp37ly2bFlsPsJV9Bd+ck346qY4ABYYBSQidMakgoKCLN0fD0OP0IjcgpQbGhqKVIwN33bQiYiephw/5SWyQ3jjHDBgAN53cRmFL9ICKrAGDRpYa2WrSZMmoYz+9NNPrV/Nt8Jb+I0bNzAp1Nz37t1DIYXMg+jSrFkzlNRFixZFCYJauXr16vv27bP+MLHVhAkTVq5c+dVXX+ECqpDRo0f/8MMPCEVguzWhssStly9fxkN88skn06dPF2/IDAUZqnDU6Nu3b+/YsaPY+i/EANQlvr6+qG+yFPoPi3yQuuinM2qlfET3Bi5OKoPhvwrpSTiqpQcCQk9cvV+vnMuorubvVuXk+vXr/fr1E/Z9+fv7YxSQIlAoC18xssLSGDVqFBbOt99+K3yKbyspKQmjcPv27YiICCwETO3o0aNoRPhEPe3s7PzXX3+hSEJtt2vXriz7uDDlYcOGrV+/ft26dbiAnDNo0CBEWVTGKMtsS0MhjqJcjo2NXbVq1ZMXvigEMWUEXTzK4MGDxdYnEBqV+NnvV5zV0hHdGqiUctSr4g1PBqPwz/GbZ2/GN63i/urL5uNScnL+/HmMQnBwMC5j3ROyXOPGjbPkaiwczD+eyIYNG4RfGrCVkJAgjAKSD0bh4sWLx48fR9Hcu3dv4Yt/uNeQIUMQRbBpZPm5KlTV6Ib2P/74o0+fPiiL8S8Gq2rVqlgrbEtbZFqtVov0jmiaq+WJ2Z48eTJmDNva4sWLrTvoHivwdtzKrUHujpLh3RrIpFKEBvGGJ6NWS7cdun4lLLltLY9eLf87Yv5hJ06c6N+/P9ZhXK5cuTJGAdkAK631xyEEWDh9+/ZFosC63b17d7H1X1g58QqAVyRhFDCymKzw1UdsPlh6WHUR27C0f/vtN4Ql8W4WWFHxEoHcjoCHVy0MaLdu3bApIavjFcN2W8B0NBoNXjzxAvj3338/PBuPJnz/bfbs2cI3zawHFhIRPU3c30KFCarSn376CVHB09MT7/G4jFiCd2vklu++++6xnwI+ePBg/vz5TZs2RX+UEdOmTUMxhGyAsg+3Wt/jk5OTcdnJcsoFocWW7YejeEQUAbiAyg8hB+nCClcPHjyIEhA19yN+ihdTE77yZH10Wyh3UB16e3tbv4XyJFCj5eVP+M8TqFKlys8//4yiChkvLCzs+++/nzp1KkIXijZUpWKnnEVFRaH6wSi0bNkSNR9GcOnSpadOnapo+ckELAeEDVwQPvjPdhTQwXaBoKLCgsKFkJCQvXv3igNggVHA+KJcwyhkKfj+3/5bsLn6Mx9zKE7h0VAZo3xEjMdTQ3rB+o+sjlF4+eWXESTETjkLDw/HkscotGrVauDAgcjVH3/8MQKesDPNmsCFUcBa+vAPGWN52o4CkokwCijBkfzFAbDAoBw5cgQby5OPAlaDZcuWDR8+HHX83LlzP/300ycPLbb+W7C5+nviUUBWxyggYGMRIQF+8803iFjI3ijrkejETjnDwE2cOFEYBaTKt956C880MDBQ+CkFjILttoCHEL4taQspQjg/jwAxRvia5fXr17NsC7iKPIP04uHhgX+F/k8OKwBWGIRYzAyeMl6XxBuIiJ4i5hYqZPCOjhLt4sWLGzduHDt2LN7y8V6O9+Nx48Z9/fXXYqfsxMXFof/ChQtDQ0ObNGkyefLkNWvWnDhxApHjww8/RH0gfD0JhJiRnp4uVABZoD4TL1k+whQqCZRW9+/fv5cZSi5UhyimH97bYIWiHM8IBQo6i002MBE8XMmSJXOXW/LIXLE9oZo1a/7www+XLl365ZdfRo0aheoNVSly2pgxYxBjxE7ZwdMcMWIE4iJiJ9IjoiOmg9By69YtLEN0sIbPPIzCRx99JCx5W3hEhCuMQq52m+SfuFBzTbz7k6hfv/6GDRuwLfz4448o8Rs3bowUjfJ05MiRqCzFTtnBaoml8fnnn8fExLRu3XrGjBmYwpkzZ4KCgoRzC2YZBQQS69ZhhXnNMgpCkb1ixQpx0duwjoJw8v5Hw7NAjsKcIL0sX778/fffz/YThCchLNPcE+/+JPAS9Pvvv2MU1q5di6XaoEGD+Pj4Xbt2YT1/dHRBwEPs/Oqrr5KSktq3bz9z5kzE/vPnzyNyCMd6WT/LEEYBi+XhtIAW20ZsCMLc40VSXPQ2hFHAtmb7ldpcEfZsX7t2zXboiYieGuYWKpR8fHz69u377bffHj58GCUC3v7xHo8KGHWY2OMhmzdv/vvvvytVqrRjx459+/ahHkLBjQBTpEgR1GR4sxeqLvD29nZxcUHOsR7cbIV6znosAaBKEH4hIDEx0cPDw/MhaIRHVF1yuVz4wavLly8LLbaE72Jhnh/+tPuZQ53q6+s7cOBAxL9Dhw7t3LmzR48eyBjILcKRKtn69ddfd+/eXaNGjT179uDCZ599hoK7UaNGGAVrJSQUXhgFLN7Y2FhUdUK7FR7FeiwBoKoTzmiJxxWXe2bCKFgPfX6eYBH5+/sLXyhCbsS63bFjx5SUFFx9xG85rFu3DlEfFfaBAwew+Xz88ceYAlKQu7t7llEQvp2IzUr4yN8WHsU2bDs5OWFR4wLGS1jsWTzhKODukydPXrZsGbYspClcFm+wY9iKy5Urh7iI4IFtYfv27UiDeAH56aefcqrvsXix4Zw9e7Z58+ZHjhzBXRDmEXvq1Knj5uZme7wK/sWGhn/v378v7NGyhXUegUS8YvkpdixkXMDoiMs9s6IWQhDKFmZ706ZN2Iqz/QUFIdA+5V2XRERWzC1UaKSmpgpfHbEt8VG3NW3adNasWaiHUMtm+TEr269DnD9/HkVA9+7drafPs0L4wb/WN2OUIPXq1YuIiBAOpLEVHBws/I6TlXBQB0LRzZs3hRarBw8ejBs3DhUhqhOxKTuYAuYTFWSWQgHP5dixY3iCWY4bebYwV0uXLkWJZvt8hfNszpgxA08EuS5L0rCOApY/RgEX+vXrJ5wGx5YwCni+wtXKlSujhsv2Vw2uX79ue3g3po91ABc2btwoHGlgC2vF6NGjkVGFEPh8wKr1/vvvjxkzJjw8XGyy7Ltr167d1KlTcRnLAZWr0C6wjoJerxdG4dVXXxVOsGMryyhUq1atSpUqQUFBD+dqLE+sA9a0j81H2LJ+++03zJ7QaIVxxJaLzeHhzcQWyuIPPvhg7dq1ZcqUQdHf3/ILznYrKipq7ty5eFK2yQH5DdHxjTfewGWMgjWBCKyjgHZhFIYNG5bll0IwQMIoWDvXqlUL6RQL/OFfNbhw4UJoaKg1h2AdEHaJ/Pzzzw8H/sDAwCFDhkyaNMl2tckCL7Pz5s0bO3YsXnzEpn8ZjUbhoP+GDRvmeQ8YEVF+/FfVEdk5FMcnT5788ccfv/rqqyyfYh49elSj0VStWrVUqVJCi/AVC+sXLQD1BP5F+ZXlk2OUR8Jp6VGrCUVYkSJFUEzgwieffIIS2dzJAnXAe++9l6Xwatu2bZMmTcLCwubMmWMbPFB8fPbZZ99++y3mzfpLtdlCEYBCB/XH559/bv3KBwq4JUuW4Pl26tSpWbNmQqM9QIWEouqHH37AQrNdvHDkyBG0oBS2/piB0EH4zFggjAKyX5Zvf2FqqFZxAeWvMAolSpRAjYUFguWAyszSyywuLg6jcOfOHWtVB1hKqO1u3LiBkst2bw8eBXfHlE+fPv3oUShcMAr79u1bYyE2/QvrG/7F0hBOaAhZhgmLVzgiAnWzdX0DDBPWWNS7uIxlK4xC6dKlBw8ejFr2o48+st3HhUodoxATE2P7yX3Xrl1RgmOyCxYswF3EVkspvGjRImy5WMkffZjKhg0bli9f7ufnhwt5/i7TU4PnvnPnTmzjeGpikwWWpFD0YxRcLIfDoQWjYLsh4NVGGIUssRwjsnjx4j///BOXra9I5cqVGzhwYHx8PG6y3aWMrWDhwoV4XbLdH9ujRw9fX9/jx48jAdpuZdgukHWxYK9evfqI753iJbRNmzZ4/fn000+zxBsMzaZNmzw8PDAztlsfEdFTI8MbjHiRyL7hXRwF8bZt21AfowxF/Xr//v1Tp07h3RRvsSiIURtZfx43ICDg0KFDCBK4F968UX6hyNi+ffulS5dwl4yMDBRhu3fvxvq/cuXKSpUqoSbAeznej4W6qnLlyiGWg7zxcHi/x63o/M477+zZs0elUqG26NKli/DDTbhXmTJl8FgnTpxAn4SEBDzowYMHUdV9//33qJVXrFjRsmVLy0xlDxP08fHBY2H2hFIS4QrlyHfffYd2PDXhIN3HSk7THbkUKZdJa1f2VirktkXSk1DIpbcjEyJiUksVVdatJJ4e52GokFC4bN26Fc8RJRdGASUsiiTM5xdffIGbUFoJPw6LkgvVGxYLlh4u63Q6lFMYDixS1K9nz55NT0+PiIjYsWMHwgaiRbVq1TCgnp6e/fv3F0o6TCcwMFBYMkibWLDoPGvWLKwAmA2UVj179hRG3N3dHRPHLKFq379/P4YM5R0q+3ffffeXX37BNL/88sssP7T1aBiFzZs3X7t2rXfv3qg+xdYnkJCiOXH1vlIuqV3JG2ORy0Ewj0JwRFxUXEbpYuqa5c1ffssW1hmsqFu2bMFzxCqNUYiOjsZiQUhDAkTpiVFAsYueWPIHDhzA0hbiHJ4XViqsG1ikaMR9MQooTzEoWL2xrBA7sWmgT79+/YRMglHAaokH2rVrF0YBCxaPO3PmTGyDwi7KPn36YOxwAcu5ZMmSeDhsDiCMAu41d+7cv/76y9vb+6uvvnrECViwMkyaNAmPjtHEHVG7P+zu3bv16tXDWiTeJwcPEtLPBMWqFeZRQALL5SAgPEtvhj2ISdSWLelY1V88SdHD8JqDFRWLDi8LWFExCph5rIQIDOvWrfP390fYE77ihSofLw5Y2liAQozE0tBqtRgFLEbcF6OAcI6lhNUbKx7WakwKLyxY/YQkjxcBbEoYBTxWSkoKNjpEiLfffhvTxMSxQAYMGCDst8EQFC1aFKMA2ACRarBuYMOZPXs2xqJs2bIYBeHXF7KFqeGxMFe4L+6Fu2P7xaqFzIOXMjxfbOmIRmJvIqKnDG9gRIXI33///XABird5lFzCJ5oCVMbWbqg7UfKi8ccffxR+tEqA4g/Vw9KlS2/duiW8kf/zzz/C3QGVweuvv2778TDezlFed7KcTgSTEvtZHD58GO22n3pC3bp1f//9d7HH46CsyfJ9MMw/6gbx5idwNybljc8OTv/y6MWw9OAYY1C0Pld/d+JNP+0JeWP5yTVbr4hTzNmvv/4qnNLbCuUOZhgll9jDAhHRWvQ3adIERRsaV61aJZwmXKBWq1HbIfNcv34dBTdKNGQP4e6AWnbUqFHCXhoBJoiiUIiCKN3EfhZYhm3btrUtajFXeFysM2KPJ5aWltbR8rPUSI9i05MJiUyYuOzozG+OX43Q3LpvyLKQH/uHUVizI+iNFac27L4uTjEHWNt/+OEH4eAoK9S4zZo1Q3kqdrJAJW2Nvu3bt0dox32XLVsmlNQC1KMYlNWrV6MORmzAAkeqEe+PJxUSMmjQIGwvYm/LyvnTTz/Vr18fl223GkCmxTxgHIWegLlq0aIFRkfskYMn+Rk0TBlDI94hZ9dCYyetODF39ckbUbpb93I9CuHxppV/B0784vSmQ+IJ73OC8IygaPuqAsh7bdq0wWIXO1ns3LkTmUHo0KtXLwRI3BfBxrqLGLDYkT3Wr19/5swZTAQ5EMlZvL/JhHiDGGP7ItO8eXOMAkIjOiNaiP0sNm7caD2HjwB92rVrh1cqsccjBQcHjx49GmuCeGcLvMxismIPIqJngedvocInJSXl2LFjV65cefDggYuLS7169VAVCd/HsHX79u1t27ZFRkaWKFFixIgRwtdmwsPDUU8EBQWhlkIFjPJXOKQbNROiTs+ePbMcd4HqDe/09+/fL1++fNeuXb28vNAHdTBkOQECCpETJ04EBATExMQULVoU7/FNmzZ99LdiskBZv2/fvnPnzqGgQV2I0idL3fBo1vO3DOtWPy/nb1HJDp4JPXnt8edvESQlJSFgoK5CJsR8CqMg7CexddNyahosQETE4cOHCwsEdfChQ4cQF1FLIf9gFLDE0P7zzz9jgv3798+yiwP5B2UZHgj1d7du3dD55Zdf3m/5mWMEFbGThUajOX78OEYNnVH2IToiDdrGnieE0fzzzz+vXr3ap08fYZfOE7Kev2VY1/p5OX+LSrb7xM1ztx5//hZBXFwctgUstISEBCwWrL2o7G0DhgAdUDdjmSCcDB06VBgmbAVYtzEWWD5YUBg+Nzc3rHsohUNDQxFUhP1mVhhuLNv4+HiEJYwCHgUDhwobjQiHYieL9PR0zBXWZHQuXrw44g06PDxXWWCLxjLHDIjXs1OjRg1hF4R4PQfW87cM7Vo/L+dvUcm2H75+Nfzx528RYJPHwkHwxkaBtQ6BAdv+wzOJTIhIiWWC1fjVV1/Fyo9GDA3W7bCwMLyCYUEhijg7O2u1WoTS6OjowYMHC7/SLsD7NTYcvM7ggbBaYhR0Oh1GHON18uTJLFuN8DqJUUDnkiVLYt1o3Lhxls9WHg0zjOd1584dbLZYQzBvuXpBIyIqcMwtRFkJPwCAynX8+PF4vxdbLVD5dezYEQU3Kmbhw2b78ZRzy/8bCvHPP/8ctd2ECROEVGOFLNq+fXukVtRwVatWFVvtw1POLf9vqMgxCh4eHtgWsnw0EBwc3K5dO7yDHDx40LonwU485dzy/3b37t3ly5f7+PiMGzcuywHxCHvYFrCBIMbb7rohInou8dA6oqzkcvm5c+cWLFjw8KlI1q9ff/bs2QYNGmT5CSAqcEgsJ06cmDt37oYNG8Smf61bty4wMLBp06b+/v5iE/1/YBQQDt96660sX+JCXFm7dm1YWFjLli29vb3FVvr/UCgUu3fvnjFjRpYTwuj1+tWrV9+7d69169bCD7ITET3feFw+UVbILcLhtvv370dllp6ejsrg2LFjS5cuXbZsmbu7+0cffZSr7w49HU/nuPynBrUaBgKjcODAgYiIiLS0tOjo6MOHD3/44YdfffVV8eLFrT8AYFeeznH5T43w6f727dsxClj+GIXIyEhcfu+997777rvSpUtjFOxtZws8nePynxonJyedTrdjx46DBw8KZ3HBFrF37953330Xqb58+fIYBR/LmXaIiJ5v/J4YUTaMRuOPP/64aNGiLL96XL9+/Xnz5tnnz+k8Z98TA4PBsHr16iVLlty+fVtssnjppZcWLFhgn7+T+5x9Twz0ev0XX3zx6aef2p5xVSKRtGzZcuHChfhXbLInz9n3xECr1X7yyScrVqy4Z3OuGKlU2r59e4xC48aNxSYioucacwtRjmJiYg4dOnTq1CnhwNZGjRq1adPmEac+eLaev9wiiI6OxiicPn06JSXF29u7SZMmqJUf/gEAO/H85RYBQssBy+8pp6Wl+fr6Nm3atEWLFsKR5Xbo+cstgrCwsIMHD2IUNBqNv79/M4vH/koBEdFzg7mF6DnxvOaWwuV5zS2Fy/OaW4iIXnA8Lp+IiIiIiOwdcwsREREREdk75hYiIiIiIrJ3zC1EzwmlOhdnws6JRCKRyfiykHcFNgpyjkLeKVQKiYNEvJJXllGQiVeIiMgOSC4u+1S8SC82R7m8aPMWxWrXFa/bmfvhsbev3k1JSLMc6PzfUbZSqUymkNRuVbVIcVexyeJu8L3Ak8GoXUyWzmK31lWLFMvS7X7gyVuZuimldVpVcc/cLeJm9PXTIVm61W1d1c0z0xnE7966F3gK3dDJ3E1m7iar07pKlm6WqYXadpOrZLXRzSNzt6Do6wGZuslUmFpVN49MP2h2Jyj6RkAoitwEvWFfrF6tlA/v3iDPx+UfuhBezknSyFVmkprLPvO8qeV4pi5FnYRugvAbUTfP3DbPlvUpqOV4pq5FM81b+PWom2dtu8nlalmdNlVci2TpFnnzXJjl2Gmxm8LR/ExdimR60LDAu7fO37H8lIh1atK6bapl7XY9MvhcuOVQ7Ed2C4y8dT4809QcZeZnmrnb7Wt3Qy7csZ2aed7aVHVxzzy1a3eDL9xxMBof6E0H4/SuTorh3Rrk+bj8E9eiKjtL6jpL/x0FudJJXrdtNSfXTOdKD70aEXrprtGIgTY/ihzz5oxRqOrslunH1kKv3Am9HPkE3SJCL2edGhaIU+ZuIZfu3L6adWpYvFnmLeTyndtXMnVTOivwFBxdVEIHQfClO2GZp6Z0UdRtU9XRJdPUgi+Fh12NytxNXq9tdbVzpqnduhgefi3KwaCP0pqOJho9XVXD8nFc/tmb96u7SGo6iaMglylUmLe21dROmX5F7daF8DuBUQbrvMkUaldFnTZZu928EBYRGJ21W+uqWZ/ChbA7mbupzM+0msopU7egc7fv3riXqZurwtzNMfODnguLMHcz2Dyosm7bqlm6WaZ237abo5uydpuq6kd1k0ikEg8vt5otKvEHzYjoqZEcf7U//qPLyDCZX4zMr8704jHJ1WoPJyfHnr3LdOspttkTlOCndly8fjTM+FAtjixhcNC16NfAt6KXXqsXGmUK2ZVjQdcOh1pWafM7sdCtZf+GPhVKGnRY1cVul4+iW4htN72lm2/mbpeO3Ag8kmlq6NZqQEOf8o/uJtU7aLPpdvh64NHbtt0MEnRr5F2uROZuNwKPZp6aRNtmYONSZYvbdrt46Pr1Y7elJlOaUn6tmJujSpGf3LLvbIivwVDuQaJBav6kGQ+qk2jaDWriVSbTg144cO3GiTvCjIHQrf2gl0qWKfZfN7nswqHAG8fDbbvpHTTtBr9U0v+/blKZ9MLBwJsn7wjxDCzPVNPu1aYl/T0f3U0nyWj/arMs3c4fvHbrZESWbi8PaVaidKZu5/ZfDT59N/ODmrsVz9LtwLXgU1mmpukwtFlxX49M3fZduRUQKTMZklXKa56u7s6q/OSWI5fD/HSGMrFJNqOQ0XFY82I+mR70zJ7LIWejMo9CeqfhLT29i2bpFno2KssC6TS8xX/d0CSVBuy+dPtc9KO7SSSSgN2Xw85n6Zb+yohWHqWKPK5bxisjW3l4uT+um+aVkS2zdDv9z+XwC7bdJHqpttOIh7rtuhR+8b7EqE9wVF33cCnh7pSf3HLqekRZjd43Ptn47ygYZJi3VkVKuNk+6MkdFyIuPzA5iJsbuhnluk4jWth0A4eTOy5GXI7J1E2he2VES/dirgb9f91ObL9w90qmqRnkWiwQd09X8dVP6Lbt/N2rsVmnNrKlm4eLbbfjW89FXovL1E1pftDHdjOp9FiR3Dycbbsd23IuKvC/blKJVOEm7fpaa1cPZ7mCO6aI6GmQ7Orb08FkKlW3nsrN1ZTLQoeeDxKZNPriJUVKsu+IUX6dOout9kGn0aclphv0DiFXwqNDH8iVMrxB2v54t8loUijlZaqWdi3y7zuxpVaLiYyNCI5CR7zdQi66qeRlqjxZt6p+qE/z2O0W6kjbboqyVUu7ZO52/655aricqVu10i5utt0klm7RcolDvN60L06bz9yy+/Stqu6ql9wVOstCNj+oGvPm5+LmZPug9yIe3A0xn//uv3lTK8pV9XO27SaV3LubtZtSrcRTcHbN3A1TC83czVGJBfLobogEqrx2k1i6RWbuprZ0c3qibn5Oro6Zut2Jibx9XyF1iNGZ9sVqirio85NbDp6/XbOoqpGrQmsZBfODOlke1CXTg0aHx0SF3Tdfts6buZu/k4v6oW73UGPjf2DpprJM7d9ulvo7Ovw+ppalW7lqfo7OmbqhTzS64SEf2y0809Qc8aDmbiqjwbJMcpgapoNReFw3o6OzI1YkTDNTt9v38GSVMuldjfFAXIZXUZf85JbjV+7U81DXdZVrLYOIB8Xyx3LDQrZ9UKweGH0sZ3NL9t3Msx2VUzdHJZ61ucnSDVO7/3C3an5qdZZu0ffvPHh8t5BorMDYKCy9LN1cnbB4M3VzME8tSzdsLJg3lVqRuVvUvYhYsZvEQa81uHu4lq/hb3AwOLs5Kp3kWXamEREVOMnOPj2QW16aNMW9TBmjRiM20wtEIlUpA75ZqbkZ5Dd2nF3llqTYNG2KTi5VGIzG1NRUrKiIAVKp1PqxqwXeRE14B0Wxa74oMDlI5dLMRwjYdzeTSa/LVzeVXHYnLnXl3hvILSN6NMxzbtl57EbTKiWHNCuXLu68KoB5E6+aPefdVApZyL3kVfuDiro6Ij3mObfsOx3cpqZ3/0b+aXkZBb0JI5+1m8x8SZSvbnhE6WO7OTjIEBcydzOZTIYnmFo23cz77szfzXzCbo5K2bWIhNUHg7w9XYd1a5Dn3HLk/O3O9Xy71yudqhFHAQ+KZ2re3/C4eXsxujkI66RCoXBydE7XpMtVEpeijpEh9/2qlOKhQUT0/yDmloZjx7mXLm3QasVmeoFIZErFuR++14aG+I15zR5yS+jliLh7CeVrlclI0irkirT0NLyJCh+1mus2yo75M+aE9O+OBOc3txy/0aRC8QEN/TKEr7hQbijl0tsPUtceDclvbgkIblXVq1cdn3SOQu6pFbLrUUk/HA/Jb265cLtjTe/ONUulaTkKOUCq+XfRKpVKlUp1+VTg1RM3qzet0Kxnff7CBxEVOL6skH25Fx574PdTlw/eCr8WLZFKUtNSEVrQjn8ZWoiI7IjNS7JWq03PSJNKZPi7fur2ia3nrV9WJCIqKMwtZEdSEtKO/HnGkGFSuSpUTnKdTifeQERE9s2gN/hXK1Whnp+DyXTl6M2Qy3fEG4iICghzC9mRG2dCk++nq1zltVtUcSny39HnRERk50wmB4lEWrleWd9KJWUSxfkDgempPGiWiAoScwvZi+T41Ksnbmp1mgp1yhQtUUT8bVAiIiokjEajVCotV8tP4SSNjUi8cSZUvIGIqCAwt5C9CDp3Ozkm3bmIU8nSxYwGhhYiosJHrze4FHGu2aRKxfr+pSt5ia1ERAWBuYXshW+FklVfKlu9cSWVkzK3v4VFRER2wmgw+lXxrtqogpuHi9hERFQQmFvIXpT0L1ajaWWfCiWNRoYWIqJCLCM9w1ntnJHKkysQUUFibiF7oUnVatO15sNa+HPHRESFmcny2/Xmk1cSERUc5hayF3q9wXyOFu5sISIq/AwGg17H13MiKkjMLWQvTOYP6MTLRERUqEmkEpmcNQYRFSS+ppC9wDsciFeIiKjQQmhJT8mIvh0TGxkvNhER5RvLRLILaUkZETfuJcQmO0jEFiIiKqTkClnUnXsnt146+vd5sYmIKN+YW8guBF8KP/bH+RsBwRLmFiKiQk+i1+l16fq0lAyxgYgo35hbyC4YjUaTyfyveJ2IiAoziUTiIHGQyVhmEFGB4QsK2QW8w5lMJvP7HBERERHRQ5hbiIiI6P/CxJ+JJKKCw9xCdkHY2cJ3OCKi5wn3ohNRAWJuIbvA74kRET03DHpDsVKeNVpWqNe2mthERJRvzC1kF/yqeNftWLlCbX/ucSEiKuyMBmORYu5VG5WvUMdPbCIiyjfmFrILRYq7Vm9WqbivpwNzCxFR4Wcymgx6A/4VrxMR5RtzC9kLbboWb3LiFSIiIiIiG8wtRERERERk75hbiIiIqIBJpBK5Qo5/xetERPnG3EL2QiaXgniFiIgKLcSVjNSMqNv3YyMTxCYionxjmUh2ITUpPSLoXkJssgM/myMiKuTkCllU+L2TWy8d23JObCIiyjfmFrILoZcjjm48f+NMMM/gQkRU+En0Or0uXZ+WnCE2EBHlG3ML2QWDweBgMv/kv3idiIgKM/N5hCUOUhnLDCIqMHxBIbvA8+UTERER0SMUcG6RSaUqpVLl6KhycVG5upr/nJ1VarVSocjpkGu04y4ymUy8bpfMM4knIjyjbP/wfJ2cVCqVPOcngqJcIZejj7mnsHys95LLH1GyY5oqtUqcAdzF0RHLkyX+c0xm+Y0C8Qo9I4qcX7XoqZHLHvXaSPbPZOJ5J4mowBTkuzLih9FkuhYcvPq338fNmdtj7Lje419/88NF67dsCY2IECKN2PVfqNfx7/ELF27eDkNNLzTaG8zYvQexkxYsxDPK6W/4jLc++OrrvcdPpKSnI4c8/EaL7KFUKhOSkvYcP75gxRcDJ0/BvYa+Of2jb745dDogOTUVt2IRib1tqFTK9IyMXYeOTPvgwy6jRg95c/o3v/xyO/Iu+j9PRZWws4XvcGA0GmPjHqBcU6sdWbE9E1jsBoM+/E4YLjg7OXMUnhW9QR8bH2v+rEelFpuosDF/Vyzf4uLixEtE9GKT7OzTAzVjw7Hj3EuXNmi1YnMu4WVJqVIFhYZ+9N2azXv3J6Ykizf8q6Sn59BuXacOHerjVVKj0QiNMpksLjHx47Xf/33gwKp357dp2kSTni7cZFcQt66HhHZ8bVx4dLTYlAO1StW8bt0PJk9sXKuWVqezVuF4prj8685dy3786eKNGwZjpqM4lApFgxrVZ4wY3qNNG9SstrfioW+Ghb31yWdYRGKTRZWyZT+aNqVn23Y6nRZZUWzNI4lMqTj3w/fa0BC/Ma/5deosNj9dl47cOLMt0M3LsWnXenrdi3vWfGRR1Gqfrljq5OTUr+eACuUqZmgytE+wYSL13k1I/+5IsKNKMaJHQxcnlSGXBws5qmQHz4TuPH6jSYXiAxr6ZbzAoyCXy5OTk8ZMHFG9Wo1BfYfUql5Hp9dlZGQgX4s9cqCUS28/SF17NKSoq+Pw7g1USrnRmLvNE6Ow+8TNfQHBrap69arjk/4ij4JMnpScuHT5R+XKlO/RuZdfaf+09DSdTifenDO1QnY9KumH4yHenq7DujWQSaW5fZFUq2TbD18/cuF2x5renWuWStO+uKOQZ1KZVJOqi75zv4SfR8W6/mJrXn3yyScxMTFjxoypWLGi2GTfsKJeuXIlISEh2w/jFAqFp6enr6+vm5ub2JQzPPGIiIj4+Hi8OxQvXrxMmTLOzs7ibY+TmJgYFhYWGxuL2cB9y5Yt6+LiIt5GVDgVTG5BeX311q1R8+afvnwZV5vVrVunSuUirq4owe/HxZ24cCEwJBTt7V9qsmr+u2V9fYU6TKVW7z52rMv4N5RKxT+rvmnesIHd5pag22G9p0y9GhzcrG6d1g0bmt8FrS9GEgkuRz14cOTsueA7d9BQv3q1n5cuqejnh+iCq3jXlEgkn/3407wvvtRotSU9PVo3bOTnXUohl2dkaIJu395/+nRaRoars/PSN6eO7dvXgBcYS3RRKpXRMTHD35mz58TJymXLDOnapWKZMrHxCX/u2bP/1GlEwXWLPujYvLk1B+aVXeSWhJjk0MsREgdJcV9Pg/6FrhIcHR137981ZMzAyhWr9Onev1+v/qV9/BBmsNVk+xYoYG4pQNhg1Sr16nXfzFk4q3ix4n269xvUb0j1qjUNllEwZv7cwRZzSwHCKDg5Ov346w9vzp5ct1a9vj0H9OrWu0SxksiQ8IhtgbnFTji7uEgURo9Sjy/NHwsZoHHjxqi8hw0bNnLkSNTf4g0FJCoqCsGgWrVq4vV8Q9jo2rXr6dOnxesPcXd3r127do8ePRDGckovAQEBP/3005EjR65evSokdldX1/r163fo0AHLwcfHR+iWrcuXL69fv/7w4cOXLl1KS0tDi5OTU4MGDdq3bz9kyJACX4BET41sSLUq+I9P/QZqd3eTIS+vznLU31rtnOUrdhw+4luy5Nfz5r47YVyfDh3atmrRvmnTbi1a9GjbxsPN7eTFS6j+8RbStlEjYf8D7nj77t0/9uyVy2Svduns5+Nt0OvFidoTzF5sQuKvu3bFxMeP7t1r4cy32jVt2q5Z03bNm5n/muHfpt2aN+/WqpXeYDh3LfDu/fulihVrXq8unqPEwUGhVB47f37yR4uTU1MHdem8asG7Y/v26dSmdbsWzTo2a9ajVat2TZqE3I3Awgm4crVFg/plfHwMBoMUJJKvfvn12z/+rOjvt+7DD17t169G5coN69fv1rQp0iCmeTsyskvLFq4uLo8opJ6ARCqTRV24YEiId69X373Cs/k0S+2s8vT2cMACM0fC3BUZzx//0mWCQ28eP3XsyIlD+w7uTU1L8fX2LeZZXCaT63PYRmRSSXKG/lx4vEIuq1PFR6mQ53YxKlBzRybcuhPr6+Fcw8ddn8uC+zkjl8lL+/gfPn7wdljomfMBSJIRkeEIkMWLl1CpVDl96o9RSEjTnQ+PR3qsU9lbLpPmdl3GKARHxIVGxpcp7lLVy+0FHwVElzJ+ZU+fPYUh2H9o7+FjB/Fa5+Pt41nUEzeZf4QwO1jsD1I0F+7Euzqpalf2xgtpbheiXC69GfYgPDqhQknXiiVddYYXehTyTCFXGB0MTq5qDJbYlFclSpRITEzcsWMHCvEtW7bExsaWK1euSJEi4s35s3Xr1okTJzo6OjZp0kRsyrf09PQ//vgjPDy8V69effv2bdasWfN/tWzZsnLlynFxcefOndu9e3dycnKbNm0UCoV4Twu8wnzyySfjxo3D88VldOjTpw+SG5bk8ePHcS/w8vKqWrWqeAcb2Ea+/PLL0aNH79mzJyEhoXXr1piBpk2bKpXKkydP4o54vp6enrVq1RLvQFSoFMABEogiQaGhByyfK8wYOWJw714e7u7Y0rTJKdrUVGxCpX19Z40dM6JnD3T4c8+eW+HhSAK4l4Obm5uzs3lnhETi5uLiUKSISq2yTFKE0l2lVJqPRHd3N//hgkplvqMNFGfmg93d3FSYlNDf1VXl7qZycrLtKd7k7Gy+KYdJPQkkNGNKij4lRZuS+u+f+TLe1spXKD9/wust6tdDt93HT8QmJuJp4o3XaDDsPHL0QXx8/WrVPpw8qVaNGnj22rQ0LB9derqTo7pFs6ZLp00rVbwY0simPXuxxDBjuG94VNTG3bsxtYmDBjWpX1+XlKTBX3y8R/FiM0eNLOvre/z8xf2nTiF15P9dwR5o07Uv+J4WAZKJs7PL4P7DHNWOuHorJOj9pQv6Dev9xarlERHhrq5uSoXy+Rhxe5ahyfAr7Teoz2DhVSIy6u6qtSu79u+46JOFl69edHdzVymzOYyNCpZWq0VcHzJwGF4zcfXytctvvzv91dEDvvvx2wdxMW6ubnI5f6HkRTFq1KhSpUrhQmho6Pvvv48AsHDhwps3bwq35geCEAr6Al+R8FaOaQ4ZMgRzu2jRoo/+9eGHH65evfrs2bOLFy9Glvjmm2+2b98u3scCq/2cOXNmzZqF9wLc8erVq5hDXECS2bdv3/nz5zHNK1eujBkz5pdffhHv8y+E+aVLl06ePBlxaO7cudeuXdu2bRvuu2TJkn/++QdJacKECSEhIUg1eFzxPkSFSn5zi3lDlzjcj42LS0xCqd24Zg0Ho0GjMX+VAokCsBVp0tLkKmWPtm18SpYo6uYWGRPjIJejRp/09sxZny9Lz8hITU+f/vHHg8e+9tv2nZiI8PKBmIH/nL16dfHXK4dMnjJ4ypSPvl556tIlTBmRw/Lg5kdXKJWXb94aNeOthV98odXpAq5cmbpg4fBp07/77bd7sbFCzaFUKHDh8s2bK77/Yfi0GUMmT124fMXhgAC90YBJ5fa1SnheWeBpGtLTPd3dK5Upgz53oqPT09PxRJDKMFfReMoODrUrV/YrVUqflo4XI+FeWEa41ZCaWqtK5Q5NmyK6JKWmJqWkmPe1SKWXbgRdvRVcqnjxlg3q49UIT9zy+A6YQnk/vw5NXzKajPtOndZqNOgv3ETPh9TUlBYvtWrXur143cEhOPTme4vnDXlt4CcrltyLiUakUasL4FNMeoTk1JQ+PftXrFBZvO7gEJ8Qv3zl54NHD3h73pvBt2+pVWonRydsq+LN9H+QlpbW+eWu9es2FK8jvVy9OPPd6UPHDlq55qvEpARHR0frOwI9x6pUqTJo0CDxioNDRETE/PnzO3fuPG/evPDwcLE1T/Bain+dnJyEqwXL+sadhbOz8/Tp0zt16oTa4e+//7bt9uuvv3722Weenp7r1q2bPXt2yZIlxRsseyCrVauGdmSS+Pj4adOmIf+It1ns2rULMQkTX7VqFS6ULl1avMGicuXKX331FTIMotHbb799IPNxs0SFQn7fcc27z00Ozk7mtw5U1peCbiJJmCNH5opKm57RrG7dYz/9uO3rrxpUq44qPCE5ee2mzftPndbpzd9W3nvi5M/bth8/f9FcsiO0qFS3wsNHz3u39cjRs5ct37B9x8/bdryzbHm7UWOGz513IyRUZXmhAZlcHnHv3vd//b157/4N27d3mzBp+YYNP27Z+tr8905duixXKDCpmLi4aUuWNh86fMriJT9u2YJu87/6+uWx44a/MweTUv47qXzCU0YQSk5NxWVnR0fhp9KwfGQyGRYPLgeGhNx78EDu7JxlP4/eYEC8WTr9zePrf1r4xhtIWViSSDVXg4M1Wm3NihV9vbyMNt+IwG1Ia1XLlcPl66Gh8UlJWSZIhR3ewxQKxfBBo5TKTAVZ4I1riz5Z2GdIj69Wr7gTccfF2bzbULyNChpemIp7Fh/x6ijx+r8ioyO//eGbnoO6vLdkXmDQNZQ7jo7/l4qHwGg0uLu5j3x1VJafpTp/6dw7773db1jP7zesuR9z383VTaHI+nuV9GxJpBK5Qo5/xev5Nn78eC8vL/GKxa1btz744IMWLVosXLgwNNR8GG2uxMbGnj59OjIyEpdv3LiBy0FBQXjzFW4VJCcnX7t2DTddvXo1MTFRbH1iWaZmC0VCgwYNcAG5y3qc6r1797744guEmVmzZvXu3VtozAJlEm7t2rUrOiOHWL88jNlbtmwZov7EiROHDRsmND5s6tSpr776Kp7X119/nW6XBxUTPUIB1Lsooyv6+dWqXAnb5+Lv1qz8YV30gwdKBBm1WoUEo1AIR7Pgor+Pj2/Jkgg55oKgaNG1H77/5vBh6OSkVs8eO2b1wvd6d2iHIh5FeWDwrWGz5/y4dZtSIR/Tp/fX785dNf/dCQMHKJXKX3fsHPHOnMs3bmCCyAp4VVDK5UXd3JBeZn223M+71PJZb3828y1MsEH1augQGx+PuLJiw8/IBqN79/pq7jurFrw7bdgQn5Ilft+1G9ElKDTUPKkng+ciw3NCOZnlT6WSqtWHAs4cDDiDbs3r1/MsUgTPxZwx5PKmdeugz4mLFyd/tPjYiRPoIJy2BY24FTOG5VOsSJEyvr7FPYqaQ4jJhFeie7Gx6FnU3Q1dbV/7hMtYgPg3Ji4+PjHp+fjc3XLOEgYwkVanbdzwpY7tOonXbQSH3lrw0bzBY/p//tUnkVGRSC/YLrjv5f8Bo9C9c88qlbL5EnnMg5ivvv2i9+Du7y6aE3jjiquLq0ql5gpc4PByp9Pr2rV+uUmjpmKTjauBV96e++bwca9+8/3X8Qlx5m2B36K0D4grGakZ0WExcVEJYlO+VaxYcciQIeIVG6j758+f37ZtW6SX4OBgsfUJ/P33340bN960aRMuf/rpp7iMaGTd9ZGQkLB8+fIePXrUrVsXN9WpU6d79+4IFUlJSUKH/ENYwr9+fn7WT6D27dt39uzZqlWr9uvXT2jJlrOz89ixY9VqNWb+suX3kODkyZP79+/38fEZPny40JItvF+MGTPG1dV1z54958+fF1uJComC+D0xiQT19z9Hjo6c926U5QtR1StUqFOlUov6DepXrVray6uou6vSycnBYNRqNNb6G2/wCg+PU8eOdRg7DpcPrF1T56UmeJ0w6PUZWu349xau37a9StkyiBltW7REXDDvujAY9x05MnnR4mvBwf06dlj93gJXJ2epXLbn6LGBb70dl5hYq1LFv1YsL1ulioNe76DRCB9CIErN++LLymXKrJg9q0PrVg5yOZ4v5vnypUtvvP/hkXPnhvfogUdRK5WIGcK8ZYFnF3Q7rNeUqXjcyUMGvzN2tNFg/oqXcCveIvEyl5Cc8s/x48vXr78TFY2n/PPSxc3r1xc+QZHLZekZGTM/W/b1r7/hqqe7e7UK5ZvWrdusTp2q5cqW8PAwH9ujUBg1Gt2/n5ogHGm02nELFm7Yvh1pbdnMt/FOnOn3kVWqv/fv7zlpilex4n+t+LxxrVroL96Wa//9nliVyVOLtWwtNj9lJoeo6/GaDF1x76J5/x3k56hcwVNxcVbvP3RwwMg+cfE5nrugYvlKA/u82qd7v7J+fnfiUr/cczWfvye249j1ltV8RrWqWrh/ySrHjzhzB1u3q4t69bq1k2a8jgwjtj7E19u3S8duIwaPrlqhYnh8xhe7L+fz98T2nr7VoY7/4Jcqpr3AvydmhW3B1VX9y8bfx0wckZ6R48fDNavXHjJgWLdO3f18vK/ciVu1P9C7WL5+T+zw+dAeDcv1aVgulb8nlnsKlSLiRuT5/deL+bm3G95IbM23Bw8eNGnS5BHhpHz58q+++ipq+ixfkcoWCn3hB7tQ+rdq1apGjRrVq1fHfc0/GnT79vTp05EKUJ+8/PLLlStXvn79OkKFwWBAovj8888f/XNemE8EnhMnTmzfvv2VV14RWzPbvHnzsGHDUlJSfvnll4EDBwqNU6ZMWbFiBZ7CunXrhG9t5OTu3buIakFBQWvXrh05ciRaENuQ3/BwyGNZDvTPIi4urmvXrpg9PJGpU6eKrUSFQQGdv0UiUSoU/xw7vvi774QdDgJU/F7FirVv0rhZPXOZXqlcOaNeb63OVWr1vhMnek2eiteFbV99KfwOMiry/SdP9pn6Zkp6+ur5744Y0F+fno5XCvRHNS93dPxl81+j3p2Pu2z87NPOrVrgwZFb+r05PTElZen0aW+NHatLT8e7lFQiwXZ79VZw1wlv3ImO/ubdeWMGv2rKyBDCjEQqlbu47N2/v+sbkzCT2776ogUePSP7HxQWckufqdOu3LqFaSoVSD7iTXjieCBcQGzQWH5iqLyf3+Kpk/u8/LJ5Z8u/SQMLJz4pCalm7aa/Iu7dExrxFJzUqnpVq7V/qUmjmjWa1a3j4uqmzchAtMMzzdBoRs19d+Pu3VOGDv5k+nT0z5JbDp463X7MWHdX1z+Xfda6UUONpgByS2LjlwyVq9ru23k6sBjDr0feOhPh6K6oVB8rSe4K7v88Xx+zymVynU63fOWnVwKviE05KF+24qjBI+o0arfjZoZSIc1PbtkbEFLaSVNJFavN5d3tSwGtwpiMWqWKio767KuPo+9Fia058CjqMWrwyLpNOx+7p3JRSfKTWw5fuOPvnFZBGV+4R6HgKOSKpJSkj5d9FB7xmCMZalarNXbY6NJVmmy/kVKyqFN+csupa5HlnFLKqhI1eX5FeoHJFfL7dx6EXop0LKJs1ee/w5PyCe+bKOv37NkjXs8BQgvix4ABAypVqiQ25WzChAkrV6784osvJk6cKLRoNJpx48YhOTRo0GD58uWNGjVChEDxcPr06TfeeOPChQu4FbOhzPmbGsgtvXr1Onbs2IwZM5o1aya2Wt7s8G96evrhw4eRNzIyMl5//fUlS5a4uroK7UOGDEFYmjVr1kcffWS5R460Wm3Pnj137tz51ltvLV26FC39+/ffuHEjks+yZcuEPjlBTTV8+PANGzbg0b/88kssVfEGIrtXMLkFzNFFrUaI3338+OnLVw6fOXv22jXxNovKZcqM7dt7TJ8+bi4uwolNHs4tuowMuUKxaNXquV98Ua9a1b+XL/ct5WW7JwERIjrmQZ9pbx6/cGHe+HEL3pgglcv3HDnae8o0rV63efmyzm1aCyeBwWsD5mfDli1DZr1Tyd9/16pvypYtY9BorJWtVCHH3HZ5feLJS5cWT506c+xo1Ii2x8ZZ2eYWsekh3iWKN6pZs3HNml1bt6pRseLDk1Io5FKp7NzVqwdOB5y+fPngmTP3Y//7EB3pp1vLltNHjmjZoAFejLBAkFtGz5v/+z//TB7y6qczZqBPltxyOOBM21GjkVv+WPZZmwLKLUsvXNoanOuvCJOdqFKz8cujPkZuGdatfp5zy+nrD64c23Tg18ViK+WSk2vRln2n132pw9AudZQKWd5yy4WQxDO7153Y8qXYSrnUoFmXlwbMcXeUDu1aP8+5JTAi9fDmFRf2/ii2UmGD9DJ79uzx48cLaSEnQm5B+Y5MIrQgVHTu3NnFxWXr1q0NG2YKXUePHkVawFs8AkPTptl8d1GA3NK3b99Dhw6J17NTu3btMWPGjBgxwnouyJiYGGEvzcKFC+fNmyc05gQ1BuZ81apVr776KhIIMs/LL7+MpLR48eKZM2eKnXKGkPbVV18NHDgQ8ewRAYzI3hRYbhGYj9ZwdHTQaKIePLh77971kNADAQHHz10Ii4pMt3xpauKggYumTHZydNQbDA/nFr1Gg+p8ykdLVm3cOKRrl1UL5psPUrf5+pZcJtPp9eMXvr/u7y0junf/Zv48lbPznsNHek6eKpfLdn6zsmndOsK3s/A6pVAoFq5cueCrlZ5FirRu2ADxw7b0l1q+eXX60uXbkZGvDxywfNZM3MX2sayE3CJ8T2xY927j+vUzCl8TM5ku3by5auMfl4OCqpYru3T6m107d3bQZGjSsv8mgxDtHOTy1Pj4yJiY8Mio01eu7Dt1KjAkNPL+fXTwLVnyu4XvdWjezKjXY3GNnPvuH7t3Tx06+OPs9rfsP3mqw9jXCnZ/y+qwO4cfxFkP8ntCGD5krejoaFwuVaoUFnu28e8R5HJ5emqGNkMnlWERKc1f5Hti6IoZMJlMMQ/uY87d3YsU9yxubn/qe43+H2Qy2b370YlJjz8YtLS3T9tO/dxq9lbIzZ/05zm3HLsS9eDmiQu7VhW+BWg+cFsSExuTmJiADcTTo5j5KeT/WWCiEklsXOyTnODV08OzboNWJer39vOvMLRrPZUyj7kl4MaD6Kv7ru7/MbcF93NMKpVFRkWkppl/+OTRKpYr1+qVwcoKHYq6KIblI7dcCk0IP7sl6NgfHIU8wFaj0+o1aVqpXOLmUWDnaMerPSLBfcs75qOVKFGiV69e48aNq1u3rtiUg9dff/2bb75ZsWLFpEmThJZFixbNmTNn+PDh33//PZ6I0CjAuxva169fjz4IRWLrQ4T9LQg5CAa1atXCvYQ5R9oJDAysUKEC7t6xY8csZ5yMjIxs167d9evX33vvvXfffVdszUGW3JKcnNy+ffvTp08/4Ve/mFuokCqY3ILqSogBgKvYPhFgzAel4E3baExJSzty5uyS778/fOYs0sW3784f2dv8cYVCpXo4t2j1+gnvf4BY8nr//ivemYWp2dbreCDUIpMWfbTq941Du3b99r35apvc8s+3K5vUFnML5gfV8NwVXy5avVq47yOM6Nlj1fx3MRuPzS3zxo9bOH0a5kmsh6TSkNDQ0e/OP3g6wK9UqWWz3u718su2h/EA5kSKRWH5rWS04kUQ6UsqfG/VaERjWFTUur/+/vrX3x4kJDSrV/f3Tz729vJKS0t7feH7P27ZOq5/3xWzZwuL1zI9M5Rlm/fu7T1lmneJEn+vWNagRo0COb7FrW9/n5c7CufWfXIIKiEhIc2aNcMCPHbsmL+/f26Tj5OT09mDVy7vu+VSXFW/fc1cHt9iUsiVWOBvTB93+uzJsSPGL5j1Aa4ajLmaiB0yOaodo6Ijh4wdcPmaeNhltvz9yvTo3Gv4wKFK91Jf7wtUK+X5P1/+wIb+he74Fqx+2LLe/XDO6nXftGnZbsXSr9PSU3MbGx7m4uJy9nzAm7MnP+IoI3B3c+/6SvexQ0a7l6q86lCQm6M8/+fL713Hl8e3WJicnJwDb1wdPLr/nbt3xLbsVKlUtVe3PsP6D040uaw6EFgg58vvUtObx7fkgVKtCAuMuLD/RlFv1/7Ts/l9kbzB+3ufPn2ynPAki1KlSvXv33/s2LHVq1cXmx4pS25BGTNmzBgklg8//PCdd94R+thC+9y5czF9ZIYsqcYKEUXYc/Lnn38iwIitlmTy9ttvI2Y0bdr0yy+/zJKpEhMTBwwY8M8//yxYsGD+/Pliaw7wPjts2LBffvkF6QUJBLPdvXt3LJmZM2cuXvz4HeZ4jmvWrBk5cuS333776ANpiOxKAXypETVihkaTnJqq0+uFLRjbj/l4j/R0rRYxRO/k6Ni5Y4cfPnj/pVq19HrDnpMnUtPTUWRY+uYI7zO21b+VpTH7N6GHuwsNdapU+fGjRRs/+/TXj5dm/ftk6W+ffPzGwIGYrBC6Hg3P0ZCerktPx7MzP8G0tHJlyiyb+Xb1CuXDo6KmLF5y7OxZZeafptXpDWnp6WkZGcLM4IEwEU1GBv60Oh3eUMuVLv3em9PefX083l8vBAaeCwxEuFEpFcIvhiUkp2AZZn1xlEhSLHt13F1d3FzM34stEMWKFfP09CydS15eXsgqwhTKlCmD9wzxhidmflDv0iWKlirpWapM6TK5/Cvr6+Nbvmx5r5Lm38fEgkIqfA7+8EaCQLhzz/bLgTmGFi+vUtMmvvXT6l8XzH6/rH85bG7ZbjK5hWUofWh+CsUfZlvYUpwcnUv7lPbPuqrk+q98mfI+Xj7HThx5RGhB6h4xePQvazcuX/J13dr1NdoMgz77s+nnSuEdhQL/w4aAsd205Y9HhBas//PeXvDTt7+8PWW2V4lS2BbEG/KHo5DnP5HEfC4ycWkWhP379++2nI45W3grmT59+s6dO5ctW/aEoeVhOp0uJSUFF4TzujzM3d0d/6anpz/J622WD0O9vb0/+eSTVq1aHT9+fPjw4cLviVm5uLj4+vriAmKP0PIISUlJwt2Fs+ZjYVesWBEXbt269diPDjHzd+/exYWyZcsytFDhkt8XFKzxDxISpi5e0nTw0PVbt6FkF+oGgTkMWH7SFy8DZf392zZpjEbU90mpqbbdbMllMkeV+cUiLjFRo9Nl6YYreBVISjF/VUChkOc0ESvzMfSWs6n07fBy3359B/TqmemvT+8BQ4f2HzqkgeUk93mo+XAXbXp67WrV3hk7VqVU3omKXvjNqvsPHigtP+WBmVMqldsOHerw2rjBs2ZFP4hFH+GOAvPyQcbTaBz0+ldaNPcqViw1PeNmWBhukMnlpYqbv+8UG5+QmpFh+0yFyzFx5kKqpIeHh7tbHuY8W499scuJtUrIc7mgM+h0eq3eoNfqtLn+wz86nbAQsMJhDXkO4N3+zt3wtRvWZBvS/Xz9J4+ftnnD1lnT5lStWDUlNQVrUUGtBpiOOBOFEDYpPAWDQZ+hycBakXVVyeWfycF0/tK5nzeuF5ZMFp4engP7vLrl152L5i9p3LBpGqSncRQKnEwmu3b96q9//iwumszKl60wZ8a8P9f/Pfn1aUiqSclJ5oHjKDxrWo3Wo2TRqs3L1mn935lb8wmT/fzzz7Fdi9dt+Pj4TJo06ejRo0gFtWvXFlvzBAEAURkX8HBCSxbJycn49wm/W/Xwqujl5fX++++XKFHi8uXLixYtsn3TxKpev359XDhz5sxjo8vNmzdDQ0Mxq9WqVRNahENxLly4EBERIbTkJCQk5OrVq6gl8pzuiJ6VAvggRKVQhEREXAsJ2XfyZEZGhlCyZ2EutI1G4ZfE3JydcRdLc1YIOdgIy5c2f95wLST4QVw8NmPhJgGuxsTH37wdhstlfXzMLxw5vD9hUhKZrJyv+ZcKr4eGnrt6zSElRZOUZP3Tp6Ym3ru3bvV3a1Z9e/nKFczhY1NQtvCqZNTper/cfli3rri69+TJNZs2YVoyqRRzhnkwGI0nL1765+jxi0E3EKSk2T6KRKL/91tkxYoUtTwpSc1KFZ2dHC/fvBkeGSm1WQ6YckZ6esDVq7hcuUwZd1cX26+QFVJ+lUvV6VipfC3/Aqo3Cj2s239t2xR087p4/V8+3r5TJrz5y9qN7856r6xfOa1WU4C1MtnCxogXnO/WffvwMRVOTk7DXx3506pfvvx0Vc3q5i+vp6QkC5GJChZGARBaHv49t4rlK70zY97v6za9OfGtUl4+6ZDzryTTU2Y0GIsUc6/WuELFuuLe+PzbunXrwYMHxSv/Klas2LRp07Zv375ixYoqVaqIrfmAIkT4jeOoqOx/QlA4TyXiBxKO0JJbLVq0eO2113Bh48aNf//9t9AoaNu2bdmyZZFbdu3aJTblAPeNj49v1qxZvXrmD16hZcuWyDDBwcFbtmwRWqzOnTuHCVqT2J9//nnnzh3c8RE/LUBkn/KbW7AZeBYt2r7JS7i87dDhdX9vwfuMytUV6cW8i9hSvqvUarmLy/lr13YcPoJujWrWLOLqaltqo5s57VheAnC5aZ3axYoWuRYcsv3IEZRv1p2YctTuSuU/x45duHHDyVHdsGYNidR83knh1mwYDXWrVvErVSo2IWH9tu0GrVb17ze4MGdyJ6dDZ86Me2/h2PkLLt0IUuTjuDTkMbVaPXXoUKQIvFh/9cuvpy9fllsmaNTr8XxrVaqk1em+2LDh1s1bClcXlaMjnov53VgiUcjlKmdnzOqfu/dE3r9fxtu7nmWfr8lgqFmxYp3Kle/Fxu44chRhxfz0hVrKyenC9Rt7T5zAfTs0a6ZQqmzPpl9IFSnuVqNZpRKlPXP4DuCLRalU3Y26m+Vj/lJe3tPemPHr93/Me2sBKrbU1FSNVvMkX26kvDEfdnU+4J99mb5JX8S9yJABwzZv2Lp04WeNG76UlpqakZGR0+eylH8qpSro1o0//v5dvG5Rxr/svLcXbFjz+4xJM5HkU1JTEeCZ3u2Nee+33nyyM/F6/mg0mpUrV9rubEFimTp1KpLMZ599ls99LID3VvESqpRGjXAVU77373kLrCIiIg4cOIBbH3u4/6MhtyA2IGt//vnntj8zULly5bFjx+r1+qVLl161fDqZLYQWLA1UR5MnTy5SpIjQ6Ovr+/rrr+PC8uXLAwIChEbAC9Svv/7at2/fjh074knt3LkTGQ/tb7zxBtKX0IeosMhvbsFbBbb1V7t0blG/XlpGxtQlS6d8tPjAkSMx8fGoqpVOThKp9HZExE8b/xi74L0rt25VL1++f8eOiDTCe4yjSoVueD26ey/aAf0VCoNeX7da9T7t26MgW7p27eYdO2So7N3dVG5uMqVi044dH61eozcYerdv37ROHaP+UeWCTm+oWq7ciJ49cPn7zX99vHZtWnqayt0dsUrh6hpw9tx7X6/U6HSNatZoadkzm5+3Pa1GU61C+QmDBuLp3L13/7N1P6YkJ+M1Ra/TlS/tO/HVgXhqe0+cenXmrNXrf74WFISoo1Q7KtXqlLT00+fOTV/68furvsV0hnTrWrlcWdwLL1texYsP6GQ+nPGrX375fdsOGVKXu5vS3f3WzZsLvvr6QXxC+5eatG7YwGjQPx9v19p0Hd7kxCsvMLwjYqi37Nh0PShQaPEvXWbiuCmbNmyZ/ebcyhWr8HPlp8D8SarJtOH39XHx8UILioOBfQb/vm7TJx8sq1+3kVanS0lNMTFn/z9hW8Cr6C9/bLDubKlUofLMaXM2r986abz5W2HCNySFm+j5tnv37v379wuXvb29J06ceOjQIRT9+f+m08OfO7Ru3bpZs2bnz5//4IMPhG+FCVJTUxcuXIg40bRpU/QRW/OkdOnSkyZNUigUJ06cWLNmjdhqMXr06C5duly+fHnYsGH79u0TW/+l1Wq//fbbKVOmpKWlIXh07txZvMFi6NChgwcPDgkJwX23bdsmNMpkstmzZy9evBjt6D9w4MD4+PiZM2cOGTJE6EBUiMiGVDPvV/Wp30Dt7m7K06eGCBieHkVrVqiIWHL77t1Tly6v37r9wOmAnUeObN69Z/3Wbct/2vDdn39GxcRU9PP77O23mtatg7d8hAS5TKbRaP/YsycmLv7M1WuHT56KT0qqVbmS2lFdvXy5a8HB5wOv/7Vv/5krV2+GhBwNOPPFT+sXfftdbEJC6wYNls5407tkSZ1Oh1QTEn7n1527UGeg6C/t5WV9DcJDKGTyauXLRdy7d/HGjX2nTh8+czb09u0zFy/9uGnzwm9WBYWFVShdetmst+tUrfqIAzMwn7EJib/t2oUw1rxevbaNG2HKD1crMqm0kr//xRtBN8PDb4Terly2TJ3q1YWZqVGpkqNKfeLChbDIqK0HD205cHDfyZNbDxz4feeuNX9uWrL2+0MBZ9BzRM/uc8eNc7b8SDSmj8iHCYZHRWGRbjt06PqtW1gOm3bsXPDVytNXrlQpW3b5rFkV/P212nweBGz+ubOoCxcMCfHu9eq7VzAf2JdbCQkJy5cvR5ExdepU4ZjFPNBm6NOTNdZM++TMxY1MvmXnX0G3btSv06B1i7ZozO1E7IdarY64Gz57wVvxCfFeJUuNHTF+zlvvDug1yM3FTWM+u6ku21pZJpUkZ+jPhccr5LI6VXyUCnlul4BCLr0dmXDrTqyvh3MNH3d9AX1K+tRgNcDKc/DI/nMXz1YoV7Fn1954acrzauDk5Hzuwpm5H8zW6/WOavXQgcPmvbVg3KjXSxQ3v+zk9Ok+RiEhTXc+PN5RpahT2Vsuw8os3vSEMArBEXGhkfFlirtU9XIrdKNQsJycnC4HXp7z3qwMTUZZ/3ITX5v8zox53V7p4ah2xBDoc/j9Ayz2BymaC3fiXZ1UtSt7SyWS3C5EuVx6M+xBeHRChZKuFUu66syvx5RrCoXSQWp0clNj2xSb8iojIwM1emhoaNGiRSdMmLBkyZJRo0YVtxwCmn9IDkePHsW7mFKpRCXg5eXl4uLi7+9/8ODBPXv2HD58OCUlJTY2dseOHXPmzNm8eXNZvPkuX249qiRbCBW//vprREREv379ckpWlSpVQji5fh3v7bfatGlj3fXh7Ozctm3b8PBwhJbffvvtzJkz0dHRmAHkpd9//33BggVff/01Fsj06dNxGduIcC8B3j5atWqFWIKYh854anfu3MHVqKioe/fuIYnhX0R9jMjkyZNr1qwp3o2o8CiA3AKoD0p7l+rQ9CUXJyeU+ClpabcjI6+Hhl69FRx0OwxJA3FiYKeOn7/9dtP69cyFl+XNHP+6uzprtfozV68i1QSGhNwKvzOseze1Ulm0iHvrhg1RyofevYtIgxS0/9Spa8EhJT09h/Xo/vGMN8uXLq3RavFaKFMoboSErPv7b1wd3rOHv4+PwebgcoPR6O7i0qZRI5VSicxwOejm4bNn9544efbaNUy8Q9Omn896u2X9+shR4h2yg9xyPy5+1caNeF51q1bt1LwZ5vzh9zEsBBc3t1KenlsOHkjLyMBst2nYwAfhSq9XymRIa/WqV09NS0tNT0eOCr4TgWCGZxQWGamQy2tXrvzexDdmjh5VxNXVOjOYoKuzc/N6dVGt3gwLP3npMub85MVLSHdtGjdeNmtmEyTAAviskbnFjlh+fsfhhw1rTp85NWromIVzFvXo0qu4Z/G09DS94VG/msDcUoC5RWb+SEXz/pL5YRHhvbv1+fj9zwb0GYy6OTU1FTHmEdNkbilAMqkMS/ur1Stuh4dOGjdl/qyFHdt3dndzT01LffSvnDO32AmlSiVTSh1dM/3AZt6gBN+wYcPw4cO/+eabIUOGFOy3m/CeFRAQgHiATHLu3Ln+/fs7OjqWK1euXr16CA+INDt37vz555937dp1//79l19+ecWKFc2bNxfvnANEnVWrVsXExHTv3r1WrVpia2YKhcLb2xtP7cGDB0gXXbp0sf6CGYIT7oiAhEiDGcBDYwaQYRClEGDat2+PN9zx48dbv/puC0nmlVdeQSi6e/fusWPHEL2QoLD0kGSQylq0aIEpIwFianiUqlWrWh+UqFAouPPl40VKocAb/oO4uAvXr98IvY3qHCW7i6Nj5bJlG1SvXsGvNAoLYU+LeB/zO5P5l/UPnTlz+MzZdI3Gu3jxET17IGmYz0ppOT7kRmjokXPn8S8eoHKZsi3r16tUpgxmWGMp7s25RS6/eTvsxy1bpVLJqN69/L298VZnmfZ/8OqAW0Mj7qLov3rrVlp6hnfJ4o1q1GxYo4ajoxpb8qOLG+SWmPiEn7ZsvRcX26Zhww7NmqJ/tncRau7fdu26eCMIuajPy+1fql0b2QmNeKZypdKg0wWFhV28fiM4IgLxA2+o3iVK1K5cqV61au5ubkhcD888lirufjko6PDZc0hxWDgNalRvXrcuXmqznCgmr/47f4vfmNf8OmXa6fyE8CKIV3k8fVzw8/MTW3MpPUUTG5GIlUTYSfXkcBeVUjVm0oitO/8eO3z8gtnvY7EU0vO3ILVoddptu/6uWb1WzWq1UXnjKv4Vb86ZUia9m5D+3ZFgVMz5P3/LgIZ+GYXw/C3IG/PN529Z1al95x++Wa/T6Z5k0T0M00lJSf76uy/atnq5WZPmJqODVqd5ktVSiez3IHXt0ZCiro75P39Lrzo+he4sOgUIuSUpJWnnnu3NGreoUK4C3hSe8CAWtUJ2PSrph+MhBXL+ls41S6Xx/C25Z/4ExiRLSkoq6efhUUo8ACPP/vjjD39//yynri9AiAd///13ZGRkqVKlxo4da/30Da8hR44cQaq5d+8eMgbiSqNGjfBSI9z6CKmpqT/++GNYWNjgwYMfsVsDL1BIFFeuXEHYGDNmjPB7ALY0Gg0eHWnq9u3bSCkVKlRo0qTJE341DuUE7og8FhISgnnGfWvXro1liMvIMzNnzsS/gwYNQr5ydS2wsykQ/b8V8PnyLZ98m39v30EuR72PBkwcm75567ecq0TsZwO1uwJxX6XCnbGdaVNS0E3YqYypmbOQSukgt/z+mF7noNFmST64jD5SF/PpeA3JyUhKuJdwky00KuRyCbIQJogOKEG0Wr1W+yS/xIUHkyN14CFkMoeMDE36ow4tMM+zs7P5UXC/1LQMy04hK7xeYDbMt+Jf4bUPc6LTYcmjKsrprdW8iDDnWA4yOV7nzP01GryLizfnl13klrTkjMhbMZo0bZHiyG+5e2pY5s9NbhGoVWqTg+mxidoWcwtWv4LKLQJHtSPWrYyMJzpLg4C5pWBJHCQqtdpoxAtkLt6bmFvsgUIlv3vr3qXDQcX8inQf10ZsJbuRkJDwzTffxMfHz58/P8uXzYjsWX6Py88Cb/BIDuZzMiYna+ITNPHxmoQEjfmHj7Q5vXOg3dwf3dA5ORlTsBb6uGw+f2Vyivkm860puJqlhkDNan5E3D0hAaV8tqEFcC8EHvOcCA+UlKTJyHjCnw/GFNHTfBfc8ZGhBczznCLMcALmNsvcoIoyPyPMRmKi+KQw2fR04YCWnJgXESRhkcab75iWVnChxV4EXwo/uvH89TPB+f4i9PNAozUPeJZVnZ6yDE1GOn9j+plCetdoMnIVWshuSPQ6vS5dn5bEHxGxR0WKFJk1a9aSJUsYWqhwKeDcQpQ3RoPRZDT/K15/sbFWtgccBXvAUSi8zB8jShykMpYZRFRg+IJCdgHvcCaTMafdZURERET0gmNuISIiov8L7jEjogLE3EJ2Ae9tll0ufIcjIiIiomwwt5BdkEjNoYXfEyMieg4Y9IZiXp7VW5Sv26aq2ERElG/MLWQX/Cp71+lQqXwtP+5xISIq7IwGY5Hi7tUaV6hUr4zYRESUb8wtZBeKFHet0bxSidLFzKfLISKiQs5kNBn0BvwrXiciyjfmFrIX2nRdbs84SUREREQvCOYWIiIiIiKyd8wtREREVMAkUolcIce/4nUionxjbiF7IZNLQbxCRESFFuJKRqomOiwmLipBbCIiyjeWiWQX0pIz7t66nxiX7MDP5oiICjm5XBYdHn1iy8VjW86LTURE+cbcQnYh+FL40d/PXQ8I5hlciIgKPYlEp9Pr0vWpSeliCxFRvjG3kF0wGkwmo8RoMIrXiYioMDOfR1jiIJWxzCCiAsMXFLILeIMzBxfubSEiIiKi7DC3EBER0f+FycTzThJRgWFuIbuA9zaJRMJ3OCIiIiLKFnML2QWpVOJgsnwfmoiICjmD3lDMy7Nas3L12lYTm4iI8o25hexC6cretTtULF/Lj3tciIgKO6PBWLSYe7WXKlSs6y82ERHlG3ML2YUixV1rt6ri5V9cYuIuFyKi54GEn0MRUYFibiF7YdQb9HqDRMrcQkRU6CkUCplCJl4hIioIzC1kL+RKuVwhk0q5ThIRFW4ymSwtLU2uZG4hooLEGpHshUQqUbuolEqVeJ2IiAojiYOj2tFB4eDoohZbiIgKAnML2RFnd7XBpFcoFfxhMSKiwsj86m1yuHUpPORKuE6jFVuJiAoCcwvZEZ1Gf+7g5cBTIebTufBAFyKiwkaulEWHxVw4fOXiocD4+8liKxFRQWBuITvy4G58+LWooHMhYYF3FQo597oQERUicoUsISY56GyoVCKrXL9s8dIe4g1ERAWBuYXsiG8lr+rNy8ukslsXwsKDIqUyCQ/TJyIqFPCKnRSXcvFwYHqi1slD2aBDdZmML+BEVJD4mkJ2RCaXNuhQ06uip0knuXjo+o2zoXqdnntdiIjsnEQq0WcYAk+GJN5LUTrLWvZp6FrURbyNiKiAiLlFIpVKZOYPt/n34v3JMPQOdpMNFEp5636NfKuXMOpNEYH3NMl6lVplu9cF745ZnkG2weYF7IYLYlM+SRysj2iebGFbIGbP7inggtiUP3gU6yOaJ/sUn8Jz0C3bW/MA07E+Yk6TLRQL5P/RDVexoZnbJXgPkbm5uBodjHqjXu2qavtqE9+KXpY7EREVJMnOPj0cTKb6I0e7+foatfzpjxeQRKpUXFj/k+52qN+Y1/w6dRabcyM0NLRcuXJIF7jg5+cntuaDTqs/s+dKanxa3TbVNKk6qVSuUChMJpNBr8/IyDAajZhtsauDCTe5uroOHz/47+2bx49644N5HxkNxrT0tCzd5HK5UqV0sDl/Myao0WgKUzeFXKnMvptSJo1MzFh7PNRRpRjRo6GLk8pgwH1zwVElO3gmdOfxG43LF+tXzzdDJ9wdD6pQKhVPMG/PuBtWPxRPcxbO/Gbt1x3bvbL2qx91Or2lf/ZTy9BoTJmnhhVJkbmb0fKgT95NKZeGxab9cOJ2UVfH4d0bqJRyo9Gm3xPAKOw+cXNfQHDLKiV71CyVbh4F8xSyf9AMjclknbd8djNqMrR23A1PAU023ZTmjtl2UytkN6KTfzx129vTdVi3BjKpFAtB7PRk1CrZ9sPXj1y43aF6qU7VS6ZpMYfCg+JR5U8wb3ntZjSaVyQ76IbXGbzaPKabRKJWq1UqlV6v0+v1aheVcxF1ckIKbinmU9TSh4iogEn+6dsT/1E4OeM9X3jBohePRJee5iqTeg0e5v9KF7EtNwo8twi0GVqlWqnXGtKSM9KTNag/UpLSzuy9khiTLJVb9sCg5DGa/CqXatC21ojXhm7Z8ddrI19/f96H6WmagN0XEx+k2HYrXcmrZrPKiDTmFkuZm5GuObP7clJcqrWbydKtRrMqRoPB0svSLU1zZk+mbuYHrVSqhnlqj+nmX8W7+kuVsnQL2HM5JS5VYtOtTBWfai9VfKjbpZT4NInwBXHLvPlX9anWJFO39FRzt9SENLlUkiqXXXZ2Q25BxZzn3LL3TLCfxFgxJVkvlQoPWqaa+UENepsHTdEE7DU/qO28Ze0mk6YlZZzZdzlrt+o+1RpXMOj/HQWZNDUp/ezeK6mJmbqVre5btXF5225YB7B4s3QrV6M0uul15geVSqRyuWLuwlnf/vBN/SqNp706V4/7Y+Fm7mbuaXnQgN2XME1cNjcJU6tZumqjzN0S07F4s3arVbpqwwoo1Sy9MnVTSCXJcsVlZxd3Z9XwbnnPLYcvhZVxMJRPSbGOQvlaflUaYt7+e9CUBDzoRYyF7byVr+1XpUGWbmmYt4e6+VdpUO6x3SrU8a9cP3O3eEu31P9jt0p1y1SsV9a2W3JcKtY3Tar2v6E3WbrVzdItBVuWJk2rkDjEKZVXHV1KFHEa1rV+nnPLycCICia9f2qqOAomU+V6ZSvUKWP7oEmxKad3X9Jl6GzmzaFy/bIVavs/uhvebCs91A0vWVggD3UrU6F2pgc1d9t9UafR23ar3KBs+VqZpxaDqWXtVqVhuXI1/TJ3SzY/aHZT02l1ll4OMrksPibp7J7L1m542UL+qdWqqk/5EnjFwwuPUi0374EhIvp/kiplMvw5pKUakhINSUn8eyH/ElFeqeRyB/PnynYEoQX/ypUyN0/nkmU8PH3di/kU0aRrpEa5Lk2PP32GUaKX4c2yiJeLysnc2dFF5eEjdNNm7SZxKO5bpHjposV8iwh/nqXcNRqdbTcHvQz1b3E80L998Ofh7Y6EIzVkeVCHYk/QzSQxZelWtJQb5k2SuZuDLGs3D3RL00r0tvMmdXhoapZuGkxBK/TJN4lEYjSYMDXrg0pkEk8sUtsH9XbLSM3Ag9rOW9ZuPnimrukp6Vm6ocTx9PlvUujm6e2WnpJ1alIFppapW1EvTO2hbnKbbqWLePi4ql3N5y3FU9ClGcRlgnmz7WaZmocXnoJ5uVmnZjI/aNZ588CDPvRMZeankOmZYhSEbuZH1IixJz+yjIJJJ5Upsz7owwsE3bCxZO1WMttuWadWpKRrWnKmwUI3hSrr1Ip4PdxNIn+4W0mX1KS0LN0enpp7CeeHu8lUWefNvYQLMiGW/L/dTCYtpibP3M29SAlXTA3dLKNgFPcK5IN5FPTiKBiEB3XM5kHTMW86cd4s3RwU6oe6FTcvNyxSazejxkHpqHhoaubllrWbU9Zu7sWx3B4/tRy6ZZ039+J4UHST2HZTPfygxTJ1Qx9tqkFifkUyb03oz9BCRE+BJC7wmniRXmxyiURZoqSqaF727/+f9rdk60FkvEFnBFzG+6REInV0U7l5uAwZMmTDhg0zZ85cvHgxboqNTNDrDJm6uaqRf8yTsPHgbrzlQ3nbbio3z6yHk+a9m5vazeOhB83hKQi3WsXcjTdmnVo23YQHNRmN95M03+4PVivlw7rVz/P+lmNXomqWUvduVFr4Ogge1Mld7Vo061OIiYhDYW07b9l2e3iB5GdqT9Jt1qxZS5YseaVj57XfrDN/cvyoqcUbzSvIYx70/p04Ex7U/F0msZtzEUeXIk7CrVZCN5PJGBGX9sOROy6OsmFd6+d5f0tA0IMGfk5d6nhbRyGHB401GczfQcLlXHVzKero7P4EUyvq6PJQt3vhsQ5GazfzcRDORZyyedDwWHSx7eZS1NnZ3VG41Sq7bk6PmzdLNw9nZ7eHpmbphlEIvp/yy6mook6yofnY33LpdkLTsi7ta5S0jIL5f9iWnR560CwLJKduWZ4p/uf60FPAChSDFSnL1DydnVyzdsP69tgHzbabu6cLXgmFDgJsAtgWzJ2E7cXyP7y4OT1Bt4efAhHR/5UEL23iRaK8epq5JScDBw787bff3nzzzU8//VRsesHEJGve++5kPnPLqcCY+hVcR7xSVWwtbGbMmIEVoH///lgZxKan605s6tL1F5zV0vzklvPBCc2rFRnQtqLYSrl0KzJpxZ+BSEn5yS3X7qS0r1use9MyYisRET1rlu+zElHhp9OI31nPD/Mug1wGHjuk04nfy3/69NqCGYXcxk6ypTOPQn4/kjOPwr/HaxERkT1gbiEiIiIiInvH3EJERERERPaOuYWIiIiIiOwdcwsREREREdk75hYiIiIiIrJ3zC1ERERERGTvmFuIiIiIiMjeMbcQEREREZG9Y24hIiIiIiJ7x9xCRERERET2jrmFiIiIiIjsHXMLERERERHZO+YWIiIiIiKyd8wtRERERERk75hbiIiIiIjI3jG3ED1vlAq5SilRKWW5+lMrHeQyqUmcBuWLROKgUmIUpFkW8mP/MAoyjkIBkUiwFeR1FKQcBSIiu8PcQvT8QLlsNJlCIh4E3Y67GfYgV3+BoXGxiakyqUScFuUVRkFvMN4KfxAUFptlIT/2D6MQn5TOUcg/hBadznAzLCZvo5CYwlEgIrI7EpOJHypRfoWGhpYrV04qleKCn5+f2Pp0DRw48LfffnvzzTc//fRTsekFczcm5bM/rmGD1mp1Joe8bNcyqdTFrWiZovrXetQUmwqbGTNmYAXo1avXpk2bxKanKyQy8ZttwXodBsGQt1GQy6TObh5VvRyGdqwiNlEuXQ2N/Wn/XU16mk6f91FwcfesU1rar01FsYmIiJ417m8hek6g0iriJCnqJCnhLi/hrsjDXzFXmbva6OGmFqdIuadUSN0dHYo6S4vndRQ8XcyjUMRFJU6Rck+tlBfAKKg4CkRE9oX7W6gAcH+LnSigrdkkkRTWb8g88/0tllfUAlh6hXYE7AJHgYjoucT9LUTPD5RZBfHHYi3vsPQyL8w8/lF+cBSIiJ5LzC1ERERERGTvmFuIiIiIiMjeMbcQEREREZG9Y24hIiIiIiJ7x9xCRERERET2jrmFiIiIiIjsHXMLERERERHZO+YWIiIiIiKyd8wtRERERERk75hbiIiIiIjI3jG3EBERERGRvWNuISIiIiIie8fcQkRERERE9o65hYiIiIiI7B1zCxERERER2TvmFiIiIiIisnfMLUREREREZO8kJpNJvEiUV6GhoeXKlZNKpbjg5+cntj5dAwcO/O233958881PP/1UbHq6gmOuhiZe1abrxOuUJ1KZVOYgb1Olp1yqEJtyY8aMGVgBevXqtWnTJrGJiIiIngvMLVQAmFvgUNDWG5pjiXEpOoNWIrZRLuCVSCqROjk6JzxImdnpc5XcSbwhN5hbiIiInlfMLVQAmFvg2K1dx+9uk2mdfIpWMJoMYis9MYSWdG1KZPItpcRxUtsPVXJH8YbcYG4hIiJ6XjG3UAFgbgHkliN3NpdQVmxfY5BOrxFb6YnJ5cp7CeG7A9epJU6T2i1ibiEiIiJbPC6fqABJjCaDRpeu0fMv93+6dJ2BeY+IiIiyx9xCRERERET2jrmFiIiIiIjsHXMLERERERHZO+YWIiIiIiKyd8wtRERERERk75hbiIiIiIjI3jG3EBERERGRvWNuISIiIiIie8fcQkRERERE9o65hYiIiIiI7B1zCxERERER2TvmFqLCTOLg6OTo6ubq5OwkkUjExtzDfTEFZxfn/EyEiIiI6P+HuYWosELGMBqMF89e3LN9T8DxAK1WK5HmJXVgOnAh4MLJIyd1Wq1UypcFIiIisjssUIgKK6lMqtVoP/vg89H9xsyfsSAxIUkul4u3PTGJxMHZ2fnqxasj+4yaO3VuclKKXJHriRARERH9vzG3EBVuSpUS/6rUKknuv+IlkUqdXV0uX7j83syFCfEJrm6ueZgIERER0VPA3EJUuAlJI7d5A/0VSoWjo/rI/qNvv/725XOXhUbhViIiIiJ7w9xC9MKRSqUqtSohPuHb5d9OGz3t2uVA8QYiIiIie8XcQvRiQWjR6XR/b9wybuD4j+YujrkX41fWr2bdmrjJZDIJfYiIiIjsDXML0YtFoVDci7r3yYKPzwecx9UW7VosX7OsdYdWuMzcQkRERHaLuYXohWM0GBRKRekypecvnb9i7fIGL9XX6fTibURERER2ibmF6MViMBhUavXUd6b+uHndsHFDXd1d09PSuaeFiIiI7BxzC9GLRa/XlyxVsnu/7j7+PpoMjVajFW8gIiIismPMLUQvHKPRmJGeodPquJuFiIiICgvmFiIiIiIisnfMLUREREREZO+YW4iIiIiIyN4xtxARERERkb1jbiEiIiIiInvH3EJERERERPaOuYUoE41Gk5GRIV4hIiIiIvvA3EKUSVRU1NSpU7du3arVFqYTMkokErlCoVDm+CeTy8Su9HSlpaWdO3fu4sWLiMRiU85u374dEBBw79498ToRERH9i7mFKJMyZcqoVKru3bu/+uqr27dvF1vtnl6nj70fcz/y3v2o+w//3Yu8lxiXKHalpysoKKhFixYdO3aMjIwUm3L23nvvNWrU6OeffxavExER0b+YW4iymjRpkre3959//tmvX78ePXrs3r1bp9OJt9mrm9dvTh09dVjP4aP6jsrub/Qv3/8ikUikUm7yTxsWu0KhkMvluCA25UwmM+8W4zARERE9jO+ORFlVqFBh2LBhuJCenr5ly5auXbsOGDAA6cVoNAod7IfJZEpJTsWF9LT04KCQG9eCggJvPvyHVBN8M/gRdTOeKf5NTkrGBB0eX11T7iCHPGEUEcboSRIOERHRi4a5hSgbr732WqlSpYTLOp1u8+bNXbp06du3744dO4RGe4AcpVQqR4wfPvejOY/96ze0HzKJOZZkhhaDwfhK907oM2nmJCdnJ4POIN5GREREZDeYW4iyUbZs2VGjRolXLPR6PdJLv379unfvvnfvXns4at9kNMkV8ld6dJowY8Jj/1q0bZFtbgHkn8bNG6NP70G91Y5qg/45zy1RUVHXrl1LTDQf8INQGhwcjKuPPfgkJibm5s2b6Il/4+PjxdbsJCUl3bhx4/r167iAq3K5PNvFDmgPDw/HNO/evSs2ZWYwGEJDQ2/duiVcDQkJCQoKSk5OFq4SERG9UJhbiLI3cuTI0qVLi1f+lZaWtnXr1o4dOw4ePHjXrl1i67ODwjclOSU+Nv6xf2mpaeJ9spOelo4+9vM9sf/rF6UWLlxYvXr13bt3X7hwYeDAgdWqVcPVl156acqUKcgbYicbR44ceeONN1q3bl2pUiX0rFq1KlaA+fPnh4WFiT3+lZCQsHLlyi5dulSpUgXdOnfu/Pvvv2dkZCgUCrGHjaNHj2Idq1+/PqbZsGHDqVOnIp+o1WrxZgtMsH///r1798asTps2DbNauXLl0aNH55RziIiInmPMLfRccXR0FC/lW/ny5V977bVsD0swGo1//PFHr169evbs+c8//xgM5h0UcrlcuJXyCaFFKctUvj85Jycn/PsksWfPnj3IA9u2bUMIQXrRaDQrVqzo06fP6dOnxR4W3333Xffu3b/++msM+tChQ5E06tSpExAQgPAzfvx42x8sjo+Pnzx58oQJE06dOtW1a9cRI0bExMTgLnPnzkXczbJ6IM9069Zt3bp13t7eo0aNqlmz5hdffNG3b1/h0W3nXyaT4VEQnNauXYtE1KlTJ9yqUqnEm4mIiF4Ykpy+wED05EJDQ8uVK4cSHxf8/PzE1qcLpedvv/3WuXNnhI309PT8H0OPQhNP54MPPkhJSRGbsqNWq1FKzps3L14ZHhCzq5iibKsqfXSGx5+pg7KQy5QxSREHgn6VaGW+SQ0VUpVerxdvewJY/VxdXdesWbN169YePXr89ddf4g0PQQZADsGFpk2b4kK1atVw3/Dw8Dlz5vzyyy8tWrT4888/ixcvjg7nz59v3759XFwcIg1yiIuLCxoRQvbv3z9u3LioqCj0x4qHRryQfvjhh1gNkEC+/PLLJk2aKBSKhISEZcuWYRXC2lipUiVE3DJlyqDzpUuXEGzu3LmDmyZOnOju7q7Vao8dO4YgFBQUhA54uEmTJuFCbGws4vGRI0d8fX1//PFHzBsmpdPpnJ2dcSsREdELhbmFCoA95BaUd48oVfNMInmibUQmk/WZ0KFuLz/mljyz5pbUuPRlr/2WkZr3I4iQJHfs2JHTXhcht5QvX37btm1VqlQRWx0cIiMjX3nlFYSKn376aciQIWhBLJkyZQrSwu+//y78QrHV9OnTP/vsMwSVhQsX4urt27c7duwYHR39xx9/vPzyy0IfQPRCGkGaqlix4u7du4XcgoC0aNGi0aNHr1692nYmd+7c+eqrryLt2OaW7t27Hz9+/O23316yZInQjYiI6MXE74nRc8LV1dXHx8fb27tUAcGkMMFsvyf2sEaNGgklKeUflrmXl1cehtLX1xerAaagVCpzCi0gBNHevXvbhhbAI/br1w8X9u3bJ+yvQ4w5duzYypUrs4QWjUYjrBgZGRlCy5kzZ27evFmvXr0mTZoILQK5XD5gwADMj/UUQIglCDC4gECSZSZbt27drFkzXLCNysKc1KlTR7hKRET0wmJuoefEt99+e+HChXPnzuHfAnH16tXly5c/9oCZBg0aoNvRo0f79u0rNlH+uLu7Hzly5PLly+JIPLHAwMDJkydjCk+SNqtWrSpeslGtWjX8GxQUJHw5sEiRIhUrVixRokRiYiKmv3379jVr1ixcuLBXr17CN82seSY0NBRho2zZssJ3yWwh0BYtWtT6nbf79+9HRka6ubk9/KsPWNnwcOKVfwkZpmTJksJVIiKiFxZzCz0n1Gp1sWLFUN6hyiwQqFk3b978iINbateuvXLlStSyqJVRKNv/OfULCyxM71LeHh4e4kg8MWQGZB5xKjkzGAxKpTLbJCCkDkQF6/FRyDBTp05t06ZNq1atunbtOmbMmPnz5wcEBJT69/Q+AuFXlV1dXR/ez4M0gpXTugslOTk5IyMDjdkeo/Jw7BE8YvcRERHRC4K5hSh7hw4dQm4Rr2RWq1atr776at++fePHj0e5LDTafreH8kmnz2MIFH7b7dGQAfR6fbY9rXtFhB0pFy5c6N+///Lly8PCwjDokyZN+vbbb48fP3758uVBgwahg3XQhR/4yja7oo/tuoGecrkcj57tDNj2tJVTOxER0YuDuYUoG6gpv/nmm7S0rOc8adCgwYoVKxBpJkyY4OnpKbZSoSKVSo1GY0REhHjdhnBKFm9vb2dnZ2SYL7/88uLFix06dDh16tSRI0cw9GPHjn3ppZe8vLyypA7h98fu3bv3cHRJTk5OTU21fnWtSJEiLi4uSUlJMTExQoutR5/RkoiI6EXG3EKUjePHj2fZ2VKjRo2VK1du3bp10qRJKD3FViqEhO9cIYpk2YmBq/v27cOFVq1aIWYkJCQIZ1OZOHFihQoVLF1EiCJZTrTSsGHDYsWKCUfnCy1WAQEBSCPW87eUKlWqWbNmWq328OHDQovV/fv3Hz5/CxEREQmYW4iyMhqNX3zxhUYj/pZx3bp1ly9fjipz/PjxXl5eQmNBcXZxLupZNNu/IkWLuLq5Ojo5ouR9uJBFka1QyNEny70e/efi6oJJ4b5KlVJowYUn+g6SyaRSqazTefjPzd0tp1m1T8ilv/zyi3jF4ocffti2bVvp0qU7deqEq4guwnnur1+/brldhMjx0UcfCQnHuhelZs2aXbp0CQ8PX7Roke0xUTdu3FixYgXWKOsp82Uy2aBBg9Rq9apVqw4cOCA0AkYBax2Sj3idiIiIMuP5W6gA2MP5WwoQStKXX34Zm0adOnXGjBnTv39/4VtAj3bs1q4jd/568vO3YHEZDIZtf26/fP6S2JSZi6trCa8SZSuUqV67umcxT9S+1u8gIRug/L0VdGvTz5sz0tOFxidRsWqlXgN6Ors6BxwL2LZpG1p6DuhZu35tvV7/iJcCPJxUJjtz8syuv3bm0E3i6+dTuXrlWnVrFvX0wHxme/DGo1nP36KWOE1qt0glf8wvuWVr8eLFs2fP7tmzZ07HJoFw/hYECUdHxxEjRnTs2BFRZNeuXcgtGJSVK1cOHz4c3bDA58+f/8EHH7i5uY0bN65Vq1ZIblevXt2yZUtAQICvr29gYOCkSZMQS4TJ4ipWlStXrrRu3RqTRYfz58+vXr1aOJWk7flb8HALFixA+ClRogSm3KJFiwcPHvxpoVQqcavt+VsQh06dOoV1sm3btuaHISIielExt1ABeJ5yS2pq6tChQ1GYvvPOO3369LEedv9Yuc0tMrlMr9VNHfPm3h17xabsODk7Ib306N990MhBxUuWEFIKggRq6F3bdr8xZILQ7QnVrFvzh03fY4LfrfjuvZnmEyZ+uOyDQaMGZaRnPDq3KFSqtV+v+eidj8Sm7GBWy5YvO2zcsO79u+EuBn3uostTyy0TJkxAOHnrrbfS0tKQK5AThPby5csjqAwZMgQzL7QgNmBq69evT7dZ7F5eXkuXLsWFHj161K1bF2mkWLFiQn8ElVmzZgmnZxHUqFFj1KhR7777LhbvxYsX8RBCe0ZGBmZ12bJlwg+RAXIUssr9+/fxcLhp5syZaIyJiUGquXHjBmIV8pXQk4iI6MUkW7BggXiRKK8SEhKWL1+Oqm7q1KlP8kO09iw6OholJgrKVq1aZftLtTm5E3crPOm6k6xomWLVjKbHl+yIeUaD8cj+ozeu3nB0cqzfqF7FqhX9yvr5l/PHX5nyZYqVKCaVSOIexCXEJ5w6eurqxWu16tUsUaqEXq/HooaU5JSkhCSf0t7+5csI9ypboaxHMY/70ffxFDCpOg3rlLG0C39oadi0QYMmDdSO6qsXr+7ftR+z8UqPTlVrVn10xsBjyWSya5evHdpzCLNdvXb16rWq2c6ql7cX+sTGxMbcizm6/6irq0vt+rVxx1x9LCKVytI0Sbdjr8glisbl2sml4hercuXo0aP79u2rUqXKwIEDxaaHbN++/cyZM4MGDcKrH1JB8eLFa9WqNXny5I8++qhp06Z4ImI/JDEnpy5dujRv3rxs2bKIHO3bt58+fTpCRb169XAvpVKJuN6gQQPhZJdQqlSpvn37CgfuV69e/bXXXkPCwTR1Ol3Dhg3btm2LCQo95XJ569atu3Xrhikj6r/yyiuY7OjRo9HBzc2tQ4cOaBd6YrgrVqzYqVMnazoiIiJ6MXF/CxWA5+x7YnmTt/0tc6bO+/v3v/3KlF65YWW5iuW0GvGzfweJQ3paenxs/I1rQb+t++3E4RNoa9a66dKvlpTwLil0M1iYEwx6WyhVyvMBF0b3G437jp44+s2509DBZBS3cfPGLjFXzCiOf/n+lzlT56Lx45VLe7/aW5OhecRLAR5BoVRuWLthwfQFKrXq45Ufd+rWIT1dPFU8pon5wayePn76m89WRYRHeHh6fPPzynqN6lmPEXoST3l/yyeffIIQIjYRERGR3eNx+UR2QalUmk9Q6KgW/9Rqj2IelatX7ju4z2fffdqlTxf0OXbw+Ia1Pxv0BuHsIkICsb0XLmM6lukhBsiElv9udTJP13Z/Qt7IlXJM1zpZcC/iXrFqxeHjhk98e6JKpYqLjTu095DRaMz/YxEREREJmFvo+XT27Nm5c+f+9ttvqJ7FphwkJSUtX758/vz5d+7cEZueBYPBoM9Mp9Wlp6UnJiR6lfKaMW96rXq10G3Lxq1BgUFyhflHdU0mk9jVBqZjmZ75sHKxyYb11vwwGrJOWafTpaWmaTI0TVu9hACDPrduBNuetISIiIgon1hV0PPp5MmTH3744bp1654ktyxevHjhwoXCOQftUFpaWplyZXoO6onLEeERxw4eQ2Kxw10ZRpNRoVQ6OZsP4dBotOZjZuxydwsCFf4VDrUnIiKiwoK5hZ5ParUa/7q5uQlXH0EqlXp4eKhUKusZNuyOybw3ptFLDb19vXHt6qVrSDJSqd1lAplMlpaSGh8bh8vlypdxcXWxHlpjV9q0aTN48OB69eqJ14mIiKgwYG4hKgSQW4p7Fa9Q2XzW9rthEUnxSc/wK1jIhC6uzs4umf6cXJx0Wt2Ov3bcvH6rqEfRtq+0lSvkj93Z9UyMGDFi/fr1nTt3Fq8TERFRYcDcQlQImEwmR0dHj+IeuHzndkRyYrLkGeUWk9EUFBh04vDJ08dOC38BxwNOHT21e8vudya/s3zxCqSaUW+MrNeonvUsmURERET5x9xCT4PRaPzzzz+XLFly7tw5sclGWlraunXrFi9enOUIk6CgoN9++w33WrRo0XfffXf27FnxhockJCT8/fff6LZy5cobN26g5RFf+sJ0vvzyS3T+559/MGPIA1mOFYmIiPj888937dqFy5jhpUuXrlmz5ubNm8Ktz4TJwWT+9TBH808DazSa1JTUZ3J8i1Qq1Wq1S+cv7dG6Z/+OA4S/fh36D+g0cNyr4zf9slmhVL614K2Jb01UqpRGgz3ubCEiIqJCirmFngYU2QgAs2bNWrhwoV6vF1v/dfHixdGjR3/yySfW030gJIwaNapFixYDBw7EvebMmTN27NiXX355wIABQiyxhWyDm3r27IluEyZMaNWq1ccff4wkI95sIzg4eMyYMe3atZs0aRI6d+/evVevXsePHxd+VtgKeenNN9/89ttvv/766w4dOsycORP3wjTtZAeC+WfEDFmX4dOkVCotP3+s+vcP/1cJ31tLT03b+ffO9Ws2pKelCz96RkRERFQgmFvoaUBu6d+/v4eHx8mTJx/ecbF3716DwTBixIhKlSrhakhIyKuvvvr999+XKFHi3Xff/eWXX7777jskB1TGv//+O1pSUlKEO8Kvv/6Km86cOdO3b981a9Z88803DRo0eO+99z7//HPcansQSFRUFMIP+pQsWfLDDz/8+eefp0yZEhAQMHLkyNDQUOE4fgHq8mLFiiHPIGW1b99+7dq18+bN69ixo1z+zApxiYPEaDRqdebTTWL2zIe8P4szxmIe8OhT3pny87YN32/6Xvj7Af/+sfaTbz8ZOWFEmfJlzpw4M2/avK8/XanX6bMEQiIiIqI8Y26hp6RatWoo/e/du3fgwAGxySI+Pn7btm1OTk6vvPKK0LJu3TrkkJYtWx48eBAJZODAgaNHj169evX69esRJ3bs2GHd5XL79u0FCxakpqYipWzcuHHUqFHjxo3bunXrnDlzhJOxWL9MhSofkQYP3a5dO8Skd955Z9CgQUuXLt2+fTvSVHJysm0mwb2QozCreGjkIgQbBJg+ffo8k69miSQOGRmauAfmnUgexT3UTo7P6qe6JFJJhcoVGjdv3LBpQ+GvQdMGjZo36tm/x8JPF3776yrchG4/fP3DoT2HFAqF9Vz+RERERPnB3EJPCUrYrl274gJig/X7YHD27FmklNq1azdo0ABXdTpd8eLFO3fu/NZbb3l6egp9BJ06dapVq1ZKSkp0dLTQsnv3bmSYLl26vPHGG0ILIF1MmzYNjbhs3Slx9+7dP/74w9XVFZGmdOnSQiPUrVt33rx5Mpksy3fAcNXFxQVZRbz+rEml0oTY+IgwcxjzK1Paw7PoM/ypLiwcTYYmy196WnpyUnLV6lVemzLWvWiR9PT0/f8cyMjIkMr4IkNEREQFgCUFPT0tWrSoVq3akSNHrl27JrQgV2zbtg0leI8ePdzd3dGCeDNx4sTt27cLIccqISEBKSUqKkrYGYIW3Ov48eO40Lx58yxH4avV6nbt2uGCtbi/evUqHrR8+fKYAaHFqlmzZv7+/lqt+StYVniIEiVK2CacZ0sul1+/ej04KBiXK1WtjAD2TL4n9miYJa1WV75i+RIli+NqRFhEakoqcwsREREVCJYU9PQgBrz88ssPHjzYv3+/0BIdHY004uTkhHahxQoRBZFm0aJFgwcPbtu2bZMmTbp37x4YGCiTyYTva2k0mvv37+OCr6+v5R6Z+Pn54V9rcS/09PLyevhMlB4eHogoQhayQuDBXIF4/ZmSK+QZ6RkH/jmImXQr4ta4RWMshGe4v+XRjCajsNgxTMJIEREREeUfcws9VZ07d1YqlTt27BCOrT927NitW7c6depUvXp1oQMkJia+++67tWvX7tat25w5c3755ZdLly7hXoMGDapcubI1YCC3ZGRk4IJKpRJabFn3wAilc1paGv7FRB4+tl4qlaLzw7sv0PJw49Mk1P0ILYhP/2z9Z8/2PWhs0rxJnfq1H/5NNnuAJalUKoICb96PNqdEn9LeLq4u/DVkIiIiKhDMLfRUNW7cuEGDBkePHr1y5QquIsDodLqePXtaswcq8sWLF7///vu48Prrr3/11Vd79uwJCAhAdFm7dq2/v781Szg6Ojo7O+OCkEmysMYbob+rqyv+TU9Pz3IcCxiNxiw7W54+5BOlSin8oLD1z9ziqEY8+3ntz0vnf5yUmFTCq8SI10e4FXErwNyCzJblcW3/MA+YN7HrvxTKbO6CWXV0crxy8eqqZaswqwgwbTq1wd2f+bIlIiKi5wNzCz1V7u7uPXr00Gq1hw4dioyMRIApX758y5YtxZsdHK5fv75mzRonJ6eVK1d+/fXXEyZMaNeuXdmyZXHTAwuhGyiVSuEbYiEhIUKLrSy/J+bj4yOXy9EYFxcntFjFx8ffu3fvGf7GMaSnZ5w8cnLP9j37d+4X/g7sOvDnhj+Xzl86vMeIOVPmRt2NcnF1eXPumw2bNtBk/PerBvl39dI1y+Pusz609W/fzn3HDhw3H6Ni83PSJqPp8rnLe7bvtu154J8DW/7YOnfq3DH9x5w/fR7duvXt3qxVs4dTIhEREVHeMLfQ09a+fXsXF5f9+/dv2bLl5s2bHTp0EI5FEURFRcXExJQsWbJ169Zi078QdW7cuGGNIrjQsWNHlNSbN29GBBIaBenp6du3b8cFa8Fdu3btZs2a4e67d+8WWqwOHDgQFhaGFCRef7qEw1TuR99/Z/KckX1HvTZonPA3duBrM9+Y9c3nq84HnNfr9VVqVPlw+Ye9B/Uy6A2P/vYabhV2cTz6ABjrRFavWD2i98ixA8XHtf0bN2j8e2+/F3P/AUIdFrpwF2TOL5d+Obz3SNueYwe8Nm30tPXfbbh7J1IqlfTo32PK7MnOLs6YW+FRiIiIiPKJuYWetpo1a3bt2vXEiRNLlixxc3Pr3r277TeRihcvjkbkkD///FNsslTMCDlTp05NTU21PZVhu3btOnfufOnSpRkzZlijS1JS0vz583fu3InL1ikXKVJkzJgxuO+8efOEmwT79u1bsGABgkGWXyR7ahAJMFe2OzSs3Iu416pbs//Q/gs/W/jNhpXd+nZFIHns164sB5koMU2Z/FHnfEQ34aFtF/7DbGcMl7GUcrqLh6dH/cb1R74+YsUPK9779L1SvqWy/EQbERERUX5IHv3ZLdGTCA0NLVeuHOpaXLDdeZKT9evXDx06FBeaNGkinPlRaAdECISQ5cuX4zIySf369VNSUg4dOnTlypXWrVunpaUdPXr0u+++Gz16tNAf7SNGjDh79qy/v3+PHj1Qi+/atUv4yePg4OCBAwf+9NNPwnfAUPEjtHz00Ue43LNnz1q1al24cGHbtm14dDwobt2zZ0/jxuZzJh47dqxt27YVKlTYv39/yZIlzQ/zBI7d2nXkzl/FFGVbVemjMzzBV7nMuzAc4h7EIYyJLZkpFEpnFydXN1cXNxed1nzKFPGGnCFRaDSamOgYo8mI+FfEo0i2Gzi6pSSnxMXGm+fgkRBUipUoJoQ63CU+Nt6Uw12USpWzi3ORou5qR3VGekYejsCRy5QxSREHgn5VS5wmtVukkjuKN+TG4sWLZ8+ejfHdvHmz2ERERETPBeYWKgC5zS3h4eEIBsgVH3zwwZw5c8TWf8XGxn755Zc///xzUFAQrqpUqgYNGvTq1WvcuHFr166dMmUKMs+aNWuse0iuX7++bNmyLVu2REVF4WqVKlUmTZpUpEiRwYMHd+vWbdOmTUJuAa1Wu27dOtz31KlTuOrs7Ny7d+/XXntt+vTpp0+fRlxp2rQp2g8fPtyqVasyZcqcOHHCy8vLctfHy3VusVAozXswxCuZYds0mn80wPzPk2+nGAWlyvydNyQHvS7H8IAHxUOLV3KGx9VqtMKjy+SyR+yVEuYW8S/PPyDG3EJERESPwNxCBSC3uQVr3fnz52NiYurWrVuiRAmxNbOwsLDbt2+np6cXK1asUqVKwnlXcJdz584VLVq0Xr161jQiQMjBXVCOV65c2cfHJz4+HlEEqaNWrVpZvtcUFxcXGBiYnJyMW+vUqYMW9ExISGjcuLFw7ktcDggIcHJyatiw4ZMf95K33EJWzC1ERET0CMwtVABym1ueS8wt+cTcQkRERI/A4/KJiIiIiMjeMbcQEREREZG9Y24hIiIiIiJ7x9xCRERERET2jrmFiIiIiIjsHXMLERERERHZO+YWIiIiIiKyd8wtRAVMIpHyL69/mc4QSkRERGTF3EJUwIwmA//y+mcUFyIRERFRZjxfPhUAni8fjt3adSpqhybF6KhwMTlws8o1iYPEYNRrTWlyB9Vkni+fiIiIMmNuoQLA3AKHg7ZfSTmYHJ9mMBr4bac8wCuRRCJRqVTpydrpHT5Ry53EG3KDuYWIiOh5xdxCBYC5BRLSHiRoYgx6ftMpXxBdpBKZn0dFqSQv32JlbiEiInpeMbdQAWBuITvB3EJERPS84nH5RERERERk75hbiIiIiIjI3jG3EBERERGRvWNuISIiIiIie8fcQkRERERE9o65hYiIiIiI7B1zCxERERER2TvmFiIiIiIisnfMLUREREREZO+YW4iIiIiIyN4xtxARERERkb1jbiEiIiIiInvH3EJERERERPaOuYWIiIiIiOwdcwsREREREdk75hYiIiIiIrJ3zC1ERERERGTvJCaTSbxIlFehoaHlypWTSqW44OfnJ7YSPXWLFy+ePXt2z549N2/eLDY9XUZdsjb+ovllla+sLziJg0TioCxaW6pwFVuIiCh/mFuoADC3kJ145rklPfpY4oHmGr2D0SC20ItJKnNQyR3c2xx19GomNhERUf4wt1ABYG4hO/Hsc8u9E/f+aaozSKUKD/Pn7Xx9fQFJHBxMJqMuTiEzlux43LHkS2I7ERHlD3MLFQDmFrIT9pBbonY0NSk8y7T4TaJwcTDqxRvoxSGVm3Qpt48MkOhiS3VmbiEiKjDMLVQAmFvITthNbilWrs1WidKVueVFhNyiTQ450E2ie8DcQkRUgPh7YkREBc9k0ptDC/9eyD/z6BMRUUFjbiEiIiIiInvH3EJERERERPaOuYWIiIiIiOwdcwsREREREdk75hYiIiIiIrJ3zC1ERERERGTvmFuIiIiIiMjeMbcQEREREZG9Y24hIiIiIiJ7x9xCRERERET2jrmFiIiIiIjsHXMLERERERHZO+YWIiIiIiKyd8wtRERERERk75hbiIiIiIjI3jG3EBERERGRvZOYTCbxIlFehYaGlitXTiqV4oKfn5/YSvTULV68ePbs2T179ty8ebPY9HSl3zsRtaOpSVGsbOvNUoWrg1Ev3kAvDqncqEsOPdhLontQqvNxx5Ivie1P15nr9+8l6vRajXid6BmRSCQODqb2Dfyc1HKxyZ4kpMVGJ4UnpD1I06aaHAwOLIqfPvMKIlErHN0cPUu6+pRw8xHbs8PcQgWAuYXsBHMLPXv2kVtW/X05Ms0lOSFepzeYywKiZwGhxUmt0uu1M/tXK17UUWy1AzqDNiTm2qW7J+8n34lLeeAgM8iUqGIkrImfDURGnVGvMbo7e3o6lazh06iKV10npYt4qw3mFioAzC1kJ5hb6Nmzj9yybmfgxdup7mpTqeKuBgPf6OkZQGjR6gwhd+ONRsP8kY093dXiDc9a2IOgE7f/CYq6LFWa5FKls6KIo8JVIVNJHKTM+M+EycGkN2oz9Kmp2niNIV1iknq5+Tfya1vTt4nY41/MLVQAmFvITjC30LNnN7nldFBSsxolOjYtm8Yvi9GzoJA5xCZqv9scoNfrFoxqYie55cztQ4dvbdFI0hx0Ut+ilX2KlHNzKuaodFHK1BKJ1FxC01Nnzi0GbYY2LVkTdy8xLOxBoNYh1aSXNPRv16JSZ0eFs9iPuYUKBHML2QnmFnr27Ca3BNxMalSlWNtG5dM1BrGV6CmSy6TxSek/bT9vJ7nFaDLsD9x8KnyvycFY0rlMVe/Gnq7ecqkC7UaT0WQyiv3oWZAgNUqkUokMY5GUHhsUfe527BWpQlKuSI1utYZbvzPG3xMjIiIioufcieA9CC0oi8t51nmpQtcS7uaPWXUGjcGoZ2h55kwmxEeDzqA1Gg3ujsXql2lf27e1g14Smnhl15VfkS2FbswtRERERPQ8C465euTmNpS/FYrXrevXWiFX6Q1axhU7ZDnWRYd/K5WqX7t0G4PWIfB+wKngvcKtzC1ERERE9NxK16Xuv/6XSan3da9Uy7e5VCIz8Eu89g2REmNUvkStql6NJVLJ0ZBdkQm30c7cQkRERETPrWuRZ++lhcsNjtV9XlLK1QYTQ0shIOwNq+RVr6iqlE6aejbsMK4ytxARERHR80ln0F6KOCGROPh7VnV3Kq4z6MQbyO4ZjHqVwrF8iVoSo+JmzKXE9DjmFiKirFJSUi5duiReeZ5IJQ5ymYNC7qBUmP9wQSZzMJ/NmigvzD8BJJPJ5TKF0vKnwBWZVMrSwgyLQlgmlhPG2zXMIeYTc4uhFJueI/eT7kbEh8hNKj/PKniu5gMo7JtMhrFQ4E8qK5hNyTK+CrlcLl4vVBBdShUp5yIvqnFIDYsN4osLEVFWeNtYuXLl0KFDL1++LDYVdihHnJ0cFAq9RpuSkJz4ID4xNj49OdWk1zuolOabEGAeDR0K59se/T+gElI7ypycpA4mU1pqWnxsfNyDuMSERK1GI5dLnJ3NAUbs+qJKTU7GMomPi9fr9Q8nF7zIPCIkyBWIf09pAWLeDAZDQnwC5jY5KVlsfY7cibtllBg8nEs6q9wLxYH4aWlpGAv8ZaRliE35ITFvrdg2k5KSCuO5TzDPSpmquJuvQW8Ivn+VuYWIKCtHR8eePXuuX7++adOmU6ZMuXjxonhDIeWoNukNJw+f+nTF2gHjZtfvOLj8Sz0qNevdqvdro95c+PWq9edOnjN3U+dwdgWUXI5qlDbxsXFiC73YVCqZ2lEacuv2xp9/XThnyqiBr3RsVq1d44q9OjSaPHbg158vOXroGIoMR8dCsKvh/wGBxGg0Ln7v7XaNK/Xv0jzo+hWV+r8QgmWCJWMw6ONiH1g++s+0iJBnHJ1kKUkpKclJ0qey9DCa4beDB/dqi7mdP/MNrVaL1CTe9ly4nxKFDOjuWEwhU5kc7Dq3SC3Wfrm2U+NX8Pf7j78rlcp87sB0cnK6cOZin3Z9506dl5GuKXR7XUz4n0RS1KmEyeAQlRTO3EJElI02bdr0798/JSVlxYoV7dq1e+211/buFX+HsTBB3aNWXb54bfjk+e0GvD7jvWWbduwPCgmPjU+8/yAu4MLVH37b+sbsJe37vz5+xvtB1285OKrMd8lCJrt2+fobsxf/uX2/ea+L9EWsREkgkUhRc0dGRH626P3RA1+ZOm7Qj6u/OH3icMz96IT4uNDgoD07/lr6/qwR/Tu+PXnklYuXEW/yWXUVXkmJCQnxsQ/u39PrdLZblUwmvXzx8vyZE/fu2iJTSCU2GxSWlU6n3fzb73PfGh8RHqJQPo1Fh3nT6/WxMfcxt4kJcQ7P3enIUzISJFIHtcJFJpMXih0OKSmpCfFYeRLSUtPymfzVjurIO5FfLv0y/HZ4akpqIT3XPBaCk8rNZDQlpscytxARZUOpVI4fP97Z2RmXY2NjV69e3adPn4EDBx46dAjv8UKfQkCpPHni7JDX3/npj+1plq8ceJXwLFvau5y/L/7KlC7lWdQdjfGJyat+2vTq+NkXzl1FzrHc0wJvmSrV7n3HXhn0xtfr/khOSTPnFnpRocJWqSQnjx2fMLLv54vfDb55HY2exUtUrlqjbYeuHbv2btS0ZSnv0igy0tNS//r9pzdG99uzc6dCYT4JtjCFF4pGY97i0tJSjQaDUHxiyahUsv27t48a2PmXdatSU1Nk8v+WDPKMTqf7+IPZb00acWjvDqlMnnlPzP8RZkyhVOKCXK4QWp4n5p88ljjIpHJpIfkxKtm/L7PWC3mjVqtTklOWLVp+7OAxXFUoCvHgYvgQuXQGLXMLEVH22rRp06FDB/GKg0NSUtJvv/2GlpEjRx48eFBstWdKxf27UbM//OJS4C1cq12t4qqP55zY9sO1w38EHduEv6uHNu77Y9X86WP9fUuhw9lLgTMWfPYgMtp8vL6VVHI36n743Xu4qODxLS80iVolPXX8+PQJw86fOYHrZctXenv+0t+3Hduy79yqn/7+cs0fGzYf2LL/7KLPV1esXB0dQm7emPvmuBNHjyhVKDZeoOhiMpmQBFq27dSr/7CBw17zLFFSrxM/55ZIHaKjIqIjI3DZ/I0dm4+/cReDQX8r6LomI93J2QVXxRuIcgkrj6OTY2JC4sfvffLHhj/E1ucCcwsRUY7efPPNLJ9RabXa9evXd+3adeDAgXadXlD0SKV/7zp48PhZXHvpf+2dBVwUzRvHr/voTgFRxO7u7u7u7u56bV8Vu7swUSwUsVEBQToF6a47ruv/zO2JiGC9/l/Rd76fFXdmZ2ZnZ2d3n99NNah1/cTfk6aPruRoz+Ky0SRHdDqHx6tdr8aadQvP7fvL2dEOgj185nf11kOIiKJ/AKyrf6efPaYiw2RR4mLerV06O+n9O3CCUX7orMecxQsrV61MI5pUyPCHYmJmOnby+IOnrzds0gKCpaUm7966Nisjh/GvdHmqIKhUaiiNsZMnHzpzatteN/tKTjLZx2EVNBr9C88Tk1nOMDMM5tuAbxaHy4mPjV86a9nZI2d/075h5YF1CwaDwZRL06ZN+/Xrp3OUQCQSubu79+zZc+jQoU+fPlWrK95YTwpFKRI/fO4PuzwuZ9G00Q6uVUiFQhBeJKUKDCu0KZUkiZQkLGrepunMsYOIeNduPxIVCEjE/JtcDsnAiM9DneUASIdkbIg2NquMTvAQBfwN9HRh9HhoprIyDTSIS6WSDPVRMJY2KTqNpM9HTviLYukCfgTCc9i6xI0MSHwumscZq6l/CyqVKpepTh/ZExYcAM6GTVut376/Rq1qIqFaJlUBatjgn0qlkKuEArVrTeela/+2trWHwC+fPbzreQ3uVZkNCDQalcOlGhhSjYyphkZUHh/Nxlt2U4MGKos2mDGaiQtqDQgl8NE30MWFdEr1qwFnceL6+lQmq+yUORwUAIJRqChZUF9sti4W/GVzSs/sDGfn8tAZIYCePpXBLDtZCvrp4JMfAbg8irEe/OXrnFyesQHJyJgMGYNTGKB9DoOBOmqCU9/AyFifBBkAynjaSlyarty+YcJlCMBgUPl6uliflxjmdwdEi0QsuXLuytRhU71ueoGPQ2UH7od3+B8Adc2aNbpdDOZHKSgocHNzgxfinDlz9PVRd3kM5pfw/Pnzhw8fVq9efdAgnRX+DwHrwcbGxsPDQyKR6LxKIJfLw8LCLly4EBUVZWho6ODgQFfn5kceIlE5hpWGkKlM0i+cc5NGKxIID5/1SExNtzQ3mTF2kJm5KUlR1oJrSEVQuAzGg6evQYDp6XF7dWqlZ2gIwube/aful24+ePQyIjYBAoJxmhD97pmPL11DsrW1QoYkAZg+bJZGpggKCrtzx+furYe+T1+nJ6exaVRDU2P4kEJMXUgCOi0rM+fEycsPvJ6AwWbt7FCYlXvt+j3PGw+SE5K4TIYhvEaKLTCUOFMlkQUEhNy+7XPvjk/Aq8CcjGwDLpsHGgZsw1KJ/3LIFI1aXvDenawW853H03m2Ov9/l+C4nLQ8mbUJx8HaSKn6pz+4MpiU0Ldvd25eVVQk4Ovpr968p1GTBiKRuryfclVKsrW1TUZ6aqCfLzglIlHbjj05XI5a/TE8jQ5CgiIsFPn5vrh36473vftv/N5kpmdzeXqGxnrw6JX6NYBKIwf6+Z07efLlM19r20qmZgZQSSJDw+56ekJ0iCuVKEzNLNhsukqFummx2FSpWPba98WdGze9vR7ExcQzGCxTc1MySlmXDQhGppCf+Ty8dP58kH+Qg1MVQ2OuSkUOehNw98bN+3fuhQSFqJQkU3MrECeQLOSKxaIIBMIXj5/c8bjxyNsnMSGFy+WbmBmC3tF8SJZCIcMpvG7dvH75yhu/QEsrG0MjPYjufe/u1cuXn/k8eBcbCcHggYqOjn/q84xBZ7PZnPOnT3vduvXy+aO83Gw4KhYVBfgHvg0IgYvl63GLS4NKo0IexCKp/8uXXrfv3L/rFegfCA8Uj29gaMwDrVSykEsCioVGJye9T3x4z+uWx42AlwGQiJmFFV+PlpGWc/PqeUFhgZOzS5ce/ekMenmJfBdQDlKZMiQ2A14sberacFi/pqNpSMrLQnm2Jd/JhG+NxrpUYKA+wl/fJy+D/IJgp2mrpg2bNYTS+8Y2ExodbmXGhmUb92zZm6ed/nHwqEHTFk5/4fNCUCgAAdOxe0cmi1kRf2j7IhQKVSwXxmeFogf2D2s/wvwSEhISHB0d4YUOO3Z2qLcJBvNL2Lx589KlS2vVqjVx4kSlUkm87gHYKd4HSjqJnZJ/SzkhnZs3b6akoP7oX0BPTw/E0pBuLg4FCzR0E4c21yl0PukXfiPpdFFhYZ+xC7yf+enp8S7s39CtbxeSoKiMdhKATAYNFhufrFKpOGyWjZU5i8fRKJTDpy2/4IF+sSvF8jnj/1o1lySXkcC4YdJJMsXl2w+PnbseEhGXnpWjC0QiOdnbNGtYe9aEIQ0a10XtPMUCg80K8g9u2WeCSCzZsWZuu9ZN563c5qNtGgKcHexO7FzVvGUjkkwOV6FRKi7f9D50+mpoVFx2bj4Rhk6nOVey7de9/fSxgyzsrEhSWdnX9Uug0NQKYcLjvmRFjmU3X7Z5U53/v8upu5H+sYJGLibtGjlJZCqd7w8B73Yqlbx72187N68EZ8eufXYdOs/hshWKLyXLYlH9fF8e2betWs26DRq3qFu/MYPJggdKd5RNzc8VXD5/4ua18+/fxYDFTPgzGEy7So5tOnQbMX6Gk3MlqQQ9g+AP5gqdSdm7bdP2DcvA6fEgwMLa0m3LOh8vz8yMNG1UEpjtteo2mLv0rwaNG4Bh9vzxo8N7tvq/eiYWiYgANnYOPfoOnjJrib6BPpF5uDIyhbR60fSzx/ez2OwHvlFyuWTXlrUvnngT4gEwMTNv2KTV/GXrXVyrgvC/d8vj+MEdwW9ewyNDBAC1M2j4+NGTZrFYLKUSJUujUeVyxUw0LcENOp1xzuNRy7bNBIWK2ZOG3vO8SsQqycKVm7v0HNCnYwPhh3Iohs5gXvN6Xbd+bbEYpUxnUOUypcfls+6nD8e/iy7I101NzmAyKzlU7tZn8Ihx08zMjGUyVakHgsmipiannzy068Fdj4R3MYQnl8tr2qr94lUbaTT2qAEdkhPj4ebuPHiOw+Mov3hzvxEalZIvkJy5HaRUKtaMa2Ks/2u6wJ15uSOxKKKuZUcXy4YyZRm/QFUc4FmDv9vX/X1s7zHYmbd87rQF0xQKBXyMtMe/ApvDfvns1Zi+YxVyuVMVx4mzJvYb2g+UzKDOg+Fv285tt+7fqqfP/52mltFCo9JzhGkPws7BewC3t2B+Ari9BVNBeKQlMzPz7t27Xl5e97U8ePDA29v7oRYfLRDm8ePHT7Q8ffr02bNnz7W8ePHCV8vLly9fvXr1Wou/v79AINCdoHxkMllgYGBEkM/AFuoK0d5CRqZMRNS7F/7BMpk8J7egdZ0a+mDik8nIxEc/6n3SpYRKp5vZWppbWxiZGKEpjiCMmhQYFpWWns2g08USNDOSiZGBlbmJHp/XtV3zhnVrkOBTSqcLC4XLNu5duM4tNiG5SCSmUqkOdlZcDltQJMovFIRExHo9emlpbFCjelV0GsKYolFzMnNueD0uFBTZWJqfdvd8+ipQj8+1tjDLLxQaG+nPGDvIwFCfRKWKikRL/tq9eP3ud4kpkAc2i2FvbcnlsgoKhdl5BRDL1z+4nquzpZ016vNWQfjj2lvAlhIKBKeP7kH2Lpk0bPTkZq1ayuVfqdtKpcbc0qZLz37NW7VzdHLQkIunoCUz2dT4mPgVC6ecPOyWmZ4qk0k5XJ6VjR2cSFQkzMvNCfR/GfD6eeUqNewd7FRa+xnZK1RySOCbp4+8+HoGdeo3+nvjqnueVyC8pbUtn69fJBRIpZLEhHehbwNatu0a6P9q7uThkeHBZDLF2raSSqWWy2WgjiBZOF2TFu1oNJQf1NpCJvm9ePLGz9fS2s7BqerapbN9n3pLJGKIxWZzRCIhyJ646Ij4uOhW7brfvXl18ayxcBYWm2NpZQtPPVjkBfm5oHPYbG7Dps2htCBZuBA441Ofe1ERIcYmZr0HDLOxs5bLVOHBQVmZ6aBkJGIkpYyMTU3NLXl8vXadetpVcggJAumOfihRKOSQPXNLa0MjE0dnl07d+piYmkJ5Mhgg9vI3rJy3a8vq9LRkuF7IIZQbk8mGS8vNyX71/FHY2zeutRpYWpuXeCBQP7SIkLDFs8d6XrsAuQUvMwsrQyPj3JwsuK6QoDfmVtZvXj/Pz8vF7S2/Fqjn8PfH21totKT3yVFhUd37dluxZUWLti3ghZyVnnX9okeRsAi3t2AwOnB7C6aCcPny5WPHjsG7G/ahQqJ3nJbP90v6AOUFgL8MBuPGjRvx8fHEKcoDgo0cOXJAp8pVREsrRHsLwGL5vXzTe+z8DG0bSJ3qVfp3b9+9Q8ua1ZxoLBYajkKhoFEuCiVSIKUAdaMmpWRkiuRKz9sPl2zcC5+6lXMmjBjcUymXmxoZmBobgvyQyRXL1u7aceQ8xADhMWZwzy7tWzjYWMoUiojIuLPX7t55iObfNNDjH9+5qm+fziS5AkkXFjM0KLz32HkJSWlMBkMml48d0mv8iL5G+npvQ6P0eNzuHVqQ6DSFXLFq077Ne09CCtYWpuOH9WnZrIGNuYkcEo+OP3f17i3vZ3Cobs2qlw9vcariiNpnKgJ/XHsLmMsxUVFjBnZKS01mMlmHTnu079JZIvl6msQTBGZGSTuJzqBmZWQunD4aFAg4wfofOnpSwyYtTMwsBYKC0KCAKxdOhAWjySQcnKq4Hb5Qu349mVQFSdEZlKN7d/21ci7Y/abmFmkpSW07du87aKSzS3VIPzjQ78TBnbHRERCxWav2ifFxhYUFw8dMbtOxq4mpZU52xm2Py5fOHgX1oq9vePDsjeYtW0qlKqK9ZcuaRYf3bmNzuHr6BqCjevQd0rPf0EqOznKZ5LXv0+OHdqUlJ0Kyrdt3C33rT6PTR4yd2rRVOwMD4/TUpKsXT9+8ck5D0tjaOR497+lS3VUmUxHtLUtmj/O4fNbUzPLQGY9GzRqJipQZ6SkKheTezet/b1wOz8HMhav7DBwqkymMjc04HA5IGpGoaOu6Jc8f3zezsNyw44iDkyM8oBaWNlwuF4pSKhFtWrXw7IkDkBmQVYNHjK/fqJmJuZVcKokKD/G4chbkExxq2KTVzkPnbGxt5HJ0j+D2ZWVmzZ826pm2wKvVqAMFXqdeY7iVSe/f3bt97eqFk+YWVqAAi4qEuL3l1wLPC/z94fYWUCmZ6ZkikahKtSokDerJTKfTE+ISRvUZ/ce0t2DdgvkJYN2CqSDA+10mkxEjTeH99gN/PycsLKxr165f6CfG5/O7dOkyffr0Vq1akSXh8e41K4pugTc8hbLvyPkF69xAGxB+RJtJs0Z12jatX62Kg6W5iYmZCRryLpEiUVEKJoPE5bifuDxs2jK1RnNwy7LJM8aQlAqSTIHaN1hMz5v3B05eKpPJzU2NDmxa0rd/NxQF9AMUJoMhzshau/3Q9oNn4aNbq5qz55lddg52JJmspG6Bkwzv3+3ErtV0I0PUlww0J2RDG+bmDa8BE5colEpnB7ujf69o1aElEloKBUqcyRClZy79a8++k5ch8dkTh+5YtwCEZhkC7N/nj9MtLDb1+eMn44d0lUgk1naVjp2/7eLqStjE3wsIGSqNvHf7Xzs2oS5nNes0WL1pT/PWTWAfbiw8uLDFRiVuXLXwrudl8OzeZ/Dm3Uc5HJ5apS7WLSghEqnv4FFrN++xtNKTyrQ1gkk6f9J9wfSR8BKAoxwOd7PbsQFDB4MsAQ8GkyQSaJYvmHrx9CE4unDFpunzloA1CPkp1i3aVEkTZyxcuGKDvgFdLkOZoVBJe7fv2rRmgUrb7gP2/bZ9pzt1aw8VDT0BLFJWRtHcKSMf3PUACbR519Eho8fIpGoqlVJKtzRs2kgiVjGZVA6PdPrIWcgnGF8bdx4eP3UiZA/1uFRrOByyWKKZMX7wvZuXrWzszl7zqVHbSSqBxwKEn4bJolw6d3rxzLFQ4atVr/3X34eatWoMWYLo8Fgw6KSUpNxNaxaB6gO7bsb8lfOWrlNp29kYdPLxg3vWLpsF+w0at9jkdqR2XReFHD0rqFiKNLu3rd+1ZTUcBbBu+bX8Q90Ctx6EChVks0xOmPcMBuMP0y2fTJGBwWAwvzXwyubxeGwtLC1MLfDuBuAoQNMC2gaAjwQAr8LyRAtw5MiR8kQLpD948OBr165dunSpdevWkIhEKNQdqwigbjCkGROGnnJbU7eGtpsWiZSTVxASGXfw1JXBU5bW6zSi67CZc5dtOXficnZGNpo9rNQKLSAhJFK51hAEFArt/GOwwWePSpUXiS543AfRAiW5bNa4vgO6oaabAgEKIJaQCgo5RgZrFk7p27UNxA2Nirt2xwc1tmg/zMXo83mj+nen6/HRXGcQUVikVS9UqaDo9NU7IFr4PM66RVOQaJFISAJtGEg8v5BrZLh+4ZRWTepCIldvPQyPiEW2G+b/ANSioiIhCFfYNzQwYnM4P/x7J51BTk1OvnsTaRJ9A8O5S9aDaAHTWShQSSUqURGai8zJ2X7hyk1Vq9WEMI8e3H7zyle7IuIn2No7TJm1xMRULz9fBXpALIKN1KhZq+o16xEBBgwb27PfYFDQRMrCQjWTTW7XqQe8DeBoeloy6K7PTSDQUeOnzuNw6YUFKolEVVSkgsrYsl0nOB0chXfFyHHT23ZsD+cqEqJkBYUaA0Nem47d4JBarYJkVUoornJfJnK5WiKG50j3IwLYo1CpJRKNUqkCw1QqJUklErVWIIHRKZOBiySVokN0OiU3O9/jEvoJAMpt3tK/mrZsXFxucPkFBSpzS+PZi9ZWr4WeiNse7gnv4hgM1LkuOzv3/t0b4KlvaDRr4ZoatVwKC9QiEbpAuEyQkZNmLgR9iDKE+c2BugeaRCaV/cFtEli3YDAYTLmEh4efOHFC5ygBWD9Dhgy5c+fOxYsXO3TooPOtgGhHCQ8e3sfzrNvR7St7dGypr8cDvaY7qFQGBEfuOnJhxIwVnYdMd3M7Li0SfbJe/heg02LfJT3TdsKuVa3ygO4d0LD7Uj/jiSVsY8PRg3qAfoTv6OMXARLBhxmWP2BjbV7FyRZ1VyuenQy+uHRadNx7X78QcDVvWLt/93ZoMA5oKibj4wYGnL0NHIJPdWpG9nO/t5+LIsxPAcpeJBQSv9FyuFwWi/1j47bgTsH9CXsb8D4eLYTatEW7Zq3aSyVwJz8mB/UEjHUnZ6duvdGUgGJR0asXj5QKqDWf3Nm6DZvaOziVnOQPahCPp2dqYQX7LDa7WasOdAZJ8aFRCJJVq0hGJiZ6+gbgBMEAHp/ri8bNWptZWEglH20+iGVgaGxsYg77hsYmTVq0hUjE4HsAkoVKZ2pmwdDKIYUSkiWO/GSg7sdEhYeHoO5zkIe2nbrD40KjkxlMNAszsUEpOlWxad+5N4RJTowPDnoNZUank2KjwonZqxs0al63QRMQTijTH5DJ1Hr67F79hxXPzozBVGTwKx6DwWDKZffu3cJPm1D4fP7AgQPv3bt39uzZtm3b6nwrMmDOFImt7azHTxhy9di2kIcXLx3aPH3swJZN6jrYISOPICgses6q7aNnr85ITid9/vv255DJ0e8Sc/MKYbdujaqW5iZa7fEZCkUtV2c7awvYffc+JT0zFy0YXgJzEyNjIwOUyWKQOQmJv88vRNMhQMrCInF2cnp2WuYnW2pGblqGsYEBh41mqQqOiNXItV3IMD8bMHJBrlC13S+lUplcLvuxvhqgW1RKUmjwG4lEDPsNm7bicOifzxkAMgZOVa9hM30DQ3BGhYUIBUWUTxsCHStXZbIYJQUPQKXRGNqqy+HwTMwsPpcQFDDktTUEzk74lAQu0KFyVVAIJc16gEaj00EDoTkDQcKYfHpOBNFmCztlJvvPgWThpPGxUUIBetwsrGwLC/NSUrIz0jJKbmmpmZkZuSamZlAOIDKjw0NBacIVJ8THEBGrutbk8bmlB9yj0UekylWqgfrS+WAwFRisWzAYDKZsQkJCLl9GHVoIwCQaOnTo1atXL1261KZNG8KM+22QykgSKYPFsnO069ev2163tU89jt05t+f0nnUzxg6yt7EkQl3y9F6+ea+4SESiffHqwD7TkHLy8mXaITEW5iZkJh3Nifw5KrWhnp6DrTXsFgpFhcIi7TRmH807PpfDYTFL6xaVOjUtCyxkcHk/9es1Zl6fUXN6j51fauszbMZfbsdk2mDZufly2KH8XwzH/zhwY8Fgp9NQN7yCgjyJWPJjpQz2t0Khys1B8wszWWxLKxtUjz6rNqgNQ0MyMTXn66HZKQWCQqlUUkoR8PkGX7jVNBqNxWJ93ihUSpCUAsx9Hk8PZamcYAwGUzuVs85ZzJeT/eeQtUvZvE+II8bYPPK6NWl4r8kjek8d3bfkNmVUn/FDep84tAsJERIpMyMVSht2sz7ME21mbgUy5vPcgpg0MDTRNzDSuTGYCgzWLRgMBlM2Bw4cyM9HC4bweLxBgwbdv3//zJkzHTt2JI7+BoAe4PPQuvXa35DRplSiQfNSKUmEeti4VK8ycvyQPX+v9L58YNKIvhStJXjp5oMnz/3QAvZfM06VKhVhA9Eh/VJ25acQPdNA5xQKQLeQS6YMtiygcxSj0RCKCEhOy3zh99Y3IOTlZ9tzv+CImHjIBgTLzS8grDrMT0etIpmYmJlZota57Mz0vJysTzttlQvcWTabytIuBk/4QIVRQ3LaNgoa/YvjkVBtRBUDjfKQiHWOD3C4vDJN8GJ+QEtQqTQul/dZXfwIpPkDyf4sxKIiYicp8d0bP9+ggJdBAa9KbW/8XsTHRRPNUIWF+fBEQHah9IiITCa7zMcUwhBj/3RuDKYCg3ULBoPBlEFQUBCoFNjp0aOHh4eHu7t769atf5s2FtSxRB0TEfPwro/XzQe52blIupQEzC8wbqQyNIxeoahco+qO9QsH9+4MR4pEEq/HrzQy7SxFP4NiYaKvx+ewWejU34TOwmresPboob1GD+rx5a1v17Y0uMafsegEphRQU4xNzR0cq8A+iIjE93Hf1E8MKqFK/TbwbVzMOyqNzGB8/ux8QSOgY0S9oTOYDAYT7ut//NYSpUGhUhs3az1w2Oi+g0f1HfSlrW2H7hC4ZKNTmaKlmF+nyDCY7wDrFgwGgymNQqE4evRo7dq1r169evny5fbt2+sO/C5QKAqlcsveUz1Gzek3buGrN6FfGm2vQgNguMaGw3p35oKuIJESUzMUIGm+rFvIJCadTvyOLpVpF84v0yoio9H/wiK0yh6bxWAR2fiqhUQG+0yX3JDenU6e23vyjNvJUzvL2M7vOel+8OTF/bPnT2Iw6GWPscH8M9Rqjb6BnmtNNFGVRqN+G/BaKlEVz+5QHnQaRVBYsGn1gkkjeo4f0vPFk0cMBtQpKtHMolKpZFLU6FeeMS2Xy5TaiezodDS+5D+tWrRtpcXtIYNHTjx+7uSRs6cOnSljO37x1Gn3UyfdT02cMZVCIUOxEVMRAEJhIRInn5U4uFHLjLYdDIOp4GDdgsFgMKURiUS9e/e+d+9ev379WKxfs+bAP0PDQLM/06VSuVgqDQyNQhOLfUGHaJtf9PV5hK5Ads1Xf5slk6wsTEGKgCsxOV0plZYacK+DRsvMyYtPTIVdI0N9IwM97e+6XzRCIQCVamluAgYruN6ERGoyskiFAlJ+YelNIBS8S4p94ZcZFiXJzNGmjPk/oNFQqaTmrdsbGZuA68nDO9ERYUzmF2sI6pVECg56HejvGxcT+eThXTSNMhmMb7KNXSU4CqIl4V20Wq1rRigJap8jk9JSkwoK8sBpZGzK5nD/2w1pGgoVTf1MJpHVKlVwoF9WDqmwgFSQr/p0UwsFmnexOb6+kVERmdlZRRo1PEkkK2s7opBTkt4rlNqn+1MgTGFBXmEh6hOLwVRwsG7BYDCY0hgYGHTq1InP/20nBlVryExGi0Z1CNP/8i3v97EJaHHJ8tSItv8byJsCAepD7+xgy+CwPhkr/zkqdRVHe3NTY9iFiPHvU9CQmFLA6agUv6DwrBxkElWuZGtmYvj1rlxaYVO9ioOhPip//+DI90mpaD7XUoAMo9P3nnRv1W9S1+GzLt7wQjMs/6S+bZiSaDQapZJUq26jZi3RlN9pqclnju8TiRUsVrndJtlsamZGwfmTB9ESJCRStz6D6zdqJpejZRxdq9fh8fXA87Xv04ICIY1euk5S0KKNJH/fpxIxaqZzrVWXy2P9lxsD0ARrFFJV11p6BqjlBKRgZnra5w+Edj0q8uHdW4f1bjNpRK8n3ndoNApIF0dnF2KusOAgv5zMzFIFDpIGnv7I8GAQijovDKYCg1/xGAwG88cBpr9a3b5lY2K5ydDIuCUb96S8SyTxuSQ26xPjHvbBh8cJfB109JyHSqXS43G6tm2GxsOodLqluBmDBgZOsfJRKB0q2XTQrtgdE5903P0mGvSvXcVCBwTkcbITU4+c95ArFGBSdWrdhMHnfVNXLoWymrNjs4a1YTcyNuHoeQ9t4p/Ozsxlv4uKO3/tXkZWTlBoFI/NRtM34yaX/w9KpZqvxx4yehIx69R199P7d26SSBRcHpX26dRzVCqVp0ctKpLs2rzK58Et8DEyNhk0bDyPz1Ip0ZqK1WvVreJSHfz9Xz2753kVblrJFKCecDiktwF+dz2vgNPA0LhJ8zZQSUtNefxbUzy4n0qllfdLglZOfCwWqP4urjWJrnqRYW+vXjwJz1fJIUNkMoXDJYW8Dbx983JuTlZE2FsuXw+0jUKJ5jhu3ALN2B76NuCu5yXwLFngLDYlP198/dIZiVg3fB+Dqchg3YLBYDB/Igqlha3l/Ckj2dquX+43Hwwcv+D0cffE+CTUumKoTzI2RH8ZjJTE1JNHLoyetTos+h2EHNizY5NGtdFK+R9Aq1NopU5aZhaJxSAZ6KPRMmo1hcUc3rezoQH67dzt6MUtO49KJBJ0lMMGxQI7KTEJM5Zvff4arU3ZvGHtHh1bocaWb5EWKjXbQG/8kN4cNgsM1p2Hz29zOy6TykiGeihxLgdynhqbsOivPeHR8RC8d+fWnTu0QMYd1i3/LzRymaZpizbjp82DyiCXy9y2rF4yZ8LL56/Vao2BIVVPD22wA4a43wv/xbMmnDq6h+gPOGLc9Gat2srl4NAoFWozC7O+g0aBPpHLpLu2rHY/cx7qo74+lc2h8vWoXB755TO/DavmpaWgn/+79hpQq24Dbdw/B9Qsou1UmZ2RDk+SvgGZ+VnLlUQiLhIW6uuT+HxQN1SFQm1sajRg2Dg6naFUKo/s3XZs/17Y0TegcjhQaFS+PjkyLG7HxuWpye8herc+gxo3awXlplap+Xz2gCFjeXw9lVK5b9fGy+cvgHSBooaIcL+EAvHubevu375GnBdToWBz2IYGhobGhoZG5W48Pk8X+r8Bdc2aNbpdDOZHKSgocHNzI5PJc+bM0YcXLQbzX0UpSimKPUaicgwrDSFTmaQfW1f8Z6HRuFR1ZFCpoByUKnVKepbH3ccPnrx85vvG+/6zO7ce3rr54OK1OzsPnj189lpWLurK1bZZfbe/FhqZmaDfaQkYtNTktGt3fBRK5bv3KdlpmaHBESqpzA4t+aKxs7NmUqgPXwTI5QrvZ37+b0LysnKEeQXhYdHnzl5ftf2Qz3N/SMPB1mrvpiXValRFszADNFpWRvbFG14FhUKXypUG9+qIuqqU6j+m0Tg62quVyse+b5RKlfdTv4Cg0Oy0LGF+YUx0/IULHiu3Hnzsi1YBd7K3dlu/0NHZoaTW+pWQKRq1vOC9O1kt5juPp/Nsdf4/hEwmQ/OkfT/BcTlpeTJrE46DtdHnazv+ABqNhkajIBUhkwX5vwKPqPDg+3euB/m/DH7zNiIs0v+V3y2PG2dPHDiwa9PbN6+JWCPHz5i1cBWTxVQpdc8CyB4nZ5esjIyIsCAwzZ94342ODM/Nzc/NyQt47Xf26OE9f6+LiQqDkPUaNluxboeJuSmoHW37AznQ79XTR15wqEOX3rXq1lUqP14XiAGoJw/ueMRGhXN5/N4DhltYWpQMAJlPS029df2iWFRUo3b9th27UShILYDQevH4wRs/X5AE3XoNrFy1ikLxMRaVSpGIJXduXEpJfm9sYtZrwHADA33t9MIIyBWNRo6LibnreUWpUDRu3rppi7agncFfpVJ737sRFRHC5fJ79htibWut1CZLZ1CSE5Pv3/EAFZH4Pi49LTvsbahcprKysaOA6CNTnj+5HxH6Vjv+JzY5KSMyLNLQ2NTASF+tJjtWriIUCN6+eSWTSZ8/vh/69k1WRk5eXkFURKT7mTMgAoMCXsIpKleptuKvnTa2NqB2wKnRkO0qVdKoNa+ePxIXFT3z8YqLjRUUijLSMh7cueO2df31S6fRxWiBW9OlR386g156ecofAgSaVKYMic1Qq9Vt6tpwWD9Sk4uRSqU/9iyEpLwslGdb8p1M+NYq9Yc3W4UEagD89X3yMsgP/dwjKCwMeP3m7o179256eXmWvSUmJLnWcqVSqWVO0g3+BXkF1y96FAmLHCo7dOzeER7G3671Eh5VsVwYnxWKnhCdHwaDwWD+MFRqKoW6cObYw9tXulZxIPzCo+Mv3rh/6MzVA6cuHzxz9dzVuyGRseDP53LGDel9YtdaGwc7nbogUKprVq/iWtURdlMzsjfvPTlv5fYL15HtSNLaZ7OmDN+2araxIfrB4v6T13NWbOs3fuHgSUvW7zoWEoFSblK/5nG3NS1aNCTJSyT7VVRqGo26bNa4dYum6vN5GpLm3qOX81b93X/8woETFq7edig4PAZC1XZ1PrhtRcPGdT7J8x/Emzdv5syZA3917l+KQqFiszkLl29cs3m3jT2qUQV5uQ/u3ji4e8u6ZbNgO+i2yevW1bxctLKktY39yg1uy9f/zefzFPKPnQOVCpWeHm/p2m2jJ85kMllSqcTz2oUlsydOG91v3pThp47uSU9NBhHSsVufrXuOgxyVy37AxvqCzf1jh77KtyarUpGqVa/lVMUF9jPSUg7t3vzXinl3PNzhUQKzk8mitmjTERQU2KB+vk+2rlu6ac2CdzGRdBoSQmw2a+6S9RNnLORweCqVyuf+rbVLZ08fO2Dm+EH7d26Ii4mANGvWabBx5+GatWvJ5Lpyg4hg9kGs6fOWczhckajo6oWT86eNmjZ2wJols0D/gBgAeelaA3VCq8h4e3svWrQoKipK5/4PEPwm5Pzx8xdPXnQ/5V7edtfjLtQW8n9myV2sWzAYDObPRamkkMkjR/bzvnRg17r5/bu3r1Wtsr7ex34FBnq8RnWrTxrR78rRrcd2rrJ3skOrUpZELrextdy5Zl67Fg25HDbhFxOfWCQSo5UBFUoqlTZn2ijPM7smjexXp3pVKpUCh6QyuZmxYcfWTbatnH3j5M42bZuhxpASv+CCLSXQTo4sEqNx22WjUNLZrJULp1w7sX38sN41XJxAyUDiIomUz+M0b1h72cxxHqd2dujYErUO/aE9xGrXrh0aGtq8eXNQL4GBgTrfXwdIFxqdPnbK9LPXHi5atbld5572Dk6MEuOaLK3tWrbtNGP+qhOX7k2cMYvBZMhLiBYCmUxlbGK08i+3nYfOd+09EFIAz6IioVqtBrXToUuvTW7Hdh48V8WlqkQCcT/eWblcRuwoFPIyR4YQaywWCYVoJM1ngK0Ph2AHxBLhQyDT1nmJWKxUKj9PFoxCsUhbV4uExFL0JYHwEEuircYy2SfPjvRDZuC8xcmCDLOtVGnZ2r+bNG/L5nAIz4T4WDgFBFEqNB279YWCda6KhgABRUJB0vs41IaDLl/F1+MtWQOC7lLvAcOdnF1A7YhFRZB/vp5+w6atQNUcPH29SYsWMhB7JZ4IuGtMJmPu0vV7jl3q1L2vqbklFDVcDofLa96649/7z4AWJYbTEHMhVEyaNGly586dFi1arFix4s9WL6hP7DdTchxUmcC9LhKiCVeglpbZJvN7Afr+z3zXY/5NEhISHB0dKRQK7NjZ2el8MZj/HpLMl+l3mmnoJg5trlPofFIF6ZMAJg+djgalCEXJqRkZWTnZeQVKpYpGpZoaG9rbWJjZWpEoFJJECp84XZSSQHQWqygnLyzqXXZuPnwzTAz1G9RxBZNUJ0XAKGOzwCpMTUxNSErNKxDQaVQrCzNnB1uOqTFqZinVg4tCERQK/d6GiyVSSzPjBrVd0fiZ8j5GkDiHRVKqkuKTklIzIHGw1cxNjSpXsjGysQKLrMK1tFBoaoUw4XFfsiLHspsv27ypzv9H8fLy6tatGxgflpaWffr0mT59evXqOqP2C5y6G+kfK2jkYtKukZNE9g1zIXwPcAvodAqTRSrIl6ckJeTmZBUW5EMOwQ42M7OwsXcwMeWi2y5Tf8HGoFCobA5JLNa8fxeTnpYCZjTY8RaWNg6Oznx9ukRCUik/yTaFQk5MiCe6kLnWqGNjZ1fcXwuALEEGwkODMtNTmUxWnfqN9fT1S3Z2gugFBfkhgX4ymcza1t7FtWZxl5O46Ij3CXFg/9Ws08DM3LxkshBLLpeHBAXk5+XwePw69ZuwOeySyVKp5KzMzNC3ASBOHCtXcayMGlIAyExk2Fu4LshM7XoNDQwNS/YuY7IoudkFMVHh+bnZ4GtkbFqzdn06AzWzQDaoNFLCu4T376KlIKg0mspVXR2cnKEgicKETy2bQwYFl/DuXXpasqCwgEajGZuY2TtUtrAyUkCxfyYUCVBENlkolMfFRGakpyrkcjNzSxBIJma8IqHqzesXBQV5pmYWNWrXp9Komp/RT4xGpeQLJGduBymVijXjmhjr/9M55U+dOjVmzBjYcXBwGDRo0OTJk2GHOPQFzrzckVgUUdeyo4tlQ5my/B9KKgBQN+BvXHRcUsK3Tu9mbGpSs24NuLllPmvgLxaJA/2CQNyamJm41nKF2vLbWf40Kj1HmPYg7ByUD9YtmJ8A1i0YDEEF1S3FUKlotmIaFe3ABxLe/yoVaqwA6/+rZgooHxAqxExEEEUsKa00QHsw6Ch9SBwOgdEJpmvxOJmSQDwaBQ2vhygQQPQNExmVTBxQKpEWqpjNLD9bt4AFDHLF09OTcBobG48YMWLcuHG1atUifMrk/6pbiqGBQUEngZ1N3BaQvXBnoDYp0ciKb7o1YKWjKcXo6A4T0aHWlFIsxTCYVLa2zU8iRo02xY0YxXA4VDqoaTVJLIKkPgkANQVyy+GiE4HRr23J0cFiUUGDQQCxmKSQl04WLCUOl4Im2FNBshq4HboDWiAWnUHlcNDzBCpDJv2YLJuDLq3MzAB0OpXJREUHKBVw6o8aDwkbJgXiEsIKJJz8szsIqo/BhCvSPW2QNyg3KPavGnWgSdBzTEcZRqUtQ60x4OBqrxHunVj002rLT9ctAoGgY8eOfn5+hNPKymr8+PHDhw+vWhVNnFgev5FuIWCxWEzt0ljfgkKhBGWic5QF2GZcHhcUOIT8TZtcsG7B/GSwbsFgCCq6bsH8C/xs3QI8ePCgZ8+eMtnH3iMmJiZgro0dO7Z2bTRb9Of8O7oFg/kCP123AKdPnx49erTOoQWsDlDyY8aMcXZ21nl9ym+nWzClKKlb8PgWDAaDwWAqNG3btu3cubPOoSUnJ8fNza1r164zZsyIiEADsjGY/wK9e/du3BgtG1VMUlLSxo0bO3TosGzZsoSEBJ0v5g8F6xYMBoPBYCo0NBptypQpzJLLempJT0/ft29fy5Yt582bFxSEJk7FYP5s9PX1J02aRC7V606rXjZt2tSiRYuVK1f+p+Yc+6+BdQsGg8FgMP8X2Fyubu8f07Vr1379+ukcn5KXl7dz587u3bvPnDkzLAwNWwcoFPx9x1QgeLyf0EmMYNy4ca1bt9Y5PiUtLe2vv/6CZ6Fk2wuby6LSvzLpFuZ3AY9vwfwE8PgWDIYAj2/BlBzfUuBwTMWtqfP/Z8AL1sfHZ9GiRTp3ORDjXmbNmvU0ShoQJ8TjWzC/kOLxLQqFvH9DLo/12UQKPwSVSnV3d9+6davOXQ7W1tbjx4/v0aPHvbALRdyM1jX6VDVvgMe3/I7gcfmYnwzWLRgMAdYtmJK6pf9fpLfxOu9/E1NT0y6jVunZNcS6BfMLKdYtUqnk/OZRgrx03YF/ndYjai9fvcrRsA7WLb8jeFw+BoPBYDD/d/T19U1+Krp0v4azszOcWufAYCoAhoaGukr8MzAyMtKl+0WoVCoE5utz2XxmRZwzHfP94PYWzE8At7dgMAS4vQVTsr1Fv403w6SRzv+fARbY6dOnp06dqnOXQ+PGjSdMmDBq1KhLj9+/isrH7S2YX0jJeZAXDq5pyP/WNUm+DI1G27Jly9q1a3XucmjXrt3kyZO7du3q7r8vVRbTwLYzngf5NwW3t2AwGAwG839HT0+P/5MA3XL+/HldumXRtGnTo0eP3r9/H3QLg8EotTwiBvNrMTAw0FXlf4xEIrl48aIu3bLo0KEDBLh79+6gQYMgPIfPpjHwuPw/BKxbMBgMBoP5v6BU/rQGtwsXLjx//lzn+JT69eufOHHi1q1b48ePB6VEeOLOFJgKhUKh0O39Yw4ePBgdHa1zlIBGo7Vq1erKlSvXrl0bPHgwqHfCX6VUadT4cfhDwLoFg8FgMJgKjVAoPHz48OdSpHnz5uD/5MmTMWPGfGOPfwzmtyY1NfXkyZM6Rwk6dOhw6tQpb2/v/v378/l8nS/mjwPrFgwGg8FgKjQ3btx49eqVzqGlQYMGx48fB/+JEydyf94qMRhMBefcuXOxsbE6B1ixFErbtm0vXbrk4eExbNgwOp2uO4D5Q8G6BYPBYP50yGS0UbQbsY/5fRCLxXv37i1ubGnYsOGRI0d8fHzGjh1rbGxMeP4/QUsmkMlgHyIIh+7If4aP118O/1qxoNPozohOqvPV8oVDfwzp6emHDh0i9uEaW7VqdeHChdu3bw8cOPAnqndtSX5x06IL/UPokvhJqf10UIa0eSNVvHqEdQsGg8H8ocC3kEEnsZgkJoPEYJDodLTBDjgJT7yk+u/AxYsXX79+DTtNmzY9fPjww4cPJ0yY8C/0hAELmMmkslgUBpPCYJDpdLShfSaFxaIyGFSwa3RBywHMaCr1TxgPDRdCXH55G4NRslj+L7YecTtQ+evOCH+RzQuHoJCZcOoSh2j0P/PRPnbsWHw8WhGpY8eO58+ff/DgwaBBg9hsNnH0Z0GjURl0xpc2JtpYLBYDyvp7bjfcRF1ESAH4NDU63LyKIWAoVKhLDMgPpeJN34XnQcb8BPA8yBgMQQWaBxlkCZWan54VERP/wj84JCLm3ftUeOFbmpvUcHFq3rB23Rou5tbmSLpIZboomJ9CiXmQLbv5ss2b6vx/iPT09N69ewuFwkWLFvXs2dPkm5dwOXU30j9W8MPzIIMdrFGT3ickhAcHBvr7xkSFCwrzqVSajV2lKi41atdvXLVaTQsrU5WSpFCUnTiy4CkkoUDMoDMr4K+23wjYkWCa3r9z+8CujSpV2VcKYcwsrCpXcW3ctFX12vXNLYxlMs3Pnc+NAvYjlRIRGvzgjof/y6ciUZG+gSHcgqGjJ1euUlkmU7/yfezj5RkeEiSTSkxMzes1bDZk9GQDQwOV8ldOK1dyHuQ145oY67N0B36ImJiY7t27GxkZLViwoHPnzsVTUHyVMy93JBZF1LXs+NV5kMGMkclke7bu9X/hr/P6DDaXbWVtZWNvXa9xvaquLuaWZiql6ltmHWCxWWqVOj01PSo8Kuh1UFx0XGZGFlQeOwfbqq5V6zaq61LdxcjESCaVlVfT/gWgBAD305eunL1Cp9NmLp7Zol0LyJLu8C8Cr5eP+clg3YLBEFQI3UImk9jM3Iycyx5eR89fDwyNLvM97+xoN7xflzFDettXroSkC54292fxU3WLv5Zhw4YZGBjovL6Nf6JbWGxqcmLKhVOH3c8ezc4sY41zMB5cXGsNHjmx3+BRegZ8+WfpM5jUgvzCKxdOcjm8gSPGggT6TY0NuFIWi3Lm2JFl8ybpvMoHAteq23DG/JXtO/eA61Wpfs4zBaKFSiVfdT+3dd3irIw0nS+JZGlle+aqt6Ozw64tGw7t2QqKRXeARGrQpMWRs7f0DfWV5ajKf4efq1u8vb2Tk5OHDh3KYn1fOt+uW6hUqlgsnjV29nOfsufuKwl6Cmq4DB49uPegXjw9nlwq1x34DLCOmCxmfGy8x0WPm1c8kxKSdAdKAKk1a91sxIThbTu3hfA/cfq17wJODYWwbd32I25HwPn34e19h/aViH7xojd4/RYMBoP5Q6FQSCym/+u3A8fNn7pk05uQKMJeNNTXq+XqXK+mi52VOfHbd2x80prth7sPm3nlkid8rtGGqXg0bNhw2rRp3ytafhgwC5hMalhw6MzxQ/b+vb5YtIApQ9MCZg04oVJFhgevWTJj1cJpmemZoFKIYAR0BiU48M2UkX3+Wj4nNSXxD+izRKPT4dphB6wmohxKAkVTXCzBgX5zpwz3uHyeSvtpJhadTomLid67fS0hWtgcbhWX6pWrVqtVr5GZpdWLJ08P791GiBY9fSOX6rUcK1etVachh8dTq/6oH6Y7dOgwduzY7xUtPwCLrTsF3FbdPS4BPAtwa+EoegpCI9csWLNmwdrs9GxQJkSsUkB4Ko16+9rtSUMm7922jxAtkIKZhVm1mtWquFbR00cNR5Dai8cv5k2ct3vzbrFITGf8ygkGiCmkGQxtta9glQjrFgwGg/mDYDJ8Hr4YOXX5I9834DIxMpg0ot+jK4dDfC76XDn44NL+13fP+N09s3L+RHtrCwgQHhM/bu66A0cvoJ48VPxF+K8DGiM7K3vTmoWB/i/AaWFpPXX20gs3n9x7Hv7gZRRstx8H7z7i3qlbXxYLDSrwuHJ299Y1EpGUWqLygF0XGxXx6sVj2Gcw2RXN7vkndOrW597ziId+Mfd9o4gNyuT+i4gbD99s33eyXkPUtlYkFOzevjYiNJTB+And48DABSM59O2b9/Fx4KxZp+Gpy/cv3Hx87vqjjTsO83hcKGepRAyHuvTof/Xe83MePudvPJ4+bwWFTMZrj/5DZi+d9TDQ+47v7Y/by9uezz3dvdzXbl/bqHlDItiNSzc2rdxckJf/+WxmoHxAgVw5e2XpzGXxsWhkjnM154VrFl57ePXy/UvHLh89efXE9UfXDpzd36Zja7jTEol0/98H9m7dK5fJQSIRiWBKgr9SGAwG86fAZoa/jZi5bEt0fCK4mjesffPUzkO717Zp39zGwdbYzNTI1MTCxrJBk7rrVs7xunxwaJ/OEEwoEi/btO/qzQdoEH/FGBWK+SWA2UQhk7xueTx/dB+cLq61Dp72WLFhY4s2raq6VnWq4gRb9do1+g4edOjMtZUb3PQNDCHY1Yunnj/xpoONXlx5NKQSBtwf9ZM/X8+gclVn56oOlas6ERuUibOLc+16dYaPHb33+JVGzVpDsPfvYu7cuKRSaX5Kk4tGQ8rLzSH2e/Ub0rJtMxNTE3NLc1NzI42anJaCfr/n8/UHj5xQu141ExNjCysLQ2MjoqEV808wMzer7FLZCe5y8VbFqaprlfqN642aPPLQhUNT5k4mqrrnFc8LJy5qSBqi5Y0AHigGg+Fz79Hf63cUCYtIZNKAEQOOXjoybf7U2vVrWdtZm5qZmlqY2jvad+ndZe+pvdPmTyOaWc4ePXfvxj0qDbXZEUlhisG6BYPBYErzW37y6VSpUPTXrqMRMehXvQ6tGrkf2ty0TROSXE6SSNAIFtiBTSYjSaSwVa1e5diOVSMHdIfABQLh6m2HEmPfI+lCACUAH2A+j2SgR+Jxy9YzUEhMBgoAG+yUV2barmskPW1SenwSh036wu+IkAEiwXI6XaCccDnapHhfaiCi01AwfW1SkH/IHrYAvgaYXCKR1PfZQ6j/NDp92tzljZs1EIs1ErFKKvm4gRMCDx87ccDQsbAjlUru3LwsFimIJhcWm6qvT+J8mJSWxWLrG5D0DdBcWIRPScAsA38en6pvQNXTp3J5VHr583FRKFQ9PRSSxaJC9aRSUXhw8iAWvczE0UmLE+dwwQ78pz9gq1RKqUQhheepRIEQW5FQbe9gNWTUJCL/wYF++XkFVOrHa2FDyWhzArn9/AVDXBFfe4FcLioE9AgiHwoUIIfLI4KZmlvx2FDIULCQIBQsiantN8XmcM0srFkMdIhKJX0+rAVuLpQbkT7kgc1BnZd0xz4FzgsFBWEgJJFVcBLF+FPK8DdCoYB7DRW8jE0sEvP5/DnL54yYMJwIfO7Y+ZiImJL9u2h0WmpS6p4te3Kzc8E5cMTAlZtW2NrbSsQSiUQqk8rkgEwOO5Aak82csXj6gOH9IaRUKj1z5GxaShqkoE3pE+BWMllMHp+nZ6Cnb6DH1+dzOJwyQ34OjUZjc9gQBSJCCpBOSaH1BUCecXlciKWnrwenK6/ylATqMJSGLpaBHuyAs7yn+9uhrlmzRreLwfwoBQUFbm5uUB3nzJmjD58sDOY3RyaTeXh48Hi8763PSlFKUewxEpVjWGkImcokaf6tfhrwLWAw7j94tnH3CblCUcnW6ujfK6rUdiUViZEZUiYKBZ3Pa1zL5dWb0OS0zOzcfGND/VbNGyD5gUwVqqhI9PyZX+jbiKy0TAtTIzBkSydFpbx79/7509fR4THwzTQyNigdAGkM1JvofVxi4JvQ0LfhSe8S5WKJiYEeGRSRSlU6PIWSlJj65PFLSJCkVJkYG5YWG2QyWBL+fm8DA0KSE5JNDPSZbFbpRCCfXLYotyA0JCooIDgqLDovK5cJNq6Jodag+/8PUyZTNGp5wXt3slrMdx5P59nq/P9dguNy0vJk1iYcB2sj5beNc6DSKPm5OZfOH0tLSbK1d5wwbb6BobGyrAmp1Gqwj+HW0O96XlMq5GDLtOvck6/HBf/IsDC/l69fv3gW6O8LIY1MTFVKWnholEZDNjI2Lr5X8L0AO57OIKcmp4cEBQcFBMZGxeblFjCZHCMTDpSh6tM8UyjkIqHgic+jsJBwpVJlZW0OGQv09w947Z+Tncvh8DlcTnGvKCJxGp2clJgcHPj27Zu372LeCQViHh/sPKZKDTfomwoEgKRoNHJY8NuHXp5qtbpa9doduvQCgaEuKwUKmaJQqnzueYqKhKBwuvUZbGRsqG11QdU4PCT4te9ruEw2h6enzy/9MFHJgsKC548fhwWHwxWZmJozGDRhYeHLZ89Dg8N8nz0KDwmEYCZmFhKJMiwkMj42Pib6XVhwxNOH95KTEsCONDExy87Kg0OiIomJmTlxUgD0G4dLgf8S3iW8DQgMDgpJiHsvFkn19Q35fJpKRSn1Mw1cb3ZW5lOfR5FhUZBVcwsDKLpXL15AMQoFIr6eAYPJ/MYChLsmlSlDYjOg6NrUteGwvsm2/umEpLwslGdb8p1M+NaqL86VAkY8vGEe3PYm+nS17dy2Vr1aSmXZUVQqFYPBcHZxfhvwNiM1o0hYZGlt2aBpA6J7Hqo5dNq1i9cun7kMztr1a63ausrU3BQ0jzZ2aSA1Fotlbmn+1PuZUCDMTM+0c7Sv26BOybnFtFqdo1Krk98nh4dEhLyB91tUQlwCnJrN4RgYGmjQPHZlf3SghnA5XJFIBDXwrX9weHB4emoG3EcjYyO4iuJrhGxDIbx+/trf1x9O16lHpxq1q8PLPzc3LzQoNNAvCB4l+DTAuUD2qODNUqoef4CY2TkrIwtOBLFiImPzcvKYTKahsSGZRP7eCdMoFKpYLozPCoXs4fnEMD8BPJ8Y5g8D3qqrV6++fv36xIkTR4wY8e2Tz/6y+cSoVPjcTlm44fiFG+BaOXfCuhWzSPAp+vKMRhQyicU6efLS1CWbpVJZ3ZpVb53aZWVvTZLJSRxWbFhMm/6TQdG4VnHwuXzQ3MYS+RcDVhGTsWnbwWWb9oFrw5JpyxZNRQGKvyk0Gqipx8/8zly69SowjGgFAuysLerXqja8f9d+3dqRmYyPaUKCDPrBoxemLt4EriUzxm5aNRsZyCU/wzRaQV5+r1HznvkFgcp64H6gbv0an6TAYuSmZ5+65HnPxzcgODK/UADeLCajdvUq7Vs0HDesr1NVRxS+nE/7z+Gnzif2w/zAfGI0OjU7I2P6+EEBr54ZGZkePe/ZuHljkajsuFQauSCv4OUzHw1JY2hoXLNOAz7Y4mrysnmT3c8c1gUqwYz5KxcuXydXqFFjDo1KpZFCAoOuuZ8J9H8RERaskKOJVkFWVKtep3GL1v2HjHGs7CAvMZswg0mNCgvv3aGBTCadPm/FmInTd21dd+Py2aIiIYvFrt+o2Zwl6xs2aSqXq8A+o9NIwYFBF84cfhvwOjoihDCSQAlUr1WvY9c+fQaN0NPjSKXfVCZgJrFYlAunTy6bOxFsu76DRm3adZTBoIN20oUoAZHJSaN6JyW8c3GtefTCHWtbGwVkCekc9aJZY6+7n4Zgbkcu9h88WCyGS/togLFY1CD/N0N6tZJIxPUaNT985oaVtfEb/7cj+rYvLMjTBSoBfHDLs1C79x2y88BZOClcOBQ1mUJ69fzpNffTb9+AagojwlhY2dSs3aBHvyGdu/djs+myDzUErpfNptz1vDVxeE9w7jtxtWq1qlvWrnhw1wOchkYmTVu2W7hiUyVHB4Xi6w/Rz51P7If53vnEFk1b7H3bG5zr/l47fMLw8pQGQKaQwRY/sf/EphWbobQbNW+05+QeQyMDeBuDGMjNyZ07fu7LZ6/gZi39a8m46eNkaIbscq1udMuUqu3r/w7yC6rTsE7H7h3qN64Pd5kw1OkMulQsfXDX2+fOw9ioOFBWxWLDzMKsSrUqLdq26Du0D+gQubz0zGZMFlNYKPS66eV1635UeFR6CppvA+51Fdcq9RrVGzJmcPXa1RXwcKrVkFXIhtvm3fu27YNL2H3CrWX7luePX/C+4x0cECyVoqIwszCvWa9G38F9OnTrAM5SIgSShdMlxidev+Dx8qlvRGikWITGX3G4HNeari3aNu83vJ+1rbVMKvt2AYLnE8NgMJgvAS/uCRMm5OXlzZ07t02bNnv27MnKytIdq5hQKYmJKc9fB8Guob5e13bN4Rq+IloA+IKq1B1aNnYCrUIiRccl+r8N162pj7qJUfg81NuHx+XA10IboTRM7bQzJXd00OlKmXzj9sN9Rs87fvEmIVogHTqdlpSacf3uo+HTlk9ZtDEvK5fE/KQ/GAN1FkfnArFB+JQCcsLloDYcPR635FhwlGcW843f2/7jFsxfs/PB09cgWiBXcFKpTP46MGzj7hM9R8y6dcsbNch8W9eI/xpgBvP1DWztHGA/Ly/76sVThQKpvkHZaykqFRoDQ6MBwwYMHDawbcd2XB6fEOl8vj6bwyU6LwFg+nC4PDaHw+FyCSMF7ppaoz57/MjEkb1OHNoZHOgHogUOM5ksoaDQ7+WTPdvWTRnd9/GDBwwGmQK18QNQIXl8NPNSQV7uuuXzzp04AKIFIkqlksCAl/DMwl2l0iignE8fOzxxeK/zJw5GhAaBUQWnZjBZOdmZTx7eXbFg8oLpo+Pj4kEnEMn+RBh0UkrS+/TUZNh3rVXP2MRUXcKiI2YygKKg0ehlGmxgMPK0y4nCRUGBQxi4KDMLS3AyPjwmcCFQnuBjCraqhRXsQ2rgD+EhfaKo9fV1s8+BEFUolPt3bp48ovflc8cI0QJh6HRGRloKSJEF00aumD85KyObWaI04LyoNxGbAxZ5dGToopmTICSkDz75eTnvYiLQjF7lvBD+axAiBNSFuaUZ7CQlJKUkpYByhuKiUCkgLaIjY8Dfwsq8QRPUlP3ldiqoqyCEpsydsv/svuUblzdp0QR8COOewWSkp2Ysm7188bTFt6/fiYmMAdECSoCY+iwrI+v5o+ebV21eNH1xclIK/dO3MYR5/+79gskLIfojr0cgWqBeQVxIOTo8+sKJC9NGTr93wwtueqnHnEanvY9PXDl31YZlG14/fy2Ty9jad29WRubDOw/nT15w4sAJcMKDqQ2OgH3I6lPvp9NHTt+zdU/AqzcgWqDCQETYCXgVsGuT2/SRM14+ecliM0ud7hvB724MBoMpg0qVKk2ZMgV2wsPDZ82a1bFjx927d2dkZBBHKxwUSnh0Qkw8GqHr4lypqqMd6Run/1cqrSzN6tWsBrtiidQ/OBL1pPqHRon2h95Ne46v2LK/UFhkoMcbPajH0Z2rrh/fdunw5sUzRjs72MnkisNnr81esU2QX4jGopTgB0/OZIS/DR81c/WTV6g7TaO61dcvmup+ePP149v3b13WpzOaqycy7v3E+eu97j0mMeCM2PAqjVqt5vJY7Tp1BwkBzgunDy2YOvrqxetZmVlcLoXLozKZaMADAIUJtwnusqAQbSKRCv0qTNKAT++Bww6dvjZh2nwizV4DRhw8fW3vscvtOvVUKFGPKTByzh07sHbJzIzUFAjQrFX7Zeu27ztxZfdR99kLV1erUQc8o8KCF88a/+jBfQZDtyQ8AbF/y+Oi57UL9Rs137L72P6T1+Yv27Bg+UaIqFCCfie7nzm6fvmcjPQUkEydu/dbu2XvvuNX9h67NGfxOteadSH6Pc8rKxZMSU5KBT2mTfU7ALOMjgDxi4ri48ZAQ0eysgTu544p5HIWm92+cy8ul6ku47eDL1e8j0eVSpK5hfWqDW4Hz1wbPGIi4Tli7LQjZ6/vPXFl7db9G3ceOXDyWtOW7cBfT99w/vINh89e33P00qARE8AkhaLSqJVH9m3bsWGFQFAAkq/3gOEbdx7ed+IqFPXkWUscnaoqFIorF06sWTozP6cAroI4BQGVRoOjpw7vDvT37dC19+6jF/cevzxu6txJMxebW1qBatWF+88Dt9jcytzcEk3PWFhQWNyUQaiCQni/kUhWNlaWtpaqkiq2HCCWgZG+qZmpUqEgGjcAEEISkfjAjgO3rt5SKpR2Dnbjpo/bdnDrnpO7dx3btWzD0rad26IJi0mkJ/efXDrlrtE2mxBx6Qx6WnLa6gVrHt57CA+plY3l8AnDtx/aDnHX/72uWSvUGpyalLph+YbgN8GlpnKWyWRHdh+5duGata3V2Klj3I7t2n3CbelfS+o2RM+RTCo7uONQ4OvAkkN6GAz6y6cvl89ZERkWBc6GTRsuWDV/57EdEBHy2aRlE/AMDQpdMmNpgG8ACOMfeA1j3YLBYDBlM2HCBFtb3eCEkJCQ2bNnd+3addeuXXl5ZXTb+JUgC0UTn5RKuFydHfT1+F9vbCGALxyTWbdGFcL1PjldKZGhJpcfBjJDp92+47NpzwkwbextLE+6rT15aPP4ScM7dG7Tp3/3zVuXe5z4u13zBhD27NU756/eRsPrS9imPwKNJswrWLn1INGwM25IL8+zu1esmdu7X5cOnVtPnTHm8skdO9bM1eNzM7JyV249kAm2BZIumE/RaFRKUrvOPQcMHwcusHLu3Lw0Y9yAsYO7Thk1/KDb7qA3bwryC1QqJZNF4X42RJv4Ybhm7TrdeneqUbs+4enkXK1Lj45denSrWs1Vo9YwGORAf7/9uzbK5TImmz1r4Zoj527MWTy/Y7cuPfr2WrYenJ79h4yBiOlpybu2rgF18fnyL4UF+Y2atd5zzH3s5HEdunZasHzZ2MmzwW4D/fvG32/P9vUyqcTA0Gjlxt37T16eOmd6h65duvfuuWzdysNnb/bqPwxSeP74wakje1Sqj+bdNyKXy+HshQVFYKHqtkJBAVirqWm3rt+cPWnIgzvXIdjAYePbduquUKBf2ImIP4BaTdI3MGzbsX3XHp2qVKtBeFarXrtLjw4du0Jx9e7eq1unrh2trNE7CkRagyYtuvbs0KVH9zr168N1gR370Ovu/h0bwFy2sLTevOvonqNnx02Z2KFLp179+6zbuunA6evNW6N+Prc93K9cPAUlUUoiQgUoLMjrN3j07iMXBg0fBDfxr207+g4aoUSjGr7t9fIfAEqJx+cZGKE2LqlEmvw+Ceo5lL9KqUpKSAIlD/62lez4fH5ZIrYMQJlANYNkdW70eqM9f+x76fQl2K9SrcqOw3+v+3vtoFGDQK507tlp2oJpe0/vmb5wGpIBULd9nmdnZhEyBs0PqCFdPOX+4hGa1rx2/Vq7ju/a6Lah39C+EHfs9LF7z+wdMnYIHAK5dfHkRbFIDBoJnARwCbnZuQ2aNDh47sD6net7D+zdoVuHGYtm7D7p1rpDKwgA9d/H6xFcI/EcQSVMTU7btmY7KCVwgrg6cH7/nGVzuvTqAhEhnwfPH5g0ZxKVSklJSjmw81B+bn7J030jWLdgMBhM2VhbW4N00Tm0vH37du7cua1atdqzZ09a2seFq389KlVufgGxa2jARx38vxUNqBRzU2NiNk9BUZEM9Y3+ByqCShEXFB5395RIZGwW86/F03oP6EZSKEmFQpJYQioSwY5rg1pu6xc4VbKB4CfdPbNSMlDfrX8CnfbkRcCdh+jb3LVds+1r5pnZWJIKBGhaAjhpgYDGYMyZPnrSiH5gjQWERN6494SkNdOI2JhiwCTlcNkLV2yaPm+5oREa1gX2U3hI4M1r59cvnz2iT9uebevOnTLi9NHDAa/fKBRKLo9ayvSXy1ViEUkuQ+NVAIVCLoabIFYrFCqwV+Co57ULmRlpcCMGDR8/Z8lqvh63IB+iqERFKkGh2sHJZvn6v1u1RTN0B/m/vH/nOtylkvY0wcCh4yo5WhcWqCGiUAgCBFmKMpnquvspEDwUCnni9AWjJ0yGM0LiEjFqEYLAjk42S9Zsr1UXLbtx2+NidGQEnf59dQDy06lZtTYNKndoUlW3Na7SsUnV7q1rTxsz8In3XTMLq8Vrti1ZsxUqP2Gz/hOg8CUSNRSg4sOIBdB74IQrggvXFizcMtQ/D0SjTCqFkheLVXIZsiMFAvE191NisYjJYs1evLbv4IEQUFCoLQ1tUdeuW23F+p0OlatCdCi35ORUOqO0TWhqbjF09GQDAzaEhzIUidRQ1rpjGC0gTalUKk/bpRbugqBQCH+hxsJ9EcPt0WJibgJhCGH/vSABqVS9i3kHqgCcQ8YMbti8oVAgLBIUScQSUBqF+YVcDmfw6MFVqqOfn/LzCnJz8inaPrR0Bj05MfnBLTStuamZycLVC5u0bAJRioQoLqgOQ2PDybMnObs4Q4B7N70iQiIIwVOMlY3Vkr+W1GlUV1AIH4ci4nT2DvZDxw7lai85PjYePOF0kE/4CzImNDAU/HsO6AmKxcjYCM4CAYiIIN5mLZrZsz8aOgX66uWzl3RtL8fvAusWDAaDKZfx48cXN7kUQ/Qc69Gjx+7du7Ozs3W+vxAyWaNU5YMw+FHgk0NYhhKpDIzRf9SFik4PjYh7ph1p06l1kyG9O4KmQh93GlW3wQdVJqtRt3qPji0hTEhErP/bCNTC88ONPFSqWiq77f0cFBeXw54yqr+hrSWa8bn4jLBBHlisUQO6W1uYgvVwy/uZFIoL/DGfoZCr9PX1Fq786+Dp66MnziLsWoKiImFK8vvbHu4r5k8e3rfdvCnD79/xolLJtLKmIf4cKpWUnpri/+oZ7JuYWQwdOQksManko3EPtwZMajMLo0EjJxCjQZ4/ui8QiEpJIzMLS9eatRVoDgidIahRqyHxlORE/5co8WrV6/QbMgYMMLCxaWg5e7SBhgExVcnRsmffoRAmNTnx9YvHUNV1Vf/bkEklOdmZn2/5eTmg0CCAvr6hoaGxWqWE/PxC6HRSTGQ4URpNmrft2W+oWo2afkqWhlRGqlmnRofOyIiMjY4IefP680fQzt6pkmNleJiIooa/xWWOISBaV8ws0PgWQFRUBIqFTCGrlCphge6drKfH/2HdAiiUyi69Ou89tWfz3s3tu7aXiqUlW2MACMDX45uamcK+XC4HkQA7FNQlkxISGJLw7j04m7dpXrdRXZArJeOC09rOukP3Dta2VjXq1ICco6MlqkHTVk2r13IVFYmKMw87CrmiUmUHY1NjcBYJhDKpDFQLCB5QJk8ePEETdRgZDhs3DEQRhAT/YiB9PUM9kDRcLkehUPg+eSmVSEs93V8F6xYMBoMpF2tr6+nTp+scnxIUFDR79uy2bduCesnNRdPz/0JKml7fZYcRFEeAzw9y/LBlok0oLPpdgaAIdqpVcaQy6EqRRCmTf7JJpGqVuoZLZfiWg1IKDIvW9mr77mzroFHzcvODwqNh18rc1NnBTiWWKCWyT08qU4lEZqZG1trhs+/ep6Zn5SA7GlMWCoVKIde0aN1i7Va3U5e9Tl2+P3fJ+kbNWpuZWxJyAigSCm7fuDRj7IA92/+SSb9lbW9kRr2LjY6LiQRH3fqN7RycZGVN1KRUkGrVaeio1UvRkWEZqcmlfpOt5OAMsqfU7/4o8Ziod7Eo8arVa+kbGAqFSrnsE6RS+KeC8xJR4qIj5FLVdz0vHA7XEkw8Gzsr6082CysbI2NkNcZGhy+ZPW7KqH7Bb9+WHOz+b4KuiEyKi4kgJiJzcnZhMlliUenSkEjkCqXa2QXNciuXy8JDg5RKNICHSITAwtJaT9/wH7cb/clAaYOtn52pm7iFwWRAGYJxD38ZH4aLyORytUb9A29mgBAM9g72Hbp1GD5+mIW1BdJFWp3AZDK1q6Pow45Q2/wCIeGQ7kQU0DOKyNAoQjw0at6IzWaDmkKHPgCiC3xGTBh+/Orx3SfcatatCYGL3/+QjkuNqnQGvVQPN7gWBp3O0A5rkUiksEFQuN7MjKykBDTGElScpbUFSDiQNJ8glUlEEksbS0sbKwgWHhxeWFD4vV3FsG7B/EwMDdHyyRgMAG/bMoFXfJmovga8rMtEURbyctC9Pb+ItATg7Nu3b9WqH39yLkV4eDihXvbs2QPqha2H5jv6t4EPG41mZqx7+tAMrd8pPGQKNAMm7LDZLO2MXj8MGT6ViSnpRGoPnr4aM3MVbKNnr/5km7VqzNRlp909Uc5JpLSMbDQG+Yc+6ggyJTs3PzcPjX/NLxSs3Hpg7NRlo+d8esbZq8dMXzFrxbb3yWjUrEBYRITHlAc8qSKRSqnQVHK0b9+l46yFK85c9b7pE7j3+OWJ0xc0ad6GmOFKJCrauXnViUO7NKSvjBUhbm9WZrpMiqwre4fKbDaa0Qj5fgr4GRgZgxKAfVGRsCAvr3jeOGK4iL6hEcQtWckJQy01ORFeCLAT+jZgyZwJC2eMXjRzbKlt7pQxp47s0UYiZWdlSCRinZH3bXTs1vf+i0gfv9gHL6M+bq+i7j0Pu3znxbqt+6q4VIdgL556r140I+FdAqOs1Tb/75DJKiWUxnuiNF69eLxwxpgySmPGmLmTR18+dxxeyhAsKyOtZFsr8Qhb2diDyUv4YMoGjS7UiLWaAQAhQTSt0Og0fQPd56Awv/AbB7eUB3zUREXwtInodLqevh6LxRSLxcnvk30f+7qfvrRro9viaYuD/FErdzFQsZVyZVYGElSgPYzNjImsEkeLgRttamZauWplAyMDordwMfBE8/i8MmcehnSIpIivM/Iik3KysgvyUHfl7Kzsrau3LZyycNmsZctmlthmLVs4deHf63fkZOVAMBAtggLBl98bn4PXb8H8BBISEpydnaH29+/fn8vlllepyvT/ag38rlg/5dTf6w/8++etOIkAv2ni3xIYXv3wKg8ODs7MzNR5lU+TJk0GdanS2+70v71+CxheTMbeA2dmLt8KriG9O51yW8tgs7QdtL4GfDNo1HVb9q/edghcYwb1PLZzFRrSy6C/i4zrPnJO9Lv3jepW9zy108za4uNKKYD2pDvcjs9fuxNc21fNmT9nPBrHotHMX71jx6GzRKhvYUifTuf3bSAz0PTEx09dmTB/PdyCNfMnr148FT6qaCsGdUUoGDJ52b3Hvg62Vh4nd9Sq4wqx3voH9xk3PzHlW2d7Y7OYd8/tad2+GUlc7soMP85vu34LQGegXz/hAZDLoOA/xgLbAp4FVFnQVFqk3BzJiyfeh/dsDXj9HI5aWNocOO1Rr0F99LOyRsNiUa9fujh7EuqONW/ZhlkLlynk6CYymJSzx48snzcJ9mfMXzlv6TrtLK+l7TkanSoWiedOHv7grgdfz2D3kYsdunaGvERHRA7t0yY3O6trr4Fb95zgcLnFPx5D3iDxg247Nq3WzWP2LTRs2vLgKQ9DI6MyF2MhgJRLrt/Sb8iYrbuPMxhkrSL4BAoVLWAf6B82b+rIyLC34DNp5qLFqzZqNKjo4Pu4atG0C6cOsTnc7ftO9+rXTyKBC//4qoFCCw58O25IV1BTLdp0cjt8wcjYSKFAzUEMBuXYgT3rls2CYBv+PjxqwkSJtnMd2MeQwKJZY69ePGliag6SsnmrlnCIQqHC07ll3aLDe7Zp0/4mOnfvu+vwRSYT/XDhfe/ejPGDQDROm7t8/rK/4I1YsjJ8O3/8+i0AfCAEhYKZY2a9fIom4169ddWw8cNAZoDeO7bn+OZVmyFMh27tdxzZwWQyCSX5ZShUCp1Gh5A6PaCFTIEazhAWCv1f+D33eZGVmVVYIMjLyUtOTCZ6hRVjZmG2+8Tuhs0aQApFAtGSGUse3H6gZ6B38OyBxi0bf/laAHjS4So+rN9C335oe4/+PYiWnGIgJ0nxSZOGTnoXE1+9dvXdJ3fbV7ID3fLo/uN5E+dBJnXhvoaRseHxq8dr1atVKv3PKbl+C9YtmJ9AXFwc6BadA4P5D9OmnsGxGQW/YN1JFvP+vSe9xsyVyRWuVRy9Luy1qWTzicwoDxpNKZUOmLj4htcTcG1cMn3pgsmo9YPJ+GHdsnDNzu0Hz4Ch62hvo6+vRwLDtJzvDPFLd89OrVbOmUCm08Bq+DHdEhwQArrlfXK6Pp/nVMkG2dflfNrQCcloiZttq2bXrltizcqfyG+qW8AeUKkKC/MFhYVwX8wsrNhsdpmrwgN0OpXDJYWHvJs/bURQwCvwmb9sw8wFyxTaZSV/om7RNzDcc/Ry207twYSL+aBbuvQcsG3vyc91y6HdOzeumgdOS2tbUzOzkhWnTOo1bArZ4/P5XxhrDil/+7qTEJjDpbifPrt03iSZVOJao87hs562lWyUCqjF/7Zu2bp+yaHdWyC6rb2jvqHBVycAa92+68wFq8AKZzA+6papc5YtWL4B6xbiaJkwWcz42IRpI6fHRcXqG+i7Hd/Vsn1LmVQGKuXBnQfzJy8UCYtq1q2x78w+S2tL+ddeOKBPpGKpUFhkYmrM4/MgM1DJQUvQ6DT/F/57t+0L8g8qlR9jU2MjEyN7R/u4yNj38YkldYugQLh4+iKfe4/0DfUPnz/UoGkD6Ye5lUsB9QQ1ZmqX7SqpW7Yd3NZzQM9v1C2PHzyZN2EeqDjID1ysLnT5mFmYLl2/1MHZ4avFgnUL5ieTl5e3fft2olm5GKhdur1P+WH/74r4LYG/K0Hgx070U84CfIv/d8X9JQmWpNj/hyOWokz/Up7fEqYYwh/e/nv27ImMRP3mv4Crq+v06dM7NTGjBA/8BbqFTs9My+g9dv7rwDAWk3F+/4a+/bujyYZKQaWQwCqB1z4IDOLHPDYrKiSq28jZCUmpxkb6149ub9m2CUkiA/+4CKRbYuK/pFt27T4xd80OcJXULQvW7Pj7IFqu+8zudUNH9UdD5Mv80IDVBQID3hsgk1AHFbRe/rGTlycu+OsLukVQUDh0yvI7Ps8/aW8B3TJ2fmJKeqsm9e6ec+OYmqCTfg6cghjTAmnKkS2p9f3Z/J66BdQCGJyVcoEAACktSURBVBzrl81+/vgBl8vdsvtEkxbNCPu4TODp4PIoR/ftX7VoBtjfQ0ZNWrt1HxWuXa0qT7cwmZTzp44vmT0e9qfMWrJw1SZ1ObqlSCCcPXnYo/u3jIxMDp7xaNayOciEb9AtOzauQu0tC5ZvnLdsqUKOFlb9HKh0yODXkFRKqCZfKRlI+dt1C8BmU4ODgieP7J2anGhmbrnvxNXGzZsqoK6p1CsXTr14+vAXdEtIUDDolqzM9J+kWxYf2r0VzNCNO4+MnjgONaCV/xRCaYC4Ik4H14t1y7frFpD3Xre85k2cD8a9UxWngxcOOjhWkslkSM/EJUwZOiU+Nt7AyGD38d3N2zb7anMHi816dP/xro27Kldxqlm3Zo8BPQwMDCBXLx77ggLJSEPN/pbWFrXr1wZ9YmhsZFfJ1qGyQ2WXynDjZo2d9cjr8UfdolCCfFo+e7nn1VscLmfX8Z0dunYos2WDSqOCyoJHUaFQQEX9cd1y/8ncCXOFAmGXPl12HPqbxWIp4Rn7DAqZTKXR0JOvUsvl8m+RIVi3YDAYzLcSEBDQsWPHggLdLMOfU7ly5YkTJw4ePNje3l5TGJRwrd4v0C0UioZCXrFhz0a34+Dq06XNxUObmVw2ss6LodOTE1Ou3PJuUq9mo/o1qRw2EgwUytpNe9ftOKpWq1s0ruN5apeBiSGKxWImxiX2GDknLDqucb0aoFtMrcxL6xY6bd3m/au3ow5mOt0CEem0LTuOLNmAhhCsmjdx7fKZSCB9bjGRyWqFQiqTs1kfVk2Gv6C4LtwYPXs1GIXrFk5duXByad1Cp2enZ3UdMetNSKSDnbXHib+RbiGTE2ITuo+YHRmbUMXJ/u7Z3Y7VKpOkunl4SwF2A5yOyWSgLJUtV/8xv6luoVGlUtmsiYO9794A519/Hxo9YZJUWoauKIbDod6+cXPamH4qlWrQ8PHrth8A86I83QIJMVnUh/fuTRvbTyqRdOs1aPu+U0w2q1h7FMNgUJOTkqaM6hseEmhlbXf84p1qNauDqfIF3QJ1gMWkuJ89vXDGaHANHD5u086jYL2DLiKOFwO1TKVSSyRiJpMFNr3Ot3ygtnyXboFrDwsJhcwnvX9nYGi099jlVu3baWca06xbNufUkd0cDm/7/tM9+/YtpVvYHOrLpy8mjexVkJ/3D3ULisKkHNy1fdOahRBs0oxFy9ZvgduoKqM0yGg0IBjZTCZqpfxwvVi3fKNuQbeARFq/5K9zx87BTr+h/dbtWEuj0eCJgEPwd92i9e6n3eHQ2GljFq9dDDsle3+VAqJAndy8asvxfeg1XqterSPuh03NTfNz8xdOXeRzzwfuTs+BPSfPmVTJsZKevh6FSgFxAhv4FxYUzh4/56n302LdQoyw37h8w+kjZ+l0+qY9G/sNg0cPPdLE6QjgUGRY5MWT7pbWlg2a1K/buC6NSt216ft0C8gnyMNbv6AZo2dmpGdWq1nt6KUjFlYWZTakaEgaqVgKYunbh06V1C3fNxoGg8Fg/lPAK37Dhg3liZZq1arB0WfPni1atAhEC/iU1wr/f0etJtNoQ3t3crBD87R4PX557spteNnDl5A4juw1KuXeI995a3a27j9p9KxVga/fkricly8CTlz0BNEC38sJQ3sbmBmjpg9AreGwmbDBLphrys+/tRSyWiqLjk/UOQngi0ihVK/qCB88cL0OCivKK0A/5xLyo3gDaNRtB8606T9pyNRlD568RvkEFUEm6/G4xMQARWJxGbqCTk3Lyk5J+3Qci1JlaWZS2QFNV52clun3Nhx5ak2tTzYGPfZdYp+x87sNn7Vm+6G8AkGpdfr/44A1z+UyGzRqTji9bl3LzS1kMMvVdsjoJ5OSE+MJO8zEzIKJbvpnArUEcE/sHZxsbB1gPzjILz0tucw5IKAuxEaFJyW8g/1KTs7mljZl/Wj7KfCgakiVq7qamqNly98GvEpNToTqDxX7EzQaOp1828N9aK9WsycOue1xCcwggEjjpwClUiQUgsUP+3x9AyNjM2SmaTRUGpnNQetdqFRo2hA456enRa60lESxCE3E9w+B00E2oDRYbDT5W2hwQG5OPtwsXSF8AA6B3QhSanjftnMmD3vi4wVm888tjT8eJosZ+jYUFAXaZzPbdmnD5rCJJwL+stnsjj06cvnovt++difIP4i4I+WhTS3svna5FaD/8H4mZmgNpbiYOGLMfdUaLrOXzKpVtxZY/EKBsCCvoEhYBB8dtUYtFApzsz+Z1hKqAY1Oc3JxhkcV1GlIUKhSofhcq0OYkDchF05c2PHXjpdPtQuq/FAd0Kg1FjaW5tboAUxNSo2JjIVz6apaCUDzhASEjB0wDhTOyQOnpFIZof2+HaxbMBgMplweP37s6empc5SgSpUqmzdvvnfv3rJlyyws0Jv61yNX1KhZberoAbArkcpWbD1w/cpdEhiGLCYypgCF0t7GsnXTegqF8tzVu33GzV80f/3MFdsSU9AUW326tBnQqxN8bJF1CWg0oB+I38PSMnNS0rOQlV/8OYMPG4cTEZPwHMRPKVSqejVcqjsj2xSO3rz/FPVMK/llQnHZCTEJpy7d8n8bcdnTWwxiD/KpPS2TCd81ZMyGRcahlftLSguwQykUnxcBufkCnQ+BSsXS53dpi5o1JBLpyUueBRnZJK3i+og2nYse90DR+bzw9wsKZ5UK8J8HGf4kUos2nWxsK8HOy2c+x/b9LRXLODwqnU4tac7CPvjw+OSo8BiPS2fAh8fjN2zSEm4y2CVEmGLAdimOCpXL2ta+Tv3GsJ+emnzz2gU4RGd8YrWwWFRRkey6+xmhEE341qR5GwMj/c8bCj4HEndydqlVB60p+S4u2rOsxNlsSlZG7sUzRyJC33rdvpafl0NnUH5WuxsUC4tNVSjQ2pS5uWhZJxsbewsra9WH4V18PppdSiaTxUaHQ2GXtCCZLIpErHrsfUdeZv/G70epJLnWqOvsglbZDwp45X3XAz2FJSecJYOOIie8S7h28VTo24C7nlckYhGdgfvgfBPaR4DO1+ODgb5rw670VPQKbdqyaZMWTZTE7z5a4G42bNqgQ7cOsJ+VkbVt7fboiCgen0dn0EvpQ3jTgn9KYsr2ddvhL/jUaVCnXed2xCxk+bn5RJuPmbmpkYkR7CuVyuI7BTkBnj18lhCbQPgQiaOHkYwabcwtzcH55P5j0BIsNqvkqRkMBiifF4/Rir1wqFb9WhQqBRQIcfS7AJ1mambaoGkD2BcUCjwuXgdlxWJ90sIGp4MyuXnFMzggGDIcHxcP7+HvrXJYt2AwGEzZwHt/x44dpZr1nZycNm3a5OPjs3jxYjs7O51vRUD7lZo0csCQ3p3AlZ6ZM27e2g1b9qcnpSHpYqBH4nI69e/62POk56kdVZ3sk9Mytx048yYkEuynVk3qbVg6nWuor2tsAdQqvh6vhgta6SIjK/eku6daKCbp65HYLEiHpM/PSEhate1gUupnU3gplFa2ViMGdINdkViyYsv++3d8UCw9PvrLYUNO8tMz1+w4HKn9yvbq1Kpdy0ZoqAF8vTSaSjaWRpANEsk/OOLOw+co5zyuLjqL+eCOz85D50o3/qCI6u7tW9SqhmYHefDk9cot+wVZecQlgyFM0uPBB/O258MDp65CAA6bNWlEX07Ji8VokSs0rjVrDxoxAfaVSsUBt02LZ0/0830tFok5HIqhEdXQmAp/YV8kKnpw13vx7HFhIYEQuHWHrg2boiEonyMWidAd0KeAIAEjjMNldO8ziM/XV6tVpw67nTtxAsLoG1DZbEiWCjsgWg64bbl3C92pSo7OHbv1paDJW0vLoc9RqdT6Brxe/YczmCy1SnXi0C73c+fAQiMSZ39I/PjBHWi5SRKpZp0GHbr2RibTNyReDIPJNDSiGxmTUGkUb9pi4XIphfmC44d2Xzx1GNVJEqlT937GJoZKBQgX1ADiXNWVWP3mwR2PsJBwfX3U0Q7yBhmDMGeO7bt59bz2JD8BSNDS2rLPgOGwL5WId21ZfffmbSa6EVQQV3BeAwOQcPl7d6yPjkSrm7du36Vlm/Zfb9f6j8Hhcgz1DA2NSmzGhvqG+mwOGx4KsLwXTVv84rEvhLSwshg3bSwcLTmiA74dXD4X/B2rOIIz8HXg/EkL7njckYjEoHn09PVAq+jp8/UN4HFQv3z6ClJ7+eQlhAT/SbMnWtpYKkAHa500bdNkXHRceEg4h8fh8rggCSB7xFTLNy7dcNu0W6wd0AhJwcMLOwCIqCrVnNt1aQv7iQlJuza6pSSlwukgIqgU1NOMQr567toTbzQpS5OWTeo0rFPqe/ftQERQX936dDXXrpF1+9qdA38fLCoSEcVFnI4Mpzt/zcPdAwJAWfUd0ofJZH7+Y8eXoa5Zs0a3i8FgMJgSPHjwYPPmzcSXA6hWrdrcuXN37drVrVs3vXLWaVGKUopij5GoHMNKQ8hU5neZRD8BlZqlx2vVuF5GVnZIRKxUJvd54e/16GV6akba+5T05LT30fGhETHxiSnv3qeiJhQtNBoV7Pg+fbuQwMpDPw5rf/3SkMigGZTKa3cfKZWqoNDo5NQMDp2mksoS3yffvvVwyV97Hjx97VK5kkKplMnknVo3adakHvrRG6JTqaCLYt8lRcW9LygU3n/8Mi8rR6NQqCSytNRMb6+nKzbvvX4X2Y42lma71s6v7FJZN4xeA1amXnhkXGBolFgi9QsKlxeJWDSKqEAYEhJx9PilpRv3CkVip0o2OXkFhnp6Q/p0NrcwRSdVqw3MTEz0ePce+0Jm/N6Gvw2N0kikKrlCJBCGhEYePua+auuBrNx8OMnkkf2mTxiMGo+IK/3pkCkatbzgvTtZLeY7j6fzUAe2f5/guJy0PJm1CcfB2kj5De0VCI2GSqW4uNbISE+LiggBewL+3rxyPjw06F3cu7C3YW9eB/q99Hv04P6Rfdv3/b0hJQmtw129Vt3Vm/ZY2VgTg+8BGo2Skpx828Ndo1bn5+VoNIyM9CxxkdTYxEyjJtva2xcJiwJeP5dKJU987qWlJKmVFJlMlZ6W/vzx0z1/rz93Yj+oGpAfi1dvadOhk1KhAag0Sm52ztWLJyViUeWqrp269aEzGKV+GCaTyJUcnXIyM0KD30Cw54/up6Yky6UamVyZnZnt+/TF7m3rLp4+AtcJdh8k3rh5s+I8lweZTKbRyGHBbx96oe6UdDpDVCRH5fDKP+B1ALG9efXG/7U/FMuBXVsg83I5GlvVtFX72YtWszlcYrIyCpXC4eqBZMpIT83NyQoPeaNSM0DO5GbnvvZ9fdBt88Hdm41NzY1MzASFBXaVnLr2HADWnlqtgQxQqeSgAL8nD+9COu0796xdr75SiS6caLF5cPdGZNhbuKJuvQfZ2dsTh4ijDk5Vkt8nxEZHFAkFzx55ZWVky+UaqVSZkZbhc//Bzs0r73kifWhmbrF83Q6XGq5ymRreAXC98XFxd25eVsjlDZu0bNaqPYT5sXYYMIulMmVIbAYUXZu6NhzWr+mZGZLyslCebcl3MuFbq7445hAKDV74D257x8fGgxO0QVp6mp+v/5vXb4gt8NUbv+d+YOifOnQaHoL32qXoQVcsWreoc8/OELdUQYFWt7KxsrW38fMNgGqflZHl5ekVERKZmgQv5fTkhOTI8OhnD5+eP37BbZPbuxjUN5LNZs9bMbfP4D6gBKCGQ62GmgB1DKIIBUKIKxFLVEoV7KP1W56+OnHgBMQtEhTpGejJtOP62nZu61TFEaJDsTNZTFt7W7gEqGlwUeHB4XK5XKVUFuTlhwSGHN934ujeoxKx1MTMZNHahS6uLnAJUAivn7/29/WnUqmdenSq6lq1ZCMSQKVRC/MLPa965ufmm1mYde3TFbQQnA6wtLKk0+kvn76EKAEvA+CMUrFUIVcU5BcEB8Dpjh/aeVCiHWQ4YeaE3gN7Qfl8S9WiUKhiuTA+KxT1r/yxuojBYDB/NvD6HjRokIcH+mXIycmJGHlfqRLqQvMFJJkv0+80+wXj8kvCYooKhW6Hz+0/cSk1A/VXIWAy6PBBkpQYsE7X9htRKFV6fO7AHh3mTB5eo4YLkgHET240qkwiXbTebffRi8gJH1QW09rCrEAgBNkAzmF9u4wZ1HP6si2xCUm6cfmyD1OHsZgp75NnLd92/e4j5CSRGHS6rbW5XK5I1k6JA9jbWO5cN69vr85Q1h8lBJMRERY9euaqgBDdBG4WZsYcNislLVOuUMIl7N24RCAsmr92J0S/eWonGpdPDP0EG45KPXXu+qL1u7Ny0TLhAMTlczlQCKCCCJ+RA7rtXDvfGNROWQNGfw6/8/otAJNJzcvN37tjw4VTh7463KJl286LV22pWa+2rMQoczqDmpTwfsrovsQyJsiHzhgyauLKDW7aSVZJYMC5bVt75themXY8GBgxNnYOCoU8Iw31kAGMTc1mLVg1cvxUjYZM2P0MJvVL4/I/AMHAltq0ZuGls8d0XiCP7SqBqZOarBuLxdfTn7d0/agJ00Cbfz5wvxSQt5Lj8nW+X6NR01Zrt+53rVldJtUVC9hbDCblzo3rqxfPyMpMI4JZWaPRzKkpaIlxa1v71Zv3et/1gJw3b91x95GLPzwuHyWNIDNZlJSk1L9WzLl78wrhRaPRLW1swaZMT0UnBSysbJat296z72ClElmQxPX+YePyL/rtjct/W8OidXXrJgqVoriifg4Uaclx+d+CnYPdrCWzevTvAS8xMNx1viUgU8hMBvP1S78d63aAKa/z1cJis8CmLxnL0dlx+oJpPQb0gHtRXL0ZTMZT76fL56zI+NC+bWxizONzhYKiPO27DvTVxNkToI7t3rIHFPKm3RsHjBgAGoaw8OEsga8D1y5aF/Y2TBsbTUDMZLEgNeJXOVMz08XrF/Ue1FuJnKCTv3s+MbtKtsQQfBqNBo/JqUOn9m8/AI85Ed7c0pzJZKalphH6Bz5DIyeOmL10Nug9IgNfhUahpxe8fxJ9mUnj4PYWDAaDKQMvL69Vq1ZVqVJl7ty5u3fv7tq1q4GBge5Y+fzi9hYCpYrBZrVs1qBbm2ZgtYPJrlAq4S/Yf8QkSHo8bmUH2y5tm+5YO3/k4J7p6dkRsQlBYdHX7/jk5uTVrOLE0+MhIaHW0Fisdk3rm5kYpaRnFQqLpDJ5XoEAknKqZDN7wpBNK2fDl3XHoXOQfotGdVq3agynJrIAO3omRj3aNTMzNcorFIjFUpFYkl8gEAhFcNDR3rpHh5a7Nyxq07Yp6qxVLFoAlcrU0hxOKpPJs3Pz4aRFIgn8B1/QJnVrbFszb8To/o98fH1e+MPljB7Uw9LaXHdSSIRMrlO3RqtGtWVSRZFYXCCAuGLIMGTPQI9fvarjijkTVs+fyDc2/D+KFuD3bW/RolJpeHxOi9adwPgGAw/9iKpWSSUfDRewwyytbGvWaTB93vJZi9ZUcrKXf7DOCcD6NTA0NDWziIkKz81BzXpaq5fcrfdANpetVKg4HFazVh2dKlctLMyXSESgjgSF+UVCARjNdpWc2nTsvmrDrq69+qrVOtECUOmUrIzMYwd3gikGpnb3PoMYn7W3AJB5Pp/Tsm0Xe8cqBXk5oIskYpGgsEAoQKNlIGLTFm2Xr9/Rs/8QMolSnPgXgCzR6eQAv1cP75Uxzq0kYO2ZWVg5ObuMmzpvwfKNlRwryT6dZBlqqLOLa43a9fPzcgsK8iBnQqEAMmZgaNymQ7fVm3Y3bdnm8rnj8XHRhkYmvQcM53A4RHsLjUb2ffbkxRNkSbdo3bFB48YKBbpwsP/gr8fls3ExkXKZrNeAYQ6OIP8+lolKqTEy1m/VtpuZuaWgIF8iFaPSKICiRqUBWrF1u64rN7q17dBJO1wCRSSuNzoy4trFU+CsUate6/ZdYIc4+r1UkPaWpPx3aYUJekxjM327EoM7ygCKVC6Xe7h7EINMyoNKo4Kt7+js0G9o30VrFzdr3VStfU50h0uhfYigPrTp1AYeFolYCqUBDxT8LR6mYmhsCIplwPD+i9Yuata6GbxXASI2AGEqVa5UrWa1rMxsEbwQxRLYCgsKJRKJla1Vq/Ytl25YOnz8MJkU5ZxIsE3HVowPXbAgKdtKts3bNqfT6QX5BUJAUCQoEMBRU3NTyPyKTcvbdm4LJwUfqABQCI/vPw7yD4Irat+1XfVa1UupCyod/Tpw7vg5sUgCoqjXoF4GRgaEyoIUQLrUb1zftZarGF76YgmoF8gz5BYOwWVWr+U6e9nsMVPHsDnsbxQtAGQqszAxvTDBhGeN21swGAymNFKpdPny5SwWa/Lkyd81iKVCtLcQgE1Dp5OoFFFOXnB4bExCYmpalpqkMTcxcrCzru3qbGZjRYJPOIUizM47cf763hOXYxOSrMxNvC7srVHL9eP6JzQaiU7LSc3w9Q+OepcolyuqONo1rlfDvrIDfE8zk9PcbzwoLCrq2LJxk8Z1PuoWAjrEpYtz8/3fRkTFvc/KzaNRaSBa6tdyqVzFEeWwuH2mJGBZMOjwAYwIj/ELCk9Oz9Tn8VyrOjZvWIttZEhSKl/6vvF+7mfA5w/u3dHMXNtPrBgKxGWQVOq42Pig0OjElHSJTGZqZOBS2QHyzDYyQDM1f/Ov5j/Ib97eQgBWOOpRTyZlpufExUSkJL1PS0nSaNQ0OsPKxq6qSw1nl+psDhqGDjpEF6cEYGcwGOSE+Pf+r56mJaOIhsamfQaM4PG5xCB7SJ/BJImK5OEhQSBvMtNT6AyGrb1j9Zp1HZ2dqRSogBrC6iKgUsm5OTnXL50By9vJuVqHrr1odHp5A4iJxIuEsrDgN2DTZ6anUqk0EC3VatR2ca3FZJJlsk8S/zIgG8JDQh49uPWFKBwuz9zC2sGpSuWqrnw9JrEWiu5YCcAkZDHJIpE8+I1fZPjbgvw8YxOzajXq1K7XiMWmSMRK73s3YyLDbOwcu/ToBxYhse4nXPvbN/7PHnnBPoi6WnXqEp3BwMSEvw+9PKPCg9kcbteeA2zsbIv7iRVDo1PhecrPF4UE+cfHRoGSpFCotvYO1WvVc3ZxgaKG0ig5ggiuN+Hdu3u3rirk8vqNWjRp0QY8f8xWrCDtLUGJz26GnjLTs2lWuTeLzgYdrjvwGVCkoCW87zxMiEP9xMqEC/fa0szOwa6yS2W+Hh/sdbC/v6V8QDbQ6DT4uLyLjo+PfZeZniUUgFanWFiZ2zvau1R3AbMeNIZCXkZqkDEmiwkCIDw4PDo8Ojcnl0aj21WyBTEDggd0lFqlzs3OvXnFE9I0szDr0qsLylvxuxG9UxkUKiX5fXLo27DEd+9lMpmJmalrzWogMKCmgZN4muBEgJ+vf8BL1E+sQ7cOztWcS/cTo1JBh9y+djs/Lx+UT+deXfT19UoKLVA+DCYDLiQmIiYqIio9NUOpUJiYmlSuWrlmvZo8Pk8Omr7ke/uLoL5hZEpAwv3EgvB6Vm2wbsFgML83J06cOHLkyNChQ2fOnKnz+n7kcjkD7N0PwHcoMzPTxsZG5/5mKpBuIQDLhkpFMgCMUGI2IfhagOEu05rvxPsfDtFpSTHx7je9ORzW1FEDKNoZZNGhYiAMi4l0CCQItiroDRAAEAZ8+DykQMQStJX5YyakxtTGJWYVg08gil7OYpTFEAoEIhKZgZNKZUgXQSwOG23gKShCPp+fE+LSIS5csjbDKm10mTb6v8AfoVsIwF6g0ShQllCQ2rnlUKuKSoHuHrr/X7M8GEwqi6WLCGEFAjCPP6lXhMAgJpyDGwtVUi5DiqWMgfga9CO3nj66n3B2UdHXu8WXTBxAiUO2v0exEMB5WCwql6dzlgmReahlCjn6eVvnWw6QMajXkDd4biAs5EomheqMYvF4KM+QTpHw4wXC/2jeAjSbLkkkIknRCi3aA1q4PJQa2JxFAoj4yaGSQOmhp5D+oTSIhxiK+rPSgNMxGFQeHxW1REKSiH/8qakguiVHmH7k2V8kiqaFc19zPXul+ks/80Od5/K4JT8HpVBr1IRWAbsc6tL3WtFg09MZdNhoVJq2xUyj/JAa1Jwvp6at0pA1BuxoIKJCCQJArgCJD/E0NBoNtAqkCYkVFRV9rurR40ynMZlMUFCwD6eD6KBYPn8i2Bw2AKcQCUUQAALrDhBo0HgtOBdkA2RekbAIVNPn72GkXhgMOhPNSwnaA50O+B7FQkAhU6WKokeRlyXqwgG1pmHdgsFgfm9WrFixYcOG6dOn7927V+f1PcTFxV24cKFp06YdOqDZKv8hFU63fCPwWUJLMYJ9r80w/i78E/4g3YLB/BMqiG5Ra1SX/A/EF4bZ8Ks2cuwKWg0sct0xTIWHTmVGpr0Oz3jOoxmNb7EUdY7EYDCY3xcmEy3EUWqe+G9EJpOB7Fm9erVIhMZd/HcBoYJaM5RIwGDRgsFg/iAoZGpd+xZqJSmt8F2WIIlOLbctBVPRoFHoRdL8hOxQDVldw6ohh8HDugWDwfx3USgUWVlZqOEe9eX/z6PWrjGPwWAwfxaVzWo4Gdcg0ZShKc8F0nywhnUHMBUYCoWqVCtCU3xFqnw+xbiuXQvkSRzDYDCY/yA8Ho/NZoNu+bHmGgwGg8FUfKhkWvtq/Vhq/XxZ+pv33hJFEY2CW10qNFQKTaNWh6a8SMwPI6vpHV0HGnBMwB/rFgwG89ugVqsfPXo0c+bMli1bjhgx4s6dO+BD9BP7nPj4+EOHDo0aNapFixZt27adNm3a9evXhUKh7jCJdOzYsWbNmvn6+iqVSiLNffv26Y5pz/Xq1at169b17t0bUujevfvq1avBB48JxGAwmN8OM75Vp+oDaRpWpij+ZdydQkk2ncoE41h3GFNhoJApcGtkSknge5/YLDStWVOHTi6WdXVHif8wGAymgpObmztp0qT27dvv3bs3JCTEw8MDtMTkyZMTE3XLyRUjlUp37NjRpEmTKVOmXLlyJSIi4vnz5wcOHOjXrx+IkJiYGCJYRkZGaGioSCQCKQKJQJqpqanEoeTkZBA8TZs2Ba3y5MmT8PBw0EigYVq3br148WJJibUsMJiKDFk75wIZg/l16OpiBcDVqkHX6kNYVH6uNOlFzI2YjDdShRhMZBqVTiFTddnF/CJArqDJC2lMlUaVlBvlG3MzIT+EQqY1su3YqkoP3S3EugWDwfwWEAuqHDt2rFq1asePHwcd4u3tDT4gS06cOAEBtBNK6jh16tT8+fNBjWzYsOH+/fu+vr6gPXbu3Ono6Pjo0SM3NzelEs2aNX78+AcPHjRq1IhGo23btg3SnDFjBvgLhcK5c+eeO3cOdMvZs2chyosXL0C3zJw5U6VSgSK6d++e9jwYTIWnAhmNGMyvp7Zt84F1pphz7CQkQVDKwxexN0KTn6UXJIjlAjWafRs/ML8G+F6DhswSpkSm+b2M9fR7fydPnsqjG3R1HdGhWj+QNLpwcIdwnwcMBlPx8fLy6tGjh62t7dWrV+vW1bUXA4cPHwY5IZfLFy5cuHXrVvDJzc3t06cPiJDdu3eXWtHF3d19+PDhVapUARljamoKPmq1GpIFCQSypHgeZB8fn06dOhkZGcFOjRo1CE+CiRMnHj16dM6cOaCCdF6f8rvOg4z5iVSYeZBDk8RUtZTLZuIPPebXQCapVBqBSK7RqFaNafyr5kH+HIEk3y/RJyT5lVhdQKPTaBomlcSgkNEyI7oQmH8bjVqjUmmX91KpFXQSx9msVmP79pYG9rrjH8C6BYPBVHTgNTVjxoz9+/evWLFi/fr1Ol8tUql00KBBnp6eCxYs2LZtG/gUFBSAMysra9SoUYQ4KSYxMbFBgwY0Gg1UjZOTE/gUFRX179//0aNH169f7969OxEsKirq9u3blpaWw4YNI3yKOXHixLhx40aOHHnq1ClyWf0fsG7BVBDdcuRmWJKQJSrMV322/BwG868Br0kGnaFUypcNq2ViULGmP8kpyohMf5NamJBRkFQozqOzqRQqBa/s8gsgI9Uilyi4TH0zPSsLvp2LZT07o8q6o5+CdQsGg6noCASCrl27+vr6Xr58ecCAATrfD4CSWbVq1fz587dv367zKoESPphyeX5+fmRk5NWrV0F4gCDx9vb+gm4pBUQHdZSRkREQEHDkyJHHjx+PGTPm+PHjWLdgyqZi6JbEDEGhWKVS4RqI+cVoB1iRqtkbMujatforGEqVMl+cVSQTyJVStQav0PprIJModBqDy9QzYBuz6Bydb1lg3YLBYCo6qampXbp0iYiI8PHxad26tc73A4cPH548eXIp3ZKSkvLkyRN/f//g4ODw8HDQLcSYFgAUi5eX11d1S1BQ0PPnz0GrhISExMXFQUjwpFKpYAmOGzfu6NGjWLdgyqZi6BYMBoP588Dj8jEYTEUHpAIAOyUH3xfzuee9e/dA54wYMcLNze3Nmzd2dnYgTtavXw9OAwMDuVyuC1cOYrF4w4YNIJBmzZp1+vTp7Ozs+vXrT5gwYdeuXcTAfSIzGAwGg8Fg/k2wbsFgMBUdPp/P5XLVanVhYaHOqwRSqVS3pyU2NnbevHnh4eFDhw719vZ+/fq1l5fXxYsXV6xY0atXLxqNBunogpbDtWvXILBSqdy4cSNEf/bsmaen55EjR2bPnl2zZk1dIAwGg8FgMP8uWLdgMJiKDugWFxcX2AkLCyN8ShIVFQV/i3ttPXz4MDIyskWLFnv27Gnfvn21atWMjY2JQ9HR0QKBgEr9Uh9ruVx+5coV2FmwYMHSpUsbNWrk4OAAGSCOQgrwt8weYhgMBoPBYP6vYN2CwWAqOjQarW/fvqAWzpw5Ex8fr/PVEhgY6OnpCTvFWoJokzE0NCyWKwQikej48eMgSxgMRnFgjRbYAU/CR6FQEClYWFgQPsXAuQhJ82Xlg8FgMBgM5v8B1i0YDOY3oGPHjoMHD46IiJg0aZKvry9Ii9zcXG9v74kTJyYlJekCaalWrRrIEji0a9eu9PR0sVgMIV+/fj1mzJirV69SKJTi0TIAKBDwAa0CKefn54OqYbPZrq6ucOjw4cM+Pj7gCYInJSXl0qVLw4YNI86lVCrxjCYYDAaDwfzLYN2CwWB+A/h8/ubNm7t27frw4cOWLVt27969S5cuIGYyMjLat28PAUB7ECHbtWs3bdo0iUQyd+7cNm3a9OnTB4I1adLEz89v27Zt1atXB+2RnJxMBAaVAodgZ/ny5d26ddu3bx/ImFmzZtWrVy84OLhDhw5wxt69e7do0QJUk4ODw8aNGyFwbGxsmSNtMBgMBoPB/P+grlmzRreLwWAwFRgDAwNQEfb29iKRCEQICJVRo0bt37/fxsbGx8cHpEXbtm0hGIPBaNWqlaOjo0wmi46OTkhIgCjTp0/fsmULKBNwhoeH16xZs1GjRhCYTCbDPmiVd+/excXF6enp9erVy9zcHBQLj8cTCARhYWEgUZo3b7506dKVK1fWqVPn6dOnubm5EMDS0lKbr09QilKKYo+RqBzDSkPIVCZJ85U5ADB/IGSKRi0veO9OVov5zuPpPFudPwaDwWD+GXj9FgwG85sBgkQsFtNoNGK4PAiYoqIiFovFZrOJAARyuVwikcArjsPhFA9fIeKCk8vlEj4EQqFQqVRCmiBXike/QEgID54QuHi2ZVBN4AnBitMsCV6/BYPXb8FgMJj/E7ifGAaD+c1gMpmGhobFc3zR6XRwlhItAOgKfX19AwODkgKDiFtKtACQGpFmsWgBQPAQnsWiBYC4RkZGZYoWDAaDwWAw/z+wbsFgMBgMBoPBYDAVHaxbMBgMBoPBYDAYTEUH6xYMBoPBYDAYDAZT0cG6BYPBYDAYDAaDwVR0sG7BYDAYDAaDwWAwFR2sWzAYDAaDwWAwGExFB+sWDAaDwWAwGAwGU9HB605iMBjMT+PDupOmTh3ukfC6k/9NKDSSQvjOuwtZkY3XncRgMJifCNYtGAwG89MgdIuaZmBdfweZxiVpsG7570GmaZSi1DfzKMoCrFswGAzmJ4J1CwaDwfw0QLdk3GsmV5LUap0P5r8JhUJi0EgWXbBuwWAwmJ8GHt+CwWAwPx8y3v7bGwaDwWB+MiTS/wA5BrPKtic5lgAAAABJRU5ErkJggg==;" vertex="1" parent="1">
          <mxGeometry x="40" y="490" width="1085" height="414" as="geometry" />
        </mxCell>
        <mxCell id="m40AEBjQ_49BU9F84Wip-13" style="edgeStyle=orthogonalEdgeStyle;rounded=0;orthogonalLoop=1;jettySize=auto;html=1;fontSize=20;strokeWidth=2;" edge="1" parent="1" source="m40AEBjQ_49BU9F84Wip-2" target="m40AEBjQ_49BU9F84Wip-3">
          <mxGeometry relative="1" as="geometry" />
        </mxCell>
        <mxCell id="m40AEBjQ_49BU9F84Wip-16" style="edgeStyle=orthogonalEdgeStyle;rounded=0;orthogonalLoop=1;jettySize=auto;html=1;entryX=0;entryY=0.5;entryDx=0;entryDy=0;strokeWidth=2;fontSize=20;" edge="1" parent="1" target="m40AEBjQ_49BU9F84Wip-7">
          <mxGeometry relative="1" as="geometry">
            <mxPoint x="175" y="177" as="sourcePoint" />
            <mxPoint x="284" y="316.5" as="targetPoint" />
            <Array as="points">
              <mxPoint x="250" y="177" />
              <mxPoint x="250" y="317" />
            </Array>
          </mxGeometry>
        </mxCell>
        <mxCell id="m40AEBjQ_49BU9F84Wip-22" style="edgeStyle=orthogonalEdgeStyle;rounded=0;orthogonalLoop=1;jettySize=auto;html=1;entryX=0;entryY=0.5;entryDx=0;entryDy=0;strokeWidth=2;fontSize=20;" edge="1" parent="1">
          <mxGeometry relative="1" as="geometry">
            <mxPoint x="202" y="177" as="sourcePoint" />
            <mxPoint x="461" y="417" as="targetPoint" />
            <Array as="points">
              <mxPoint x="250" y="177" />
              <mxPoint x="250" y="417" />
            </Array>
          </mxGeometry>
        </mxCell>
        <mxCell id="m40AEBjQ_49BU9F84Wip-2" value="&lt;font style=&quot;font-size: 20px;&quot;&gt;Load RS0&lt;/font&gt;" style="rounded=0;whiteSpace=wrap;html=1;fillColor=#f8cecc;strokeColor=#b85450;strokeWidth=2;" vertex="1" parent="1">
          <mxGeometry x="32" y="132" width="170" height="90" as="geometry" />
        </mxCell>
        <mxCell id="m40AEBjQ_49BU9F84Wip-14" style="edgeStyle=orthogonalEdgeStyle;rounded=0;orthogonalLoop=1;jettySize=auto;html=1;entryX=0;entryY=0.5;entryDx=0;entryDy=0;strokeWidth=2;fontSize=20;" edge="1" parent="1" source="m40AEBjQ_49BU9F84Wip-3" target="m40AEBjQ_49BU9F84Wip-4">
          <mxGeometry relative="1" as="geometry" />
        </mxCell>
        <mxCell id="m40AEBjQ_49BU9F84Wip-3" value="" style="rounded=0;whiteSpace=wrap;html=1;fillColor=#dae8fc;strokeColor=#6c8ebf;strokeWidth=2;" vertex="1" parent="1">
          <mxGeometry x="356" y="112" width="20" height="130" as="geometry" />
        </mxCell>
        <mxCell id="m40AEBjQ_49BU9F84Wip-15" style="edgeStyle=orthogonalEdgeStyle;rounded=0;orthogonalLoop=1;jettySize=auto;html=1;entryX=0;entryY=0.5;entryDx=0;entryDy=0;strokeWidth=2;fontSize=20;" edge="1" parent="1" source="m40AEBjQ_49BU9F84Wip-4" target="m40AEBjQ_49BU9F84Wip-5">
          <mxGeometry relative="1" as="geometry" />
        </mxCell>
        <mxCell id="m40AEBjQ_49BU9F84Wip-28" style="edgeStyle=orthogonalEdgeStyle;rounded=0;orthogonalLoop=1;jettySize=auto;html=1;entryX=0;entryY=0.5;entryDx=0;entryDy=0;strokeWidth=2;fontSize=20;exitX=1;exitY=0.5;exitDx=0;exitDy=0;" edge="1" parent="1" source="m40AEBjQ_49BU9F84Wip-4">
          <mxGeometry relative="1" as="geometry">
            <mxPoint x="515" y="177" as="sourcePoint" />
            <mxPoint x="680" y="417" as="targetPoint" />
            <Array as="points">
              <mxPoint x="589" y="177" />
              <mxPoint x="589" y="417" />
            </Array>
          </mxGeometry>
        </mxCell>
        <mxCell id="m40AEBjQ_49BU9F84Wip-4" value="" style="rounded=0;whiteSpace=wrap;html=1;fillColor=#dae8fc;strokeColor=#6c8ebf;strokeWidth=2;" vertex="1" parent="1">
          <mxGeometry x="486" y="112" width="20" height="130" as="geometry" />
        </mxCell>
        <mxCell id="m40AEBjQ_49BU9F84Wip-5" value="" style="rounded=0;whiteSpace=wrap;html=1;fillColor=#dae8fc;strokeColor=#6c8ebf;strokeWidth=2;" vertex="1" parent="1">
          <mxGeometry x="616" y="112" width="20" height="130" as="geometry" />
        </mxCell>
        <mxCell id="m40AEBjQ_49BU9F84Wip-23" style="edgeStyle=orthogonalEdgeStyle;rounded=0;orthogonalLoop=1;jettySize=auto;html=1;strokeWidth=2;fontSize=20;" edge="1" parent="1" target="m40AEBjQ_49BU9F84Wip-6">
          <mxGeometry relative="1" as="geometry">
            <mxPoint x="395" y="316.5" as="sourcePoint" />
            <mxPoint x="475" y="177" as="targetPoint" />
            <Array as="points">
              <mxPoint x="429" y="317" />
            </Array>
          </mxGeometry>
        </mxCell>
        <mxCell id="m40AEBjQ_49BU9F84Wip-24" style="edgeStyle=orthogonalEdgeStyle;rounded=0;orthogonalLoop=1;jettySize=auto;html=1;entryX=0;entryY=0.5;entryDx=0;entryDy=0;strokeWidth=2;fontSize=20;" edge="1" parent="1" target="m40AEBjQ_49BU9F84Wip-9">
          <mxGeometry relative="1" as="geometry">
            <mxPoint x="395" y="316.5" as="sourcePoint" />
            <mxPoint x="449" y="417" as="targetPoint" />
            <Array as="points">
              <mxPoint x="429" y="317" />
              <mxPoint x="429" y="417" />
            </Array>
          </mxGeometry>
        </mxCell>
        <mxCell id="m40AEBjQ_49BU9F84Wip-7" value="&lt;div style=&quot;font-size: 20px;&quot;&gt;&lt;font style=&quot;font-size: 20px;&quot;&gt;L1 &lt;br&gt;&lt;/font&gt;&lt;/div&gt;&lt;div style=&quot;font-size: 20px;&quot;&gt;&lt;font style=&quot;font-size: 20px;&quot;&gt;DTLB&lt;/font&gt;&lt;/div&gt;" style="rounded=0;whiteSpace=wrap;html=1;fillColor=#d5e8d4;strokeColor=#82b366;strokeWidth=3;" vertex="1" parent="1">
          <mxGeometry x="296" y="270" width="110" height="93" as="geometry" />
        </mxCell>
        <mxCell id="m40AEBjQ_49BU9F84Wip-8" value="&lt;div style=&quot;font-size: 20px;&quot;&gt;&lt;font style=&quot;font-size: 20px;&quot;&gt;Load&lt;/font&gt;&lt;/div&gt;&lt;div style=&quot;font-size: 20px;&quot;&gt;&lt;font style=&quot;font-size: 20px;&quot;&gt;Queue&lt;br&gt;&lt;/font&gt;&lt;/div&gt;" style="rounded=0;whiteSpace=wrap;html=1;fillColor=#fff2cc;strokeColor=#d6b656;strokeWidth=2;" vertex="1" parent="1">
          <mxGeometry x="680" y="377" width="120" height="80" as="geometry" />
        </mxCell>
        <mxCell id="m40AEBjQ_49BU9F84Wip-26" style="edgeStyle=orthogonalEdgeStyle;rounded=0;orthogonalLoop=1;jettySize=auto;html=1;entryX=0;entryY=0.5;entryDx=0;entryDy=0;strokeWidth=2;fontSize=20;" edge="1" parent="1" target="m40AEBjQ_49BU9F84Wip-5">
          <mxGeometry relative="1" as="geometry">
            <mxPoint x="540" y="417" as="sourcePoint" />
            <mxPoint x="596" y="177" as="targetPoint" />
            <Array as="points">
              <mxPoint x="570" y="417" />
              <mxPoint x="570" y="177" />
            </Array>
          </mxGeometry>
        </mxCell>
        <mxCell id="m40AEBjQ_49BU9F84Wip-9" value="&lt;div&gt;&lt;font style=&quot;font-size: 20px;&quot;&gt;L1&lt;/font&gt;&lt;/div&gt;&lt;div&gt;&lt;font style=&quot;font-size: 20px;&quot;&gt;DCache&lt;/font&gt;&lt;/div&gt;" style="rounded=1;whiteSpace=wrap;html=1;strokeWidth=3;fillColor=#d5e8d4;strokeColor=#82b366;" vertex="1" parent="1">
          <mxGeometry x="460" y="380" width="100" height="74" as="geometry" />
        </mxCell>
        <mxCell id="m40AEBjQ_49BU9F84Wip-17" value="stage 0" style="text;html=1;strokeColor=none;fillColor=none;align=center;verticalAlign=middle;whiteSpace=wrap;rounded=0;strokeWidth=2;fontSize=20;" vertex="1" parent="1">
          <mxGeometry x="260" y="102" width="90" height="30" as="geometry" />
        </mxCell>
        <mxCell id="m40AEBjQ_49BU9F84Wip-18" value="stage 1" style="text;html=1;strokeColor=none;fillColor=none;align=center;verticalAlign=middle;whiteSpace=wrap;rounded=0;strokeWidth=2;fontSize=20;" vertex="1" parent="1">
          <mxGeometry x="390" y="102" width="90" height="30" as="geometry" />
        </mxCell>
        <mxCell id="m40AEBjQ_49BU9F84Wip-19" value="stage 2" style="text;html=1;strokeColor=none;fillColor=none;align=center;verticalAlign=middle;whiteSpace=wrap;rounded=0;strokeWidth=2;fontSize=20;" vertex="1" parent="1">
          <mxGeometry x="517" y="103" width="90" height="30" as="geometry" />
        </mxCell>
        <mxCell id="m40AEBjQ_49BU9F84Wip-20" value="stage 3" style="text;html=1;strokeColor=none;fillColor=none;align=center;verticalAlign=middle;whiteSpace=wrap;rounded=0;strokeWidth=2;fontSize=20;" vertex="1" parent="1">
          <mxGeometry x="647" y="104" width="90" height="30" as="geometry" />
        </mxCell>
        <mxCell id="m40AEBjQ_49BU9F84Wip-21" value="&lt;p style=&quot;line-height: 0.9;&quot;&gt;&lt;/p&gt;&lt;div&gt;v&lt;/div&gt;&lt;div&gt;a&lt;/div&gt;&lt;div&gt;d&lt;/div&gt;&lt;div&gt;d&lt;/div&gt;&lt;div&gt;r&lt;/div&gt;&lt;p&gt;&lt;/p&gt;" style="text;html=1;strokeColor=none;fillColor=none;align=center;verticalAlign=middle;whiteSpace=wrap;rounded=0;strokeWidth=2;fontSize=20;" vertex="1" parent="1">
          <mxGeometry x="220" y="270" width="25" height="110" as="geometry" />
        </mxCell>
        <mxCell id="m40AEBjQ_49BU9F84Wip-25" value="paddr" style="text;html=1;strokeColor=none;fillColor=none;align=center;verticalAlign=middle;whiteSpace=wrap;rounded=0;strokeWidth=2;fontSize=20;" vertex="1" parent="1">
          <mxGeometry x="432" y="299.5" width="60" height="30" as="geometry" />
        </mxCell>
        <mxCell id="m40AEBjQ_49BU9F84Wip-27" value="data" style="text;html=1;strokeColor=none;fillColor=none;align=center;verticalAlign=middle;whiteSpace=wrap;rounded=0;strokeWidth=2;fontSize=20;" vertex="1" parent="1">
          <mxGeometry x="511" y="299.5" width="60" height="30" as="geometry" />
        </mxCell>
        <mxCell id="m40AEBjQ_49BU9F84Wip-29" value="update" style="text;html=1;strokeColor=none;fillColor=none;align=center;verticalAlign=middle;whiteSpace=wrap;rounded=0;strokeWidth=2;fontSize=20;" vertex="1" parent="1">
          <mxGeometry x="604" y="380" width="60" height="30" as="geometry" />
        </mxCell>
      </root>
    </mxGraphModel>
  </diagram>
</mxfile>
